STARTFONT 2.1
COMMENT
COMMENT Converted from OpenType font "RobotoMono-SemiBold.ttf" by "otf2bdf 3.0".
COMMENT
FONT -FreeType-Roboto Mono SemiBold-Medium-R-Normal--28-200-100-100-P-139-ISO10646-1
SIZE 20 100 100
FONTBOUNDINGBOX 36 36 -14 -7
STARTPROPERTIES 19
FOUNDRY "FreeType"
FAMILY_NAME "Roboto Mono SemiBold"
WEIGHT_NAME "Medium"
SLANT "R"
SETWIDTH_NAME "Normal"
ADD_STYLE_NAME ""
PIXEL_SIZE 28
POINT_SIZE 200
RESOLUTION_X 100
RESOLUTION_Y 100
SPACING "P"
AVERAGE_WIDTH 139
CHARSET_REGISTRY "ISO10646"
CHARSET_ENCODING "1"
FONT_ASCENT 29
FONT_DESCENT 7
COPYRIGHT "Copyright 2015 The Roboto Mono Project Authors (https://github.com/googlefonts/robotomono)"
_OTF_FONTFILE "RobotoMono-SemiBold.ttf"
_OTF_PSNAME "RobotoMono-SemiBold"
ENDPROPERTIES
CHARS 876
STARTCHAR 000D
ENCODING 13
SWIDTH 612 0
DWIDTH 17 0
BBX 0 0 0 0
BITMAP
ENDCHAR
STARTCHAR 0020
ENCODING 32
SWIDTH 612 0
DWIDTH 17 0
BBX 0 0 0 0
BITMAP
ENDCHAR
STARTCHAR 0021
ENCODING 33
SWIDTH 612 0
DWIDTH 17 0
BBX 4 20 6 0
BITMAP
70
70
70
70
70
70
70
70
70
70
70
70
70
00
00
00
60
F0
F0
70
ENDCHAR
STARTCHAR 0022
ENCODING 34
SWIDTH 612 0
DWIDTH 17 0
BBX 8 7 4 14
BITMAP
E3
E3
E3
E3
E3
C3
C3
ENDCHAR
STARTCHAR 0023
ENCODING 35
SWIDTH 612 0
DWIDTH 17 0
BBX 15 20 1 0
BITMAP
0718
0638
0638
0630
0630
0E30
7FFE
7FFE
0C60
0C60
1C60
1C60
FFFC
FFFC
18C0
18C0
38C0
39C0
31C0
3180
ENDCHAR
STARTCHAR 0024
ENCODING 36
SWIDTH 612 0
DWIDTH 17 0
BBX 13 26 2 -3
BITMAP
0300
0300
0300
0FC0
3FF0
7FF0
7878
7038
7038
7000
7800
3E00
3FC0
0FE0
03F0
0078
0038
E038
F038
F078
7FF8
3FF0
1FE0
0300
0300
0300
ENDCHAR
STARTCHAR 0025
ENCODING 37
SWIDTH 612 0
DWIDTH 17 0
BBX 15 20 1 0
BITMAP
7C00
FE00
CE20
C630
C670
C660
FEE0
7CC0
1180
0180
0300
0300
067C
0EFE
0CC6
1CC6
18C6
00C6
00FE
007C
ENDCHAR
STARTCHAR 0026
ENCODING 38
SWIDTH 612 0
DWIDTH 17 0
BBX 16 20 1 0
BITMAP
0FC0
1FE0
3FE0
3CF0
3870
38E0
3CE0
1FC0
1F80
0F00
3F0E
7F8E
73CE
F1EE
F1FE
F0FC
F078
7FFC
7FFE
1FDF
ENDCHAR
STARTCHAR 0027
ENCODING 39
SWIDTH 612 0
DWIDTH 17 0
BBX 3 7 6 14
BITMAP
E0
E0
E0
E0
E0
E0
E0
ENDCHAR
STARTCHAR 0028
ENCODING 40
SWIDTH 612 0
DWIDTH 17 0
BBX 7 28 5 -6
BITMAP
06
0E
1C
1C
38
70
70
70
E0
E0
E0
E0
E0
E0
E0
E0
E0
E0
E0
E0
70
70
70
38
1C
1C
0E
06
ENDCHAR
STARTCHAR 0029
ENCODING 41
SWIDTH 612 0
DWIDTH 17 0
BBX 8 28 4 -6
BITMAP
40
E0
70
38
1C
1C
1E
0E
0E
0E
0F
07
07
07
07
07
07
0F
0E
0E
0E
0E
1C
1C
38
70
E0
40
ENDCHAR
STARTCHAR 002A
ENCODING 42
SWIDTH 612 0
DWIDTH 17 0
BBX 14 14 2 6
BITMAP
0380
0300
0300
0300
6308
FB7C
FFFC
0FC0
0780
0FC0
1CE0
38F0
3870
1020
ENDCHAR
STARTCHAR 002B
ENCODING 43
SWIDTH 612 0
DWIDTH 17 0
BBX 14 14 1 2
BITMAP
0380
0380
0380
0380
0380
FFFC
FFFC
FFFC
0380
0380
0380
0380
0380
0380
ENDCHAR
STARTCHAR 002C
ENCODING 44
SWIDTH 612 0
DWIDTH 17 0
BBX 5 8 5 -5
BITMAP
78
78
78
70
70
70
E0
E0
ENDCHAR
STARTCHAR 002D
ENCODING 45
SWIDTH 612 0
DWIDTH 17 0
BBX 11 3 4 7
BITMAP
FFE0
FFE0
FFE0
ENDCHAR
STARTCHAR 002E
ENCODING 46
SWIDTH 612 0
DWIDTH 17 0
BBX 5 4 6 0
BITMAP
F8
F8
F8
70
ENDCHAR
STARTCHAR 002F
ENCODING 47
SWIDTH 612 0
DWIDTH 17 0
BBX 11 22 3 -2
BITMAP
00E0
01E0
01C0
01C0
0380
0380
0780
0700
0700
0F00
0E00
0E00
1E00
1C00
1C00
3C00
3800
3800
7800
7000
7000
E000
ENDCHAR
STARTCHAR 0030
ENCODING 48
SWIDTH 612 0
DWIDTH 17 0
BBX 13 20 2 0
BITMAP
1F80
3FE0
7FF0
70F0
F078
F078
F078
F0F8
F1F8
F3F8
FF78
FC78
F878
F078
F078
F078
70F0
7FF0
3FE0
1FC0
ENDCHAR
STARTCHAR 0031
ENCODING 49
SWIDTH 612 0
DWIDTH 17 0
BBX 9 20 2 0
BITMAP
0080
0780
3F80
FF80
FB80
E380
0380
0380
0380
0380
0380
0380
0380
0380
0380
0380
0380
0380
0380
0380
ENDCHAR
STARTCHAR 0032
ENCODING 50
SWIDTH 612 0
DWIDTH 17 0
BBX 14 20 1 0
BITMAP
0FC0
3FF0
7FF0
7878
F078
F038
0038
0078
0070
00F0
01E0
03C0
0780
0F00
1E00
3C00
7800
FFFC
FFFC
FFFC
ENDCHAR
STARTCHAR 0033
ENCODING 51
SWIDTH 612 0
DWIDTH 17 0
BBX 14 20 1 0
BITMAP
0FC0
3FF0
7FF8
7878
7038
0038
0038
0078
07F0
07E0
07F0
00F8
0038
003C
003C
F03C
7878
7FF8
3FF0
1FE0
ENDCHAR
STARTCHAR 0034
ENCODING 52
SWIDTH 612 0
DWIDTH 17 0
BBX 14 20 1 0
BITMAP
00F0
01F0
01F0
03F0
03F0
07F0
0EF0
0EF0
1CF0
38F0
38F0
70F0
F0F0
FFFC
FFFC
FFFC
00F0
00F0
00F0
00F0
ENDCHAR
STARTCHAR 0035
ENCODING 53
SWIDTH 612 0
DWIDTH 17 0
BBX 13 20 2 0
BITMAP
7FF0
7FF0
7FF0
7000
7000
7000
7000
7FC0
7FE0
FFF0
30F0
0078
0078
0078
0078
E078
F070
7FF0
3FE0
1FC0
ENDCHAR
STARTCHAR 0036
ENCODING 54
SWIDTH 612 0
DWIDTH 17 0
BBX 13 20 2 0
BITMAP
03C0
0FC0
1FC0
3E00
7800
7000
F000
E7C0
FFE0
FFF0
F0F0
E078
E078
E078
E078
F078
F0F0
7FF0
3FE0
1FC0
ENDCHAR
STARTCHAR 0037
ENCODING 55
SWIDTH 612 0
DWIDTH 17 0
BBX 14 20 1 0
BITMAP
FFFC
FFFC
FFFC
0038
0038
0070
0070
00F0
00E0
01E0
01C0
03C0
0380
0780
0700
0F00
0F00
0E00
1E00
3C00
ENDCHAR
STARTCHAR 0038
ENCODING 56
SWIDTH 612 0
DWIDTH 17 0
BBX 13 20 2 0
BITMAP
1F80
3FE0
7FF0
F0F0
F070
F070
F070
70F0
7FE0
3FC0
3FE0
78F0
F070
E078
E078
E078
F078
FFF0
7FE0
1FC0
ENDCHAR
STARTCHAR 0039
ENCODING 57
SWIDTH 612 0
DWIDTH 17 0
BBX 14 20 1 0
BITMAP
0FC0
1FE0
3FF0
7878
7038
7038
F03C
F03C
703C
783C
7CFC
3FF8
1FB8
0238
0078
0070
01F0
1FE0
1FC0
1F00
ENDCHAR
STARTCHAR 003A
ENCODING 58
SWIDTH 612 0
DWIDTH 17 0
BBX 5 15 6 0
BITMAP
F8
F8
F8
70
00
00
00
00
00
00
00
F8
F8
F8
70
ENDCHAR
STARTCHAR 003B
ENCODING 59
SWIDTH 612 0
DWIDTH 17 0
BBX 6 20 6 -5
BITMAP
7C
7C
7C
38
00
00
00
00
00
00
00
00
78
78
78
70
70
70
E0
E0
ENDCHAR
STARTCHAR 003C
ENCODING 60
SWIDTH 612 0
DWIDTH 17 0
BBX 12 13 2 2
BITMAP
0010
00F0
03F0
0FF0
7F80
FC00
F000
FE00
3FC0
0FF0
01F0
0070
0010
ENDCHAR
STARTCHAR 003D
ENCODING 61
SWIDTH 612 0
DWIDTH 17 0
BBX 13 9 2 4
BITMAP
FFF8
FFF8
FFF8
0000
0000
0000
FFF8
FFF8
FFF8
ENDCHAR
STARTCHAR 003E
ENCODING 62
SWIDTH 612 0
DWIDTH 17 0
BBX 13 13 2 2
BITMAP
C000
F000
FE00
7F80
0FE0
01F8
0078
03F8
1FE0
FF00
FC00
F000
8000
ENDCHAR
STARTCHAR 003F
ENCODING 63
SWIDTH 612 0
DWIDTH 17 0
BBX 13 20 2 0
BITMAP
1FC0
3FF0
7FF0
7078
F078
0078
0078
00F0
00F0
01E0
03C0
0780
0700
0700
0000
0000
0600
0F00
0F80
0700
ENDCHAR
STARTCHAR 0040
ENCODING 64
SWIDTH 612 0
DWIDTH 17 0
BBX 15 20 1 0
BITMAP
03C0
0FF0
1C78
381C
708C
63E6
E766
CE66
CC66
CC66
CC66
DC66
CC64
CCEC
CFF8
E630
6000
7820
3FE0
0FC0
ENDCHAR
STARTCHAR 0041
ENCODING 65
SWIDTH 612 0
DWIDTH 17 0
BBX 16 20 1 0
BITMAP
0380
03C0
07C0
07C0
07E0
0EE0
0EE0
0EF0
1E70
1C70
1C78
3C78
3838
3FFC
7FFC
7FFC
701E
F01E
F01E
E00F
ENDCHAR
STARTCHAR 0042
ENCODING 66
SWIDTH 612 0
DWIDTH 17 0
BBX 14 20 2 0
BITMAP
FF80
FFF0
FFF8
E078
E038
E038
E038
E078
FFF0
FFE0
FFF0
E078
E03C
E03C
E03C
E03C
E07C
FFF8
FFF0
FFC0
ENDCHAR
STARTCHAR 0043
ENCODING 67
SWIDTH 612 0
DWIDTH 17 0
BBX 15 20 1 0
BITMAP
0FE0
1FF0
3FF8
783C
781C
701C
F002
F000
F000
F000
F000
F000
F000
F002
701C
701C
783C
3FF8
1FF0
0FE0
ENDCHAR
STARTCHAR 0044
ENCODING 68
SWIDTH 612 0
DWIDTH 17 0
BBX 14 20 2 0
BITMAP
FF00
FFC0
FFE0
E1F0
E0F8
E078
E038
E038
E03C
E03C
E03C
E03C
E038
E038
E078
E078
E1F0
FFE0
FFC0
FF00
ENDCHAR
STARTCHAR 0045
ENCODING 69
SWIDTH 612 0
DWIDTH 17 0
BBX 13 20 2 0
BITMAP
FFF8
FFF8
FFF8
F000
F000
F000
F000
F000
FFF0
FFF0
FFF0
F000
F000
F000
F000
F000
F000
FFF8
FFF8
FFF8
ENDCHAR
STARTCHAR 0046
ENCODING 70
SWIDTH 612 0
DWIDTH 17 0
BBX 13 20 2 0
BITMAP
FFF8
FFF8
FFF8
F000
F000
F000
F000
F000
F000
FFF0
FFF0
FFF0
F000
F000
F000
F000
F000
F000
F000
F000
ENDCHAR
STARTCHAR 0047
ENCODING 71
SWIDTH 612 0
DWIDTH 17 0
BBX 14 20 1 0
BITMAP
0FE0
1FF0
3FF8
7C3C
781C
701C
F000
F000
F000
F000
F1FC
F1FC
F1FC
F01C
701C
781C
781C
3FFC
1FF8
0FF0
ENDCHAR
STARTCHAR 0048
ENCODING 72
SWIDTH 612 0
DWIDTH 17 0
BBX 13 20 2 0
BITMAP
E078
E078
E078
E078
E078
E078
E078
E078
FFF8
FFF8
FFF8
E078
E078
E078
E078
E078
E078
E078
E078
E078
ENDCHAR
STARTCHAR 0049
ENCODING 73
SWIDTH 612 0
DWIDTH 17 0
BBX 11 20 3 0
BITMAP
FFE0
FFE0
FFE0
0E00
0E00
0E00
0E00
0E00
0E00
0E00
0E00
0E00
0E00
0E00
0E00
0E00
0E00
FFE0
FFE0
FFE0
ENDCHAR
STARTCHAR 004A
ENCODING 74
SWIDTH 612 0
DWIDTH 17 0
BBX 14 20 1 0
BITMAP
003C
003C
003C
003C
003C
003C
003C
003C
003C
003C
003C
003C
003C
003C
F03C
703C
7878
7FF8
3FF0
0FC0
ENDCHAR
STARTCHAR 004B
ENCODING 75
SWIDTH 612 0
DWIDTH 17 0
BBX 15 20 2 0
BITMAP
E03E
E07C
E078
E0F0
E1E0
E3E0
E3C0
E780
EF00
FF00
FF80
FFC0
FBC0
F1E0
E1F0
E0F0
E078
E078
E03C
E03E
ENDCHAR
STARTCHAR 004C
ENCODING 76
SWIDTH 612 0
DWIDTH 17 0
BBX 13 20 2 0
BITMAP
F000
F000
F000
F000
F000
F000
F000
F000
F000
F000
F000
F000
F000
F000
F000
F000
F000
FFF8
FFF8
FFF8
ENDCHAR
STARTCHAR 004D
ENCODING 77
SWIDTH 612 0
DWIDTH 17 0
BBX 13 20 2 0
BITMAP
F078
F8F8
F8F8
F8F8
F9F8
FDF8
FDF8
EDB8
EFB8
EFB8
E738
E738
E738
E638
E038
E038
E038
E038
E038
E038
ENDCHAR
STARTCHAR 004E
ENCODING 78
SWIDTH 612 0
DWIDTH 17 0
BBX 13 20 2 0
BITMAP
F078
F078
F078
F878
F878
FC78
FC78
EE78
EE78
E778
E778
E7F8
E3F8
E3F8
E1F8
E1F8
E0F8
E0F8
E078
E078
ENDCHAR
STARTCHAR 004F
ENCODING 79
SWIDTH 612 0
DWIDTH 17 0
BBX 15 20 1 0
BITMAP
0FC0
1FF0
3FF8
7878
783C
701C
F01C
F01E
F01E
F01E
F01E
F01E
F01E
F01C
701C
783C
7878
3FF8
1FF0
0FE0
ENDCHAR
STARTCHAR 0050
ENCODING 80
SWIDTH 612 0
DWIDTH 17 0
BBX 14 20 2 0
BITMAP
FF80
FFF0
FFF8
F078
F03C
F03C
F03C
F03C
F03C
F0F8
FFF0
FFE0
FE00
F000
F000
F000
F000
F000
F000
F000
ENDCHAR
STARTCHAR 0051
ENCODING 81
SWIDTH 612 0
DWIDTH 17 0
BBX 15 23 1 -3
BITMAP
0FC0
1FF0
3FF8
787C
783C
701C
F01E
F01E
F01E
F01E
F01E
F01E
F01E
F01E
701C
783C
783C
3FF8
1FF0
0FF8
003C
001E
000C
ENDCHAR
STARTCHAR 0052
ENCODING 82
SWIDTH 612 0
DWIDTH 17 0
BBX 14 20 2 0
BITMAP
FF80
FFE0
FFF0
F078
F038
F03C
F03C
F038
F078
F1F8
FFF0
FFC0
F1C0
F1E0
F0F0
F0F0
F078
F078
F03C
F03C
ENDCHAR
STARTCHAR 0053
ENCODING 83
SWIDTH 612 0
DWIDTH 17 0
BBX 15 20 1 0
BITMAP
0FE0
1FF8
3FFC
783C
781E
701E
7800
7C00
3F80
1FE0
07F8
01FC
003C
001E
F01E
F01E
781E
7FFC
3FF8
0FF0
ENDCHAR
STARTCHAR 0054
ENCODING 84
SWIDTH 612 0
DWIDTH 17 0
BBX 15 20 1 0
BITMAP
FFFE
FFFE
FFFE
0380
0380
0380
0380
0380
0380
0380
0380
0380
0380
0380
0380
0380
0380
0380
0380
0380
ENDCHAR
STARTCHAR 0055
ENCODING 85
SWIDTH 612 0
DWIDTH 17 0
BBX 13 20 2 0
BITMAP
E078
E078
E078
E078
E078
E078
E078
E078
E078
E078
E078
E078
E078
E078
E078
F078
F0F0
7FF0
3FE0
1FC0
ENDCHAR
STARTCHAR 0056
ENCODING 86
SWIDTH 612 0
DWIDTH 17 0
BBX 15 20 1 0
BITMAP
F01E
F01E
F01E
703C
783C
783C
7838
3878
3C78
3C70
1C70
1EF0
1EE0
0EE0
0FE0
0FE0
07C0
07C0
07C0
0780
ENDCHAR
STARTCHAR 0057
ENCODING 87
SWIDTH 612 0
DWIDTH 17 0
BBX 15 20 1 0
BITMAP
E38E
E38E
E38E
E38E
E78E
E7CE
F7DE
F7DC
76DC
76DC
76DC
7EFC
7EFC
7CFC
7C78
3C78
3C78
3C78
3C78
3C78
ENDCHAR
STARTCHAR 0058
ENCODING 88
SWIDTH 612 0
DWIDTH 17 0
BBX 16 20 1 0
BITMAP
F01E
781E
783C
3C38
3C78
1EF0
1EF0
0FE0
07E0
07C0
07C0
0FE0
0FE0
1EF0
1E70
3C78
3C3C
783C
F81E
F01F
ENDCHAR
STARTCHAR 0059
ENCODING 89
SWIDTH 612 0
DWIDTH 17 0
BBX 16 20 1 0
BITMAP
F01F
F01E
781C
783C
3838
3C78
1C70
1EF0
0EE0
0FE0
07C0
07C0
0380
0380
0380
0380
0380
0380
0380
0380
ENDCHAR
STARTCHAR 005A
ENCODING 90
SWIDTH 612 0
DWIDTH 17 0
BBX 15 20 1 0
BITMAP
FFFC
FFFC
FFFC
003C
0078
00F0
00F0
01E0
03C0
03C0
0780
0F00
0F00
1E00
3C00
3C00
7800
FFFE
FFFE
FFFE
ENDCHAR
STARTCHAR 005B
ENCODING 91
SWIDTH 612 0
DWIDTH 17 0
BBX 6 28 6 -5
BITMAP
FC
FC
FC
E0
E0
E0
E0
E0
E0
E0
E0
E0
E0
E0
E0
E0
E0
E0
E0
E0
E0
E0
E0
E0
E0
FC
FC
FC
ENDCHAR
STARTCHAR 005C
ENCODING 92
SWIDTH 612 0
DWIDTH 17 0
BBX 11 22 3 -2
BITMAP
F000
7000
7000
7800
3800
3800
3C00
1C00
1E00
0E00
0E00
0F00
0700
0700
0780
0380
0380
03C0
01C0
01C0
01E0
00E0
ENDCHAR
STARTCHAR 005D
ENCODING 93
SWIDTH 612 0
DWIDTH 17 0
BBX 6 28 5 -5
BITMAP
FC
FC
FC
1C
1C
1C
1C
1C
1C
1C
1C
1C
1C
1C
1C
1C
1C
1C
1C
1C
1C
1C
1C
1C
1C
FC
FC
FC
ENDCHAR
STARTCHAR 005E
ENCODING 94
SWIDTH 612 0
DWIDTH 17 0
BBX 11 11 3 9
BITMAP
0E00
0E00
1F00
1F00
1B80
3B80
31C0
71C0
71C0
E0E0
E0E0
ENDCHAR
STARTCHAR 005F
ENCODING 95
SWIDTH 612 0
DWIDTH 17 0
BBX 13 3 2 -3
BITMAP
FFF8
FFF8
FFF8
ENDCHAR
STARTCHAR 0060
ENCODING 96
SWIDTH 612 0
DWIDTH 17 0
BBX 6 4 6 16
BITMAP
F0
78
38
1C
ENDCHAR
STARTCHAR 0061
ENCODING 97
SWIDTH 612 0
DWIDTH 17 0
BBX 13 15 2 0
BITMAP
1F80
7FE0
7FF0
F0F0
F070
0070
1FF0
7FF0
F870
E070
E070
E0F0
FFF0
7FF8
3F78
ENDCHAR
STARTCHAR 0062
ENCODING 98
SWIDTH 612 0
DWIDTH 17 0
BBX 13 21 2 0
BITMAP
F000
F000
F000
F000
F000
F000
F7C0
FFE0
FFF0
F0F8
F078
F078
F038
F038
F038
F038
F078
F078
FFF0
FFE0
E7C0
ENDCHAR
STARTCHAR 0063
ENCODING 99
SWIDTH 612 0
DWIDTH 17 0
BBX 13 15 2 0
BITMAP
0F80
3FE0
7FF0
78F0
F078
E078
E000
E000
E000
E000
F078
F078
7FF0
3FE0
1FC0
ENDCHAR
STARTCHAR 0064
ENCODING 100
SWIDTH 612 0
DWIDTH 17 0
BBX 13 21 2 0
BITMAP
0078
0078
0078
0078
0078
0078
1F78
3FF8
7FF8
F0F8
F078
E078
E078
E078
E078
E078
F078
F078
7FF8
7FF8
1F78
ENDCHAR
STARTCHAR 0065
ENCODING 101
SWIDTH 612 0
DWIDTH 17 0
BBX 13 15 2 0
BITMAP
0FC0
3FE0
7FF0
7878
F078
E038
FFF8
FFF8
FFF8
E000
F000
F830
7FF8
3FF0
0FE0
ENDCHAR
STARTCHAR 0066
ENCODING 102
SWIDTH 612 0
DWIDTH 17 0
BBX 14 22 2 0
BITMAP
0070
03FC
07FC
0F84
0F00
0E00
0E00
FFF8
FFF8
FFF8
0E00
0E00
0E00
0E00
0E00
0E00
0E00
0E00
0E00
0E00
0E00
0E00
ENDCHAR
STARTCHAR 0067
ENCODING 103
SWIDTH 612 0
DWIDTH 17 0
BBX 13 21 2 -6
BITMAP
1F38
3FB8
7FF8
F878
F078
E078
E078
E078
E078
E078
F078
F078
7FF8
3FF8
1F78
0078
2078
70F0
FFF0
3FE0
0F00
ENDCHAR
STARTCHAR 0068
ENCODING 104
SWIDTH 612 0
DWIDTH 17 0
BBX 13 21 2 0
BITMAP
F000
F000
F000
F000
F000
F000
F3C0
FFF0
FFF0
F078
F078
F078
F038
F038
F038
F038
F038
F038
F038
F038
F038
ENDCHAR
STARTCHAR 0069
ENCODING 105
SWIDTH 612 0
DWIDTH 17 0
BBX 12 21 3 0
BITMAP
0200
0F00
0F00
0F00
0000
0000
FF00
FF00
FF00
0F00
0F00
0F00
0F00
0F00
0F00
0F00
0F00
0F00
FFF0
FFF0
FFF0
ENDCHAR
STARTCHAR 006A
ENCODING 106
SWIDTH 612 0
DWIDTH 17 0
BBX 9 27 3 -6
BITMAP
0200
0780
0780
0780
0000
0000
7F80
7F80
7F80
0780
0780
0780
0780
0780
0780
0780
0780
0780
0780
0780
0780
0780
0780
0F00
FF00
FE00
F800
ENDCHAR
STARTCHAR 006B
ENCODING 107
SWIDTH 612 0
DWIDTH 17 0
BBX 14 21 2 0
BITMAP
F000
F000
F000
F000
F000
F000
F078
F0F0
F1E0
F3C0
F780
FF00
FF00
FF80
FF80
FBC0
F1E0
F1F0
F0F0
F078
F07C
ENDCHAR
STARTCHAR 006C
ENCODING 108
SWIDTH 612 0
DWIDTH 17 0
BBX 12 21 3 0
BITMAP
FF00
FF00
FF00
0F00
0F00
0F00
0F00
0F00
0F00
0F00
0F00
0F00
0F00
0F00
0F00
0F00
0F00
0F00
FFF0
FFF0
FFF0
ENDCHAR
STARTCHAR 006D
ENCODING 109
SWIDTH 612 0
DWIDTH 17 0
BBX 15 15 1 0
BITMAP
EF38
FFFC
FFFC
E39E
E39E
E39E
E39E
E39E
E39E
E39E
E39E
E39E
E39E
E39E
E39E
ENDCHAR
STARTCHAR 006E
ENCODING 110
SWIDTH 612 0
DWIDTH 17 0
BBX 13 15 2 0
BITMAP
E7C0
EFF0
FFF0
F078
F078
F078
F078
F078
F078
F078
F078
F078
F078
F078
F078
ENDCHAR
STARTCHAR 006F
ENCODING 111
SWIDTH 612 0
DWIDTH 17 0
BBX 14 15 1 0
BITMAP
07C0
1FF0
3FF8
7878
783C
703C
701C
F01C
F01C
701C
783C
783C
3FF8
1FF0
0FE0
ENDCHAR
STARTCHAR 0070
ENCODING 112
SWIDTH 612 0
DWIDTH 17 0
BBX 13 21 2 -6
BITMAP
E7C0
EFE0
FFF0
F0F0
F078
F078
F038
F038
F038
F078
F078
F078
FFF0
FFE0
F7C0
F000
F000
F000
F000
F000
F000
ENDCHAR
STARTCHAR 0071
ENCODING 113
SWIDTH 612 0
DWIDTH 17 0
BBX 13 21 2 -6
BITMAP
1F38
3FF8
7FF8
F0F8
F078
E078
E078
E078
E078
E078
F078
F078
7FF8
7FF8
1F78
0078
0078
0078
0078
0078
0078
ENDCHAR
STARTCHAR 0072
ENCODING 114
SWIDTH 612 0
DWIDTH 17 0
BBX 11 15 4 0
BITMAP
E3E0
E7E0
FFE0
FEE0
F800
F000
F000
F000
F000
F000
F000
F000
F000
F000
F000
ENDCHAR
STARTCHAR 0073
ENCODING 115
SWIDTH 612 0
DWIDTH 17 0
BBX 13 15 2 0
BITMAP
1FC0
3FF0
7FF0
F078
F078
F000
7F00
3FE0
0FF0
00F8
E038
F078
F8F8
7FF0
1FC0
ENDCHAR
STARTCHAR 0074
ENCODING 116
SWIDTH 612 0
DWIDTH 17 0
BBX 13 18 2 0
BITMAP
1E00
1E00
1E00
FFF0
FFF0
FFF0
1E00
1E00
1E00
1E00
1E00
1E00
1E00
1E00
1E00
0FF8
0FF8
07F8
ENDCHAR
STARTCHAR 0075
ENCODING 117
SWIDTH 612 0
DWIDTH 17 0
BBX 13 15 2 0
BITMAP
F078
F078
F078
F078
F078
F078
F078
F078
F078
F078
F078
F078
7FF8
7FB8
3F38
ENDCHAR
STARTCHAR 0076
ENCODING 118
SWIDTH 612 0
DWIDTH 17 0
BBX 15 15 1 0
BITMAP
F01E
701C
783C
7838
3838
3878
3C70
1C70
1CF0
0EE0
0EE0
0FC0
07C0
07C0
0380
ENDCHAR
STARTCHAR 0077
ENCODING 119
SWIDTH 612 0
DWIDTH 17 0
BBX 16 15 0 0
BITMAP
F1C7
71C7
71C7
73C7
73CE
73EE
3B6E
3B6E
3F6E
3E6C
3E7C
1E3C
1E3C
1E3C
1C3C
ENDCHAR
STARTCHAR 0078
ENCODING 120
SWIDTH 612 0
DWIDTH 17 0
BBX 15 15 1 0
BITMAP
F81E
783C
3C78
1E78
1EF0
0FE0
07E0
07C0
07E0
0FE0
1EF0
1E78
3C78
783C
F81E
ENDCHAR
STARTCHAR 0079
ENCODING 121
SWIDTH 612 0
DWIDTH 17 0
BBX 16 21 1 -6
BITMAP
F00F
F01E
781E
783C
383C
3C38
1C78
1E70
1EF0
0EF0
0FE0
07E0
07C0
03C0
0380
0780
0700
0F00
3E00
3E00
7800
ENDCHAR
STARTCHAR 007A
ENCODING 122
SWIDTH 612 0
DWIDTH 17 0
BBX 13 15 2 0
BITMAP
FFF8
FFF8
FFF8
00F0
01E0
03C0
0780
0F80
1F00
1E00
3C00
7800
FFF8
FFF8
FFF8
ENDCHAR
STARTCHAR 007B
ENCODING 123
SWIDTH 612 0
DWIDTH 17 0
BBX 9 27 4 -5
BITMAP
0180
0380
0700
0E00
0E00
0E00
0E00
0E00
0E00
0E00
0E00
1C00
FC00
F000
F800
1C00
1E00
0E00
0E00
0E00
0E00
0E00
0E00
0F00
0700
0380
0180
ENDCHAR
STARTCHAR 007C
ENCODING 124
SWIDTH 612 0
DWIDTH 17 0
BBX 3 26 7 -6
BITMAP
E0
E0
E0
E0
E0
E0
E0
E0
E0
E0
E0
E0
E0
E0
E0
E0
E0
E0
E0
E0
E0
E0
E0
E0
E0
E0
ENDCHAR
STARTCHAR 007D
ENCODING 125
SWIDTH 612 0
DWIDTH 17 0
BBX 9 27 5 -5
BITMAP
C000
E000
7000
3800
3800
3800
3800
3800
3800
3800
3800
1C00
1F80
0780
1F80
1C00
3800
3800
3800
3800
3800
3800
3800
7800
7000
E000
C000
ENDCHAR
STARTCHAR 007E
ENCODING 126
SWIDTH 612 0
DWIDTH 17 0
BBX 16 6 0 5
BITMAP
3E04
7F87
7FCF
61FE
E0FC
0038
ENDCHAR
STARTCHAR 00A0
ENCODING 160
SWIDTH 612 0
DWIDTH 17 0
BBX 0 0 0 0
BITMAP
ENDCHAR
STARTCHAR 00A1
ENCODING 161
SWIDTH 612 0
DWIDTH 17 0
BBX 4 20 7 -5
BITMAP
E0
F0
F0
E0
00
00
00
E0
E0
E0
E0
E0
E0
E0
E0
E0
E0
E0
E0
E0
ENDCHAR
STARTCHAR 00A2
ENCODING 162
SWIDTH 612 0
DWIDTH 17 0
BBX 13 21 2 -3
BITMAP
0700
0700
0700
0FC0
3FE0
7FF0
7878
F038
F038
F000
F000
F000
F000
F038
7878
7FF0
3FF0
1FC0
0700
0700
0700
ENDCHAR
STARTCHAR 00A3
ENCODING 163
SWIDTH 612 0
DWIDTH 17 0
BBX 14 20 2 0
BITMAP
07E0
1FF0
3FF8
3C38
383C
3800
3800
3800
3800
FFC0
FFC0
FFC0
3800
3800
3800
3800
7800
FFFC
FFFC
FFFC
ENDCHAR
STARTCHAR 00A4
ENCODING 164
SWIDTH 612 0
DWIDTH 17 0
BBX 15 15 1 0
BITMAP
2008
67CC
FFFE
7EFC
3838
701C
601C
600C
600C
600C
701C
7838
7C7C
FFFE
6FEC
ENDCHAR
STARTCHAR 00A5
ENCODING 165
SWIDTH 612 0
DWIDTH 17 0
BBX 17 20 0 0
BITMAP
F00F80
780F00
380E00
3C1E00
1C1C00
1E3C00
0E3800
0F7800
077000
07F000
3FFE00
3FFE00
01C000
01C000
3FFE00
3FFE00
01C000
01C000
01C000
01C000
ENDCHAR
STARTCHAR 00A6
ENCODING 166
SWIDTH 612 0
DWIDTH 17 0
BBX 3 24 7 -4
BITMAP
E0
E0
E0
E0
E0
E0
E0
E0
E0
E0
00
00
00
E0
E0
E0
E0
E0
E0
E0
E0
E0
E0
E0
ENDCHAR
STARTCHAR 00A7
ENCODING 167
SWIDTH 612 0
DWIDTH 17 0
BBX 15 26 1 -6
BITMAP
0FE0
3FF8
7FFC
783C
701E
701E
7800
7E00
3FE0
3FF8
7BFC
F07C
F01E
F01E
781E
7F1C
3FFC
0FF8
01FC
003C
001C
F01C
F03C
7FFC
3FF8
1FF0
ENDCHAR
STARTCHAR 00A8
ENCODING 168
SWIDTH 612 0
DWIDTH 17 0
BBX 10 3 4 17
BITMAP
E380
E3C0
E180
ENDCHAR
STARTCHAR 00A9
ENCODING 169
SWIDTH 612 0
DWIDTH 17 0
BBX 15 15 1 0
BITMAP
07C0
1C70
3018
638C
4EC4
CC66
C806
8802
C806
CC66
4C44
67CC
3018
1830
0FE0
ENDCHAR
STARTCHAR 00AA
ENCODING 170
SWIDTH 612 0
DWIDTH 17 0
BBX 9 11 4 9
BITMAP
3E00
7F00
E300
0380
3F80
FF80
E380
C380
EF80
FF80
1000
ENDCHAR
STARTCHAR 00AB
ENCODING 171
SWIDTH 612 0
DWIDTH 17 0
BBX 12 11 2 2
BITMAP
0E70
1CE0
18C0
39C0
7380
E700
7380
3180
39C0
1CE0
0E70
ENDCHAR
STARTCHAR 00AC
ENCODING 172
SWIDTH 612 0
DWIDTH 17 0
BBX 11 6 3 5
BITMAP
FFE0
FFE0
00E0
00E0
00E0
00E0
ENDCHAR
STARTCHAR 00AD
ENCODING 173
SWIDTH 612 0
DWIDTH 17 0
BBX 11 3 4 7
BITMAP
FFE0
FFE0
FFE0
ENDCHAR
STARTCHAR 00AE
ENCODING 174
SWIDTH 612 0
DWIDTH 17 0
BBX 15 15 1 0
BITMAP
07C0
1C70
3018
6F8C
4DC4
CC64
CC66
8FC6
8C86
CCC6
4C44
6C6C
3018
1830
0FE0
ENDCHAR
STARTCHAR 00AF
ENCODING 175
SWIDTH 612 0
DWIDTH 17 0
BBX 10 2 4 18
BITMAP
FFC0
FFC0
ENDCHAR
STARTCHAR 00B0
ENCODING 176
SWIDTH 612 0
DWIDTH 17 0
BBX 7 7 5 13
BITMAP
7C
7E
C6
C6
C6
FE
7C
ENDCHAR
STARTCHAR 00B1
ENCODING 177
SWIDTH 612 0
DWIDTH 17 0
BBX 13 18 2 0
BITMAP
0700
0700
0700
0700
0700
FFF8
FFF8
FFF8
0700
0700
0700
0700
0700
0700
0000
FFF0
FFF0
FFF0
ENDCHAR
STARTCHAR 00B2
ENCODING 178
SWIDTH 612 0
DWIDTH 17 0
BBX 9 11 4 9
BITMAP
3E00
7F00
E700
E300
0700
0F00
1E00
3800
7000
FF80
FF80
ENDCHAR
STARTCHAR 00B3
ENCODING 179
SWIDTH 612 0
DWIDTH 17 0
BBX 9 11 4 9
BITMAP
3E00
7F00
E380
0380
0F00
1E00
0700
0380
E380
7F00
3E00
ENDCHAR
STARTCHAR 00B4
ENCODING 180
SWIDTH 612 0
DWIDTH 17 0
BBX 7 4 5 16
BITMAP
3E
38
70
E0
ENDCHAR
STARTCHAR 00B5
ENCODING 181
SWIDTH 612 0
DWIDTH 17 0
BBX 13 21 2 -6
BITMAP
F038
F038
F038
F038
F038
F038
F038
F038
F038
F038
F038
F878
FFF8
FFF8
FFB8
F000
F000
F000
F000
F000
F000
ENDCHAR
STARTCHAR 00B6
ENCODING 182
SWIDTH 612 0
DWIDTH 17 0
BBX 11 20 3 0
BITMAP
0FE0
3FE0
7FE0
7FE0
FFE0
FFE0
FFE0
FFE0
FFE0
7FE0
7FE0
3FE0
0FE0
00E0
00E0
00E0
00E0
00E0
00E0
00E0
ENDCHAR
STARTCHAR 00B7
ENCODING 183
SWIDTH 612 0
DWIDTH 17 0
BBX 4 4 7 8
BITMAP
40
F0
F0
E0
ENDCHAR
STARTCHAR 00B8
ENCODING 184
SWIDTH 612 0
DWIDTH 17 0
BBX 5 6 6 -6
BITMAP
E0
F0
38
38
F8
F0
ENDCHAR
STARTCHAR 00B9
ENCODING 185
SWIDTH 612 0
DWIDTH 17 0
BBX 6 11 5 9
BITMAP
04
7C
FC
DC
1C
1C
1C
1C
1C
1C
1C
ENDCHAR
STARTCHAR 00BA
ENCODING 186
SWIDTH 612 0
DWIDTH 17 0
BBX 9 11 4 9
BITMAP
3E00
7F00
E380
C180
C180
C180
C180
C380
F700
7F00
0800
ENDCHAR
STARTCHAR 00BB
ENCODING 187
SWIDTH 612 0
DWIDTH 17 0
BBX 12 11 3 2
BITMAP
E700
7380
3180
39C0
1CE0
1EF0
1CE0
18C0
39C0
7380
E700
ENDCHAR
STARTCHAR 00BC
ENCODING 188
SWIDTH 612 0
DWIDTH 17 0
BBX 15 20 1 0
BITMAP
1800
F800
F800
3820
3870
3860
38C0
38C0
3980
3B80
031C
071C
063C
0E7C
0CFC
18DC
09FE
01FE
001C
001C
ENDCHAR
STARTCHAR 00BD
ENCODING 189
SWIDTH 612 0
DWIDTH 17 0
BBX 16 20 0 0
BITMAP
1800
F800
F800
1820
1870
1860
18C0
18C0
1980
1980
031C
077F
0667
0E03
0C07
1C0E
081C
0038
007F
007F
ENDCHAR
STARTCHAR 00BE
ENCODING 190
SWIDTH 612 0
DWIDTH 17 0
BBX 17 20 0 0
BITMAP
3E0000
7F0000
630000
030800
1E1C00
1F1800
033000
E33000
7F6000
3E6000
00C600
01CE00
019E00
039E00
033600
076600
027F80
007F80
000600
000600
ENDCHAR
STARTCHAR 00BF
ENCODING 191
SWIDTH 612 0
DWIDTH 17 0
BBX 12 20 3 -5
BITMAP
0600
0F00
0F00
0200
0000
0000
0F00
0F00
0E00
1E00
3C00
7800
F000
F000
E000
E0F0
F0F0
FFE0
7FE0
3F80
ENDCHAR
STARTCHAR 00C0
ENCODING 192
SWIDTH 612 0
DWIDTH 17 0
BBX 16 25 1 0
BITMAP
1E00
0F00
0700
0380
0000
0380
03C0
07C0
07C0
07E0
0EE0
0EE0
0EF0
1E70
1C70
1C78
3C78
3838
3FFC
7FFC
7FFC
701E
F01E
F01E
E00F
ENDCHAR
STARTCHAR 00C1
ENCODING 193
SWIDTH 612 0
DWIDTH 17 0
BBX 16 25 1 0
BITMAP
00F8
00E0
01C0
0380
0000
0380
03C0
07C0
07C0
07E0
0EE0
0EE0
0EF0
1E70
1C70
1C78
3C78
3838
3FFC
7FFC
7FFC
701E
F01E
F01E
E00F
ENDCHAR
STARTCHAR 00C2
ENCODING 194
SWIDTH 612 0
DWIDTH 17 0
BBX 16 26 1 0
BITMAP
0380
07C0
0EE0
1C78
0000
0000
0380
03C0
07C0
07C0
07E0
0EE0
0EE0
0EF0
1E70
1C70
1C78
3C78
3838
3FFC
7FFC
7FFC
701E
F01E
F01E
E00F
ENDCHAR
STARTCHAR 00C3
ENCODING 195
SWIDTH 612 0
DWIDTH 17 0
BBX 16 26 1 0
BITMAP
0E18
1FF0
1FF0
1840
0000
0000
0380
03C0
07C0
07C0
07E0
0EE0
0EE0
0EF0
1E70
1C70
1C78
3C78
3838
3FFC
7FFC
7FFC
701E
F01E
F01E
E00F
ENDCHAR
STARTCHAR 00C4
ENCODING 196
SWIDTH 612 0
DWIDTH 17 0
BBX 16 25 1 0
BITMAP
1C70
1C78
1C30
0000
0000
0380
03C0
07C0
07C0
07E0
0EE0
0EE0
0EF0
1E70
1C70
1C78
3C78
3838
3FFC
7FFC
7FFC
701E
F01E
F01E
E00F
ENDCHAR
STARTCHAR 00C5
ENCODING 197
SWIDTH 612 0
DWIDTH 17 0
BBX 16 27 1 0
BITMAP
0380
07C0
0440
0440
07C0
0100
0000
0380
03C0
07C0
07C0
07E0
0EE0
0EE0
0EF0
1E70
1C70
1C78
3C78
3838
3FFC
7FFC
7FFC
701E
F01E
F01E
E00F
ENDCHAR
STARTCHAR 00C6
ENCODING 198
SWIDTH 612 0
DWIDTH 17 0
BBX 15 20 1 0
BITMAP
03FE
03FE
03FE
07E0
07E0
07E0
0EE0
0EE0
0EFC
1CFC
1CFC
1CE0
3FE0
3FE0
7FE0
78E0
70E0
F0FE
F0FE
E0FE
ENDCHAR
STARTCHAR 00C7
ENCODING 199
SWIDTH 612 0
DWIDTH 17 0
BBX 15 26 1 -6
BITMAP
0FE0
1FF0
3FF8
783C
781C
701C
F002
F000
F000
F000
F000
F000
F000
F002
701C
701C
783C
3FF8
1FF0
0FE0
0380
03C0
00E0
00E0
03E0
03C0
ENDCHAR
STARTCHAR 00C8
ENCODING 200
SWIDTH 612 0
DWIDTH 17 0
BBX 13 25 2 0
BITMAP
3C00
1E00
0E00
0700
0000
FFF8
FFF8
FFF8
F000
F000
F000
F000
F000
FFF0
FFF0
FFF0
F000
F000
F000
F000
F000
F000
FFF8
FFF8
FFF8
ENDCHAR
STARTCHAR 00C9
ENCODING 201
SWIDTH 612 0
DWIDTH 17 0
BBX 13 25 2 0
BITMAP
01F0
01C0
0380
0700
0000
FFF8
FFF8
FFF8
F000
F000
F000
F000
F000
FFF0
FFF0
FFF0
F000
F000
F000
F000
F000
F000
FFF8
FFF8
FFF8
ENDCHAR
STARTCHAR 00CA
ENCODING 202
SWIDTH 612 0
DWIDTH 17 0
BBX 13 26 2 0
BITMAP
0700
0F80
1DC0
38F0
0000
0000
FFF8
FFF8
FFF8
F000
F000
F000
F000
F000
FFF0
FFF0
FFF0
F000
F000
F000
F000
F000
F000
FFF8
FFF8
FFF8
ENDCHAR
STARTCHAR 00CB
ENCODING 203
SWIDTH 612 0
DWIDTH 17 0
BBX 13 25 2 0
BITMAP
38E0
38F0
3860
0000
0000
FFF8
FFF8
FFF8
F000
F000
F000
F000
F000
FFF0
FFF0
FFF0
F000
F000
F000
F000
F000
F000
FFF8
FFF8
FFF8
ENDCHAR
STARTCHAR 00CC
ENCODING 204
SWIDTH 612 0
DWIDTH 17 0
BBX 11 25 3 0
BITMAP
7800
3C00
1C00
0E00
0000
FFE0
FFE0
FFE0
0E00
0E00
0E00
0E00
0E00
0E00
0E00
0E00
0E00
0E00
0E00
0E00
0E00
0E00
FFE0
FFE0
FFE0
ENDCHAR
STARTCHAR 00CD
ENCODING 205
SWIDTH 612 0
DWIDTH 17 0
BBX 11 25 3 0
BITMAP
07C0
0700
0E00
1C00
0000
FFE0
FFE0
FFE0
0E00
0E00
0E00
0E00
0E00
0E00
0E00
0E00
0E00
0E00
0E00
0E00
0E00
0E00
FFE0
FFE0
FFE0
ENDCHAR
STARTCHAR 00CE
ENCODING 206
SWIDTH 612 0
DWIDTH 17 0
BBX 11 26 3 0
BITMAP
1C00
3E00
7700
E3C0
0000
0000
FFE0
FFE0
FFE0
0E00
0E00
0E00
0E00
0E00
0E00
0E00
0E00
0E00
0E00
0E00
0E00
0E00
0E00
FFE0
FFE0
FFE0
ENDCHAR
STARTCHAR 00CF
ENCODING 207
SWIDTH 612 0
DWIDTH 17 0
BBX 11 25 3 0
BITMAP
E380
E3C0
E180
0000
0000
FFE0
FFE0
FFE0
0E00
0E00
0E00
0E00
0E00
0E00
0E00
0E00
0E00
0E00
0E00
0E00
0E00
0E00
FFE0
FFE0
FFE0
ENDCHAR
STARTCHAR 00D0
ENCODING 208
SWIDTH 612 0
DWIDTH 17 0
BBX 17 20 -1 0
BITMAP
1FE000
1FF800
1FFC00
1E3E00
1E0F00
1E0F00
1E0700
1E0780
1E0780
FFC780
FFC780
1E0780
1E0780
1E0700
1E0F00
1E0F00
1E1E00
1FFC00
1FF800
1FE000
ENDCHAR
STARTCHAR 00D1
ENCODING 209
SWIDTH 612 0
DWIDTH 17 0
BBX 13 26 2 0
BITMAP
1C30
3FE0
3FE0
3080
0000
0000
F078
F078
F078
F878
F878
FC78
FC78
EE78
EE78
E778
E778
E7F8
E3F8
E3F8
E1F8
E1F8
E0F8
E0F8
E078
E078
ENDCHAR
STARTCHAR 00D2
ENCODING 210
SWIDTH 612 0
DWIDTH 17 0
BBX 15 25 1 0
BITMAP
1E00
0F00
0700
0380
0000
0FC0
1FF0
3FF8
7878
783C
701C
F01C
F01E
F01E
F01E
F01E
F01E
F01E
F01C
701C
783C
7878
3FF8
1FF0
0FE0
ENDCHAR
STARTCHAR 00D3
ENCODING 211
SWIDTH 612 0
DWIDTH 17 0
BBX 15 25 1 0
BITMAP
00F8
00E0
01C0
0380
0000
0FC0
1FF0
3FF8
7878
783C
701C
F01C
F01E
F01E
F01E
F01E
F01E
F01E
F01C
701C
783C
7878
3FF8
1FF0
0FE0
ENDCHAR
STARTCHAR 00D4
ENCODING 212
SWIDTH 612 0
DWIDTH 17 0
BBX 15 26 1 0
BITMAP
0380
07C0
0EE0
1C78
0000
0000
0FC0
1FF0
3FF8
7878
783C
701C
F01C
F01E
F01E
F01E
F01E
F01E
F01E
F01C
701C
783C
7878
3FF8
1FF0
0FE0
ENDCHAR
STARTCHAR 00D5
ENCODING 213
SWIDTH 612 0
DWIDTH 17 0
BBX 15 26 1 0
BITMAP
0E18
1FF0
1FF0
1840
0000
0000
0FC0
1FF0
3FF8
7878
783C
701C
F01C
F01E
F01E
F01E
F01E
F01E
F01E
F01C
701C
783C
7878
3FF8
1FF0
0FE0
ENDCHAR
STARTCHAR 00D6
ENCODING 214
SWIDTH 612 0
DWIDTH 17 0
BBX 15 25 1 0
BITMAP
1C70
1C78
1C30
0000
0000
0FC0
1FF0
3FF8
7878
783C
701C
F01C
F01E
F01E
F01E
F01E
F01E
F01E
F01C
701C
783C
7878
3FF8
1FF0
0FE0
ENDCHAR
STARTCHAR 00D7
ENCODING 215
SWIDTH 612 0
DWIDTH 17 0
BBX 13 13 2 3
BITMAP
2020
7030
F878
7CF0
3FE0
1FC0
0F80
0FC0
1FE0
3DF0
78F0
F078
2030
ENDCHAR
STARTCHAR 00D8
ENCODING 216
SWIDTH 612 0
DWIDTH 17 0
BBX 15 22 1 -1
BITMAP
000E
0FCC
1FF8
3FF8
7878
787C
707C
F0FC
F0DE
F19E
F39E
F31E
F71E
F61E
FE1C
7C1C
783C
787C
3FF8
7FF0
6FE0
E000
ENDCHAR
STARTCHAR 00D9
ENCODING 217
SWIDTH 612 0
DWIDTH 17 0
BBX 13 25 2 0
BITMAP
3C00
1E00
0E00
0700
0000
E078
E078
E078
E078
E078
E078
E078
E078
E078
E078
E078
E078
E078
E078
E078
F078
F0F0
7FF0
3FE0
1FC0
ENDCHAR
STARTCHAR 00DA
ENCODING 218
SWIDTH 612 0
DWIDTH 17 0
BBX 13 25 2 0
BITMAP
01F0
01C0
0380
0700
0000
E078
E078
E078
E078
E078
E078
E078
E078
E078
E078
E078
E078
E078
E078
E078
F078
F0F0
7FF0
3FE0
1FC0
ENDCHAR
STARTCHAR 00DB
ENCODING 219
SWIDTH 612 0
DWIDTH 17 0
BBX 13 26 2 0
BITMAP
0700
0F80
1DC0
38F0
0000
0000
E078
E078
E078
E078
E078
E078
E078
E078
E078
E078
E078
E078
E078
E078
E078
F078
F0F0
7FF0
3FE0
1FC0
ENDCHAR
STARTCHAR 00DC
ENCODING 220
SWIDTH 612 0
DWIDTH 17 0
BBX 13 25 2 0
BITMAP
38E0
38F0
3860
0000
0000
E078
E078
E078
E078
E078
E078
E078
E078
E078
E078
E078
E078
E078
E078
E078
F078
F0F0
7FF0
3FE0
1FC0
ENDCHAR
STARTCHAR 00DD
ENCODING 221
SWIDTH 612 0
DWIDTH 17 0
BBX 16 25 1 0
BITMAP
00F8
00E0
01C0
0380
0000
F01F
F01E
781C
783C
3838
3C78
1C70
1EF0
0EE0
0FE0
07C0
07C0
0380
0380
0380
0380
0380
0380
0380
0380
ENDCHAR
STARTCHAR 00DE
ENCODING 222
SWIDTH 612 0
DWIDTH 17 0
BBX 14 20 2 0
BITMAP
F000
F000
F000
F000
FFC0
FFF0
FFF8
F078
F03C
F03C
F03C
F03C
F078
FFF8
FFF0
FFC0
F000
F000
F000
F000
ENDCHAR
STARTCHAR 00DF
ENCODING 223
SWIDTH 612 0
DWIDTH 17 0
BBX 14 21 2 0
BITMAP
1FC0
3FE0
7FE0
78F0
F0F0
F0F0
F0E0
F1E0
F1C0
F1C0
F1C0
F1E0
F0F0
F0F8
F07C
F03C
F03C
F03C
F7FC
F7F8
F7F0
ENDCHAR
STARTCHAR 00E0
ENCODING 224
SWIDTH 612 0
DWIDTH 17 0
BBX 13 20 2 0
BITMAP
3C00
1E00
0E00
0700
0000
1F80
7FE0
7FF0
F0F0
F070
0070
1FF0
7FF0
F870
E070
E070
E0F0
FFF0
7FF8
3F78
ENDCHAR
STARTCHAR 00E1
ENCODING 225
SWIDTH 612 0
DWIDTH 17 0
BBX 13 20 2 0
BITMAP
03E0
0380
0700
0E00
0000
1F80
7FE0
7FF0
F0F0
F070
0070
1FF0
7FF0
F870
E070
E070
E0F0
FFF0
7FF8
3F78
ENDCHAR
STARTCHAR 00E2
ENCODING 226
SWIDTH 612 0
DWIDTH 17 0
BBX 13 21 2 0
BITMAP
0E00
1F00
3B80
71E0
0000
0000
1F80
7FE0
7FF0
F0F0
F070
0070
1FF0
7FF0
F870
E070
E070
E0F0
FFF0
7FF8
3F78
ENDCHAR
STARTCHAR 00E3
ENCODING 227
SWIDTH 612 0
DWIDTH 17 0
BBX 13 21 2 0
BITMAP
1C30
3FE0
3FE0
3080
0000
0000
1F80
7FE0
7FF0
F0F0
F070
0070
1FF0
7FF0
F870
E070
E070
E0F0
FFF0
7FF8
3F78
ENDCHAR
STARTCHAR 00E4
ENCODING 228
SWIDTH 612 0
DWIDTH 17 0
BBX 13 20 2 0
BITMAP
38E0
38F0
3860
0000
0000
1F80
7FE0
7FF0
F0F0
F070
0070
1FF0
7FF0
F870
E070
E070
E0F0
FFF0
7FF8
3F78
ENDCHAR
STARTCHAR 00E5
ENCODING 229
SWIDTH 612 0
DWIDTH 17 0
BBX 13 22 2 0
BITMAP
0700
0F80
0880
0880
0F80
0200
0000
1F80
7FE0
7FF0
F0F0
F070
0070
1FF0
7FF0
F870
E070
E070
E0F0
FFF0
7FF8
3F78
ENDCHAR
STARTCHAR 00E6
ENCODING 230
SWIDTH 612 0
DWIDTH 17 0
BBX 15 15 1 0
BITMAP
3EF8
7FFC
FFFE
E38E
038E
038E
1FFE
7FFE
FFFE
F380
E380
E380
F7FC
FFFE
7CFC
ENDCHAR
STARTCHAR 00E7
ENCODING 231
SWIDTH 612 0
DWIDTH 17 0
BBX 13 21 2 -6
BITMAP
0F80
3FE0
7FF0
78F0
F078
E078
E000
E000
E000
E000
F078
F078
7FF0
3FE0
1FC0
0700
0780
01C0
01C0
07C0
0780
ENDCHAR
STARTCHAR 00E8
ENCODING 232
SWIDTH 612 0
DWIDTH 17 0
BBX 13 20 2 0
BITMAP
3C00
1E00
0E00
0700
0000
0FC0
3FE0
7FF0
7878
F078
E038
FFF8
FFF8
FFF8
E000
F000
F830
7FF8
3FF0
0FE0
ENDCHAR
STARTCHAR 00E9
ENCODING 233
SWIDTH 612 0
DWIDTH 17 0
BBX 13 20 2 0
BITMAP
03E0
0380
0700
0E00
0000
0FC0
3FE0
7FF0
7878
F078
E038
FFF8
FFF8
FFF8
E000
F000
F830
7FF8
3FF0
0FE0
ENDCHAR
STARTCHAR 00EA
ENCODING 234
SWIDTH 612 0
DWIDTH 17 0
BBX 13 21 2 0
BITMAP
0E00
1F00
3B80
71E0
0000
0000
0FC0
3FE0
7FF0
7878
F078
E038
FFF8
FFF8
FFF8
E000
F000
F830
7FF8
3FF0
0FE0
ENDCHAR
STARTCHAR 00EB
ENCODING 235
SWIDTH 612 0
DWIDTH 17 0
BBX 13 20 2 0
BITMAP
38E0
38F0
3860
0000
0000
0FC0
3FE0
7FF0
7878
F078
E038
FFF8
FFF8
FFF8
E000
F000
F830
7FF8
3FF0
0FE0
ENDCHAR
STARTCHAR 00EC
ENCODING 236
SWIDTH 612 0
DWIDTH 17 0
BBX 12 20 3 0
BITMAP
3C00
1E00
0E00
0700
0000
FF00
FF00
FF00
0F00
0F00
0F00
0F00
0F00
0F00
0F00
0F00
0F00
FFF0
FFF0
FFF0
ENDCHAR
STARTCHAR 00ED
ENCODING 237
SWIDTH 612 0
DWIDTH 17 0
BBX 12 20 3 0
BITMAP
03E0
0380
0700
0E00
0000
FF00
FF00
FF00
0F00
0F00
0F00
0F00
0F00
0F00
0F00
0F00
0F00
FFF0
FFF0
FFF0
ENDCHAR
STARTCHAR 00EE
ENCODING 238
SWIDTH 612 0
DWIDTH 17 0
BBX 12 21 3 0
BITMAP
0E00
1F00
3B80
71E0
0000
0000
FF00
FF00
FF00
0F00
0F00
0F00
0F00
0F00
0F00
0F00
0F00
0F00
FFF0
FFF0
FFF0
ENDCHAR
STARTCHAR 00EF
ENCODING 239
SWIDTH 612 0
DWIDTH 17 0
BBX 12 20 3 0
BITMAP
71C0
71E0
70C0
0000
0000
FF00
FF00
FF00
0F00
0F00
0F00
0F00
0F00
0F00
0F00
0F00
0F00
FFF0
FFF0
FFF0
ENDCHAR
STARTCHAR 00F0
ENCODING 240
SWIDTH 612 0
DWIDTH 17 0
BBX 14 21 1 0
BITMAP
0200
0798
07FC
03E0
03F0
0FF0
0C78
0078
1FBC
3FFC
7DFC
F03C
F03C
E03C
E03C
E03C
F038
F078
7FF0
3FE0
1FC0
ENDCHAR
STARTCHAR 00F1
ENCODING 241
SWIDTH 612 0
DWIDTH 17 0
BBX 13 21 2 0
BITMAP
1C30
3FE0
3FE0
3080
0000
0000
E7C0
EFF0
FFF0
F078
F078
F078
F078
F078
F078
F078
F078
F078
F078
F078
F078
ENDCHAR
STARTCHAR 00F2
ENCODING 242
SWIDTH 612 0
DWIDTH 17 0
BBX 14 20 1 0
BITMAP
1E00
0F00
0700
0380
0000
07C0
1FF0
3FF8
7878
783C
703C
701C
F01C
F01C
701C
783C
783C
3FF8
1FF0
0FE0
ENDCHAR
STARTCHAR 00F3
ENCODING 243
SWIDTH 612 0
DWIDTH 17 0
BBX 14 20 1 0
BITMAP
00F8
00E0
01C0
0380
0000
07C0
1FF0
3FF8
7878
783C
703C
701C
F01C
F01C
701C
783C
783C
3FF8
1FF0
0FE0
ENDCHAR
STARTCHAR 00F4
ENCODING 244
SWIDTH 612 0
DWIDTH 17 0
BBX 14 21 1 0
BITMAP
0380
07C0
0EE0
1C78
0000
0000
07C0
1FF0
3FF8
7878
783C
703C
701C
F01C
F01C
701C
783C
783C
3FF8
1FF0
0FE0
ENDCHAR
STARTCHAR 00F5
ENCODING 245
SWIDTH 612 0
DWIDTH 17 0
BBX 14 21 1 0
BITMAP
0E18
1FF0
1FF0
1840
0000
0000
07C0
1FF0
3FF8
7878
783C
703C
701C
F01C
F01C
701C
783C
783C
3FF8
1FF0
0FE0
ENDCHAR
STARTCHAR 00F6
ENCODING 246
SWIDTH 612 0
DWIDTH 17 0
BBX 14 20 1 0
BITMAP
1C70
1C78
1C30
0000
0000
07C0
1FF0
3FF8
7878
783C
703C
701C
F01C
F01C
701C
783C
783C
3FF8
1FF0
0FE0
ENDCHAR
STARTCHAR 00F7
ENCODING 247
SWIDTH 612 0
DWIDTH 17 0
BBX 14 15 1 2
BITMAP
0300
0380
0780
0380
0000
0000
FFFC
FFFC
FFFC
0000
0000
0100
0380
0780
0380
ENDCHAR
STARTCHAR 00F8
ENCODING 248
SWIDTH 612 0
DWIDTH 17 0
BBX 14 19 1 -2
BITMAP
0018
0038
07F0
1FF0
3FF8
78F8
78FC
70FC
719C
F19C
F31C
731C
7E3C
7E3C
3FF8
1FF0
1FE0
1800
3000
ENDCHAR
STARTCHAR 00F9
ENCODING 249
SWIDTH 612 0
DWIDTH 17 0
BBX 13 20 2 0
BITMAP
3C00
1E00
0E00
0700
0000
F078
F078
F078
F078
F078
F078
F078
F078
F078
F078
F078
F078
7FF8
7FB8
3F38
ENDCHAR
STARTCHAR 00FA
ENCODING 250
SWIDTH 612 0
DWIDTH 17 0
BBX 13 20 2 0
BITMAP
01F0
01C0
0380
0700
0000
F078
F078
F078
F078
F078
F078
F078
F078
F078
F078
F078
F078
7FF8
7FB8
3F38
ENDCHAR
STARTCHAR 00FB
ENCODING 251
SWIDTH 612 0
DWIDTH 17 0
BBX 13 21 2 0
BITMAP
0700
0F80
1DC0
38F0
0000
0000
F078
F078
F078
F078
F078
F078
F078
F078
F078
F078
F078
F078
7FF8
7FB8
3F38
ENDCHAR
STARTCHAR 00FC
ENCODING 252
SWIDTH 612 0
DWIDTH 17 0
BBX 13 20 2 0
BITMAP
38E0
38F0
3860
0000
0000
F078
F078
F078
F078
F078
F078
F078
F078
F078
F078
F078
F078
7FF8
7FB8
3F38
ENDCHAR
STARTCHAR 00FD
ENCODING 253
SWIDTH 612 0
DWIDTH 17 0
BBX 16 26 1 -6
BITMAP
00F8
00E0
01C0
0380
0000
F00F
F01E
781E
783C
383C
3C38
1C78
1E70
1EF0
0EF0
0FE0
07E0
07C0
03C0
0380
0780
0700
0F00
3E00
3E00
7800
ENDCHAR
STARTCHAR 00FE
ENCODING 254
SWIDTH 612 0
DWIDTH 17 0
BBX 13 27 2 -6
BITMAP
F000
F000
F000
F000
F000
F000
F7C0
FFE0
FFF0
F0F0
F078
F078
F038
F038
F038
F078
F078
F078
FFF0
FFE0
F7C0
F000
F000
F000
F000
F000
F000
ENDCHAR
STARTCHAR 00FF
ENCODING 255
SWIDTH 612 0
DWIDTH 17 0
BBX 16 26 1 -6
BITMAP
1C70
1C78
1C30
0000
0000
F00F
F01E
781E
783C
383C
3C38
1C78
1E70
1EF0
0EF0
0FE0
07E0
07C0
03C0
0380
0780
0700
0F00
3E00
3E00
7800
ENDCHAR
STARTCHAR 0100
ENCODING 256
SWIDTH 612 0
DWIDTH 17 0
BBX 16 24 1 0
BITMAP
1FF8
1FF8
0000
0000
0380
03C0
07C0
07C0
07E0
0EE0
0EE0
0EF0
1E70
1C70
1C78
3C78
3838
3FFC
7FFC
7FFC
701E
F01E
F01E
E00F
ENDCHAR
STARTCHAR 0101
ENCODING 257
SWIDTH 612 0
DWIDTH 17 0
BBX 13 20 2 0
BITMAP
3FF0
3FF0
0000
0000
0000
1F80
7FE0
7FF0
F0F0
F070
0070
1FF0
7FF0
F870
E070
E070
E0F0
FFF0
7FF8
3F78
ENDCHAR
STARTCHAR 0102
ENCODING 258
SWIDTH 612 0
DWIDTH 17 0
BBX 16 26 1 0
BITMAP
1C30
1C70
0FE0
07C0
0000
0000
0380
03C0
07C0
07C0
07E0
0EE0
0EE0
0EF0
1E70
1C70
1C78
3C78
3838
3FFC
7FFC
7FFC
701E
F01E
F01E
E00F
ENDCHAR
STARTCHAR 0103
ENCODING 259
SWIDTH 612 0
DWIDTH 17 0
BBX 13 21 2 0
BITMAP
3860
38E0
1FC0
0F80
0000
0000
1F80
7FE0
7FF0
F0F0
F070
0070
1FF0
7FF0
F870
E070
E070
E0F0
FFF0
7FF8
3F78
ENDCHAR
STARTCHAR 0104
ENCODING 260
SWIDTH 612 0
DWIDTH 17 0
BBX 16 26 1 -6
BITMAP
0380
03C0
07C0
07C0
07E0
0EE0
0EE0
0EF0
1E70
1C70
1C78
3C78
3838
3FFC
7FFC
7FFC
701E
F01E
F01E
E00F
001C
0038
0038
003E
003E
001E
ENDCHAR
STARTCHAR 0105
ENCODING 261
SWIDTH 612 0
DWIDTH 17 0
BBX 13 21 2 -6
BITMAP
1F80
7FE0
7FF0
F0F0
F070
0070
1FF0
7FF0
F870
E070
E070
E0F0
FFF0
7FF8
3F78
0060
00C0
01C0
01F0
00F8
0070
ENDCHAR
STARTCHAR 0106
ENCODING 262
SWIDTH 612 0
DWIDTH 17 0
BBX 15 25 1 0
BITMAP
00F8
00E0
01C0
0380
0000
0FE0
1FF0
3FF8
783C
781C
701C
F002
F000
F000
F000
F000
F000
F000
F002
701C
701C
783C
3FF8
1FF0
0FE0
ENDCHAR
STARTCHAR 0107
ENCODING 263
SWIDTH 612 0
DWIDTH 17 0
BBX 13 20 2 0
BITMAP
01F0
01C0
0380
0700
0000
0F80
3FE0
7FF0
78F0
F078
E078
E000
E000
E000
E000
F078
F078
7FF0
3FE0
1FC0
ENDCHAR
STARTCHAR 0108
ENCODING 264
SWIDTH 612 0
DWIDTH 17 0
BBX 15 26 1 0
BITMAP
0380
07C0
0EE0
1C78
0000
0000
0FE0
1FF0
3FF8
783C
781C
701C
F002
F000
F000
F000
F000
F000
F000
F002
701C
701C
783C
3FF8
1FF0
0FE0
ENDCHAR
STARTCHAR 0109
ENCODING 265
SWIDTH 612 0
DWIDTH 17 0
BBX 13 21 2 0
BITMAP
0700
0F80
1DC0
38F0
0000
0000
0F80
3FE0
7FF0
78F0
F078
E078
E000
E000
E000
E000
F078
F078
7FF0
3FE0
1FC0
ENDCHAR
STARTCHAR 010A
ENCODING 266
SWIDTH 612 0
DWIDTH 17 0
BBX 15 25 1 0
BITMAP
01C0
01C0
01C0
0000
0000
0FE0
1FF0
3FF8
783C
781C
701C
F002
F000
F000
F000
F000
F000
F000
F002
701C
701C
783C
3FF8
1FF0
0FE0
ENDCHAR
STARTCHAR 010B
ENCODING 267
SWIDTH 612 0
DWIDTH 17 0
BBX 13 21 2 0
BITMAP
0700
0700
0700
0000
0000
0000
0F80
3FE0
7FF0
78F0
F078
E078
E000
E000
E000
E000
F078
F078
7FF0
3FE0
1FC0
ENDCHAR
STARTCHAR 010C
ENCODING 268
SWIDTH 612 0
DWIDTH 17 0
BBX 15 26 1 0
BITMAP
0E3C
0770
03E0
01C0
0000
0000
0FE0
1FF0
3FF8
783C
781C
701C
F002
F000
F000
F000
F000
F000
F000
F002
701C
701C
783C
3FF8
1FF0
0FE0
ENDCHAR
STARTCHAR 010D
ENCODING 269
SWIDTH 612 0
DWIDTH 17 0
BBX 13 21 2 0
BITMAP
38F0
1DC0
0F80
0700
0000
0000
0F80
3FE0
7FF0
78F0
F078
E078
E000
E000
E000
E000
F078
F078
7FF0
3FE0
1FC0
ENDCHAR
STARTCHAR 010E
ENCODING 270
SWIDTH 612 0
DWIDTH 17 0
BBX 14 26 2 0
BITMAP
71E0
3B80
1F00
0E00
0000
0000
FF00
FFC0
FFE0
E1F0
E0F8
E078
E038
E038
E03C
E03C
E03C
E03C
E038
E038
E078
E078
E1F0
FFE0
FFC0
FF00
ENDCHAR
STARTCHAR 010F
ENCODING 271
SWIDTH 612 0
DWIDTH 17 0
BBX 19 21 1 0
BITMAP
0078E0
0078E0
0078C0
0079C0
0079C0
007980
1F7B80
3FF800
7FF800
F0F800
F07800
E07800
E07800
E07800
E07800
E07800
F07800
F07800
7FF800
7FF800
1F7800
ENDCHAR
STARTCHAR 0110
ENCODING 272
SWIDTH 612 0
DWIDTH 17 0
BBX 17 20 -1 0
BITMAP
1FE000
1FF800
1FFC00
1E3E00
1E0F00
1E0F00
1E0700
1E0780
1E0780
FFC780
FFC780
1E0780
1E0780
1E0700
1E0F00
1E0F00
1E1E00
1FFC00
1FF800
1FE000
ENDCHAR
STARTCHAR 0111
ENCODING 273
SWIDTH 612 0
DWIDTH 17 0
BBX 16 21 1 0
BITMAP
0038
0038
01FF
01FF
0038
0038
0FB8
3FF8
3FF8
7878
7838
7038
F038
F038
F038
7038
7038
7878
3FF8
3FF8
1FB8
ENDCHAR
STARTCHAR 0112
ENCODING 274
SWIDTH 612 0
DWIDTH 17 0
BBX 13 24 2 0
BITMAP
3FF0
3FF0
0000
0000
FFF8
FFF8
FFF8
F000
F000
F000
F000
F000
FFF0
FFF0
FFF0
F000
F000
F000
F000
F000
F000
FFF8
FFF8
FFF8
ENDCHAR
STARTCHAR 0113
ENCODING 275
SWIDTH 612 0
DWIDTH 17 0
BBX 13 20 2 0
BITMAP
3FF0
3FF0
0000
0000
0000
0FC0
3FE0
7FF0
7878
F078
E038
FFF8
FFF8
FFF8
E000
F000
F830
7FF8
3FF0
0FE0
ENDCHAR
STARTCHAR 0114
ENCODING 276
SWIDTH 612 0
DWIDTH 17 0
BBX 13 26 2 0
BITMAP
3860
38E0
1FC0
0F80
0000
0000
FFF8
FFF8
FFF8
F000
F000
F000
F000
F000
FFF0
FFF0
FFF0
F000
F000
F000
F000
F000
F000
FFF8
FFF8
FFF8
ENDCHAR
STARTCHAR 0115
ENCODING 277
SWIDTH 612 0
DWIDTH 17 0
BBX 13 21 2 0
BITMAP
3860
38E0
1FC0
0F80
0000
0000
0FC0
3FE0
7FF0
7878
F078
E038
FFF8
FFF8
FFF8
E000
F000
F830
7FF8
3FF0
0FE0
ENDCHAR
STARTCHAR 0116
ENCODING 278
SWIDTH 612 0
DWIDTH 17 0
BBX 13 25 2 0
BITMAP
0700
0700
0700
0000
0000
FFF8
FFF8
FFF8
F000
F000
F000
F000
F000
FFF0
FFF0
FFF0
F000
F000
F000
F000
F000
F000
FFF8
FFF8
FFF8
ENDCHAR
STARTCHAR 0117
ENCODING 279
SWIDTH 612 0
DWIDTH 17 0
BBX 13 21 2 0
BITMAP
0700
0700
0700
0000
0000
0000
0FC0
3FE0
7FF0
7878
F078
E038
FFF8
FFF8
FFF8
E000
F000
F830
7FF8
3FF0
0FE0
ENDCHAR
STARTCHAR 0118
ENCODING 280
SWIDTH 612 0
DWIDTH 17 0
BBX 13 26 2 -6
BITMAP
FFF8
FFF8
FFF8
F000
F000
F000
F000
F000
FFF0
FFF0
FFF0
F000
F000
F000
F000
F000
F000
FFF8
FFF8
FFF8
00E0
01C0
01C0
01F0
01F0
00F0
ENDCHAR
STARTCHAR 0119
ENCODING 281
SWIDTH 612 0
DWIDTH 17 0
BBX 13 21 2 -6
BITMAP
0FC0
3FE0
7FF0
7878
F078
E038
FFF8
FFF8
FFF8
E000
F000
F830
7FF8
3FF0
0FE0
0380
0300
0700
07C0
03E0
0080
ENDCHAR
STARTCHAR 011A
ENCODING 282
SWIDTH 612 0
DWIDTH 17 0
BBX 13 26 2 0
BITMAP
38F0
1DC0
0F80
0700
0000
0000
FFF8
FFF8
FFF8
F000
F000
F000
F000
F000
FFF0
FFF0
FFF0
F000
F000
F000
F000
F000
F000
FFF8
FFF8
FFF8
ENDCHAR
STARTCHAR 011B
ENCODING 283
SWIDTH 612 0
DWIDTH 17 0
BBX 13 21 2 0
BITMAP
38F0
1DC0
0F80
0700
0000
0000
0FC0
3FE0
7FF0
7878
F078
E038
FFF8
FFF8
FFF8
E000
F000
F830
7FF8
3FF0
0FE0
ENDCHAR
STARTCHAR 011C
ENCODING 284
SWIDTH 612 0
DWIDTH 17 0
BBX 14 26 1 0
BITMAP
0380
07C0
0EE0
1C78
0000
0000
0FE0
1FF0
3FF8
7C3C
781C
701C
F000
F000
F000
F000
F1FC
F1FC
F1FC
F01C
701C
781C
781C
3FFC
1FF8
0FF0
ENDCHAR
STARTCHAR 011D
ENCODING 285
SWIDTH 612 0
DWIDTH 17 0
BBX 13 27 2 -6
BITMAP
0E00
1F00
3B80
71E0
0000
0000
1F38
3FB8
7FF8
F878
F078
E078
E078
E078
E078
E078
F078
F078
7FF8
3FF8
1F78
0078
2078
70F0
FFF0
3FE0
0F00
ENDCHAR
STARTCHAR 011E
ENCODING 286
SWIDTH 612 0
DWIDTH 17 0
BBX 14 26 1 0
BITMAP
1C30
1C70
0FE0
07C0
0000
0000
0FE0
1FF0
3FF8
7C3C
781C
701C
F000
F000
F000
F000
F1FC
F1FC
F1FC
F01C
701C
781C
781C
3FFC
1FF8
0FF0
ENDCHAR
STARTCHAR 011F
ENCODING 287
SWIDTH 612 0
DWIDTH 17 0
BBX 13 27 2 -6
BITMAP
3860
38E0
1FC0
0F80
0000
0000
1F38
3FB8
7FF8
F878
F078
E078
E078
E078
E078
E078
F078
F078
7FF8
3FF8
1F78
0078
2078
70F0
FFF0
3FE0
0F00
ENDCHAR
STARTCHAR 0120
ENCODING 288
SWIDTH 612 0
DWIDTH 17 0
BBX 14 25 1 0
BITMAP
0380
0380
0380
0000
0000
0FE0
1FF0
3FF8
7C3C
781C
701C
F000
F000
F000
F000
F1FC
F1FC
F1FC
F01C
701C
781C
781C
3FFC
1FF8
0FF0
ENDCHAR
STARTCHAR 0121
ENCODING 289
SWIDTH 612 0
DWIDTH 17 0
BBX 13 27 2 -6
BITMAP
0700
0700
0700
0000
0000
0000
1F38
3FB8
7FF8
F878
F078
E078
E078
E078
E078
E078
F078
F078
7FF8
3FF8
1F78
0078
2078
70F0
FFF0
3FE0
0F00
ENDCHAR
STARTCHAR 0122
ENCODING 290
SWIDTH 612 0
DWIDTH 17 0
BBX 14 26 1 -6
BITMAP
0FE0
1FF0
3FF8
7C3C
781C
701C
F000
F000
F000
F000
F1FC
F1FC
F1FC
F01C
701C
781C
781C
3FFC
1FF8
0FF0
0000
0180
0180
0180
0380
0300
ENDCHAR
STARTCHAR 0123
ENCODING 291
SWIDTH 612 0
DWIDTH 17 0
BBX 13 29 2 -6
BITMAP
0300
0700
0700
0700
0600
0600
0000
0000
1F38
3FB8
7FF8
F878
F078
E078
E078
E078
E078
E078
F078
F078
7FF8
3FF8
1F78
0078
2078
70F0
FFF0
3FE0
0F00
ENDCHAR
STARTCHAR 0124
ENCODING 292
SWIDTH 612 0
DWIDTH 17 0
BBX 13 26 2 0
BITMAP
0E00
1F00
3B80
71E0
0000
0000
E078
E078
E078
E078
E078
E078
E078
E078
FFF8
FFF8
FFF8
E078
E078
E078
E078
E078
E078
E078
E078
E078
ENDCHAR
STARTCHAR 0125
ENCODING 293
SWIDTH 612 0
DWIDTH 17 0
BBX 16 27 -1 0
BITMAP
1C00
3E00
7700
E3C0
0000
0000
1E00
1E00
1E00
1E00
1E00
1E00
1E78
1FFE
1FFE
1E0F
1E0F
1E0F
1E07
1E07
1E07
1E07
1E07
1E07
1E07
1E07
1E07
ENDCHAR
STARTCHAR 0126
ENCODING 294
SWIDTH 612 0
DWIDTH 17 0
BBX 17 20 0 0
BITMAP
781C00
781C00
781C00
F81C00
FFFF80
FFFF80
781C00
781C00
7FFC00
7FFC00
7FFC00
781C00
781C00
781C00
781C00
781C00
781C00
781C00
781C00
781C00
ENDCHAR
STARTCHAR 0127
ENCODING 295
SWIDTH 612 0
DWIDTH 17 0
BBX 15 21 0 0
BITMAP
3C00
3C00
FF80
FF80
3C00
3C00
3CF8
3FFC
3FFE
3E1E
3C0E
3C0E
3C0E
3C0E
3C0E
3C0E
3C0E
3C0E
3C0E
3C0E
3C0E
ENDCHAR
STARTCHAR 0128
ENCODING 296
SWIDTH 612 0
DWIDTH 17 0
BBX 11 26 3 0
BITMAP
70C0
FF80
FF80
C200
0000
0000
FFE0
FFE0
FFE0
0E00
0E00
0E00
0E00
0E00
0E00
0E00
0E00
0E00
0E00
0E00
0E00
0E00
0E00
FFE0
FFE0
FFE0
ENDCHAR
STARTCHAR 0129
ENCODING 297
SWIDTH 612 0
DWIDTH 17 0
BBX 12 21 3 0
BITMAP
3860
7FC0
7FC0
6100
0000
0000
FF00
FF00
FF00
0F00
0F00
0F00
0F00
0F00
0F00
0F00
0F00
0F00
FFF0
FFF0
FFF0
ENDCHAR
STARTCHAR 012A
ENCODING 298
SWIDTH 612 0
DWIDTH 17 0
BBX 11 24 3 0
BITMAP
7FE0
7FE0
0000
0000
FFE0
FFE0
FFE0
0E00
0E00
0E00
0E00
0E00
0E00
0E00
0E00
0E00
0E00
0E00
0E00
0E00
0E00
FFE0
FFE0
FFE0
ENDCHAR
STARTCHAR 012B
ENCODING 299
SWIDTH 612 0
DWIDTH 17 0
BBX 12 20 3 0
BITMAP
3FF0
3FF0
0000
0000
0000
FF00
FF00
FF00
0F00
0F00
0F00
0F00
0F00
0F00
0F00
0F00
0F00
FFF0
FFF0
FFF0
ENDCHAR
STARTCHAR 012C
ENCODING 300
SWIDTH 612 0
DWIDTH 17 0
BBX 11 26 3 0
BITMAP
70C0
71C0
3F80
1F00
0000
0000
FFE0
FFE0
FFE0
0E00
0E00
0E00
0E00
0E00
0E00
0E00
0E00
0E00
0E00
0E00
0E00
0E00
0E00
FFE0
FFE0
FFE0
ENDCHAR
STARTCHAR 012D
ENCODING 301
SWIDTH 612 0
DWIDTH 17 0
BBX 12 21 3 0
BITMAP
3860
38E0
1FC0
0F80
0000
0000
FF00
FF00
FF00
0F00
0F00
0F00
0F00
0F00
0F00
0F00
0F00
0F00
FFF0
FFF0
FFF0
ENDCHAR
STARTCHAR 012E
ENCODING 302
SWIDTH 612 0
DWIDTH 17 0
BBX 11 26 3 -6
BITMAP
FFE0
FFE0
FFE0
0E00
0E00
0E00
0E00
0E00
0E00
0E00
0E00
0E00
0E00
0E00
0E00
0E00
0E00
FFE0
FFE0
FFE0
0E00
1C00
1800
1F00
1F00
0E00
ENDCHAR
STARTCHAR 012F
ENCODING 303
SWIDTH 612 0
DWIDTH 17 0
BBX 12 27 3 -6
BITMAP
0200
0F00
0F00
0F00
0000
0000
FF00
FF00
FF00
0F00
0F00
0F00
0F00
0F00
0F00
0F00
0F00
0F00
FFF0
FFF0
FFF0
0C00
1C00
1800
3E00
1F00
0E00
ENDCHAR
STARTCHAR 0130
ENCODING 304
SWIDTH 612 0
DWIDTH 17 0
BBX 11 25 3 0
BITMAP
0E00
0E00
0E00
0000
0000
FFE0
FFE0
FFE0
0E00
0E00
0E00
0E00
0E00
0E00
0E00
0E00
0E00
0E00
0E00
0E00
0E00
0E00
FFE0
FFE0
FFE0
ENDCHAR
STARTCHAR 0131
ENCODING 305
SWIDTH 612 0
DWIDTH 17 0
BBX 12 15 3 0
BITMAP
FF00
FF00
FF00
0F00
0F00
0F00
0F00
0F00
0F00
0F00
0F00
0F00
FFF0
FFF0
FFF0
ENDCHAR
STARTCHAR 0132
ENCODING 306
SWIDTH 612 0
DWIDTH 17 0
BBX 13 20 2 0
BITMAP
C038
C038
C038
C038
C038
C038
C038
C038
C038
C038
C038
C038
C038
C038
C038
C038
CE38
CE38
C7F0
C3E0
ENDCHAR
STARTCHAR 0133
ENCODING 307
SWIDTH 612 0
DWIDTH 17 0
BBX 14 26 1 -6
BITMAP
1C1C
1C1C
0C0C
0000
0000
FCFC
FCFC
1C1C
1C1C
1C1C
1C1C
1C1C
1C1C
1C1C
1C1C
1C1C
1C1C
1C1C
FF9C
FF9C
001C
001C
001C
0478
07F0
07E0
ENDCHAR
STARTCHAR 0134
ENCODING 308
SWIDTH 612 0
DWIDTH 17 0
BBX 17 26 1 0
BITMAP
003800
007C00
00EE00
01C780
000000
000000
003C00
003C00
003C00
003C00
003C00
003C00
003C00
003C00
003C00
003C00
003C00
003C00
003C00
003C00
F03C00
703C00
787800
7FF800
3FF000
0FC000
ENDCHAR
STARTCHAR 0135
ENCODING 309
SWIDTH 612 0
DWIDTH 17 0
BBX 12 27 3 -6
BITMAP
0700
0F80
1DC0
38F0
0000
0000
7F80
7F80
7F80
0780
0780
0780
0780
0780
0780
0780
0780
0780
0780
0780
0780
0780
0780
0F00
FF00
FE00
F800
ENDCHAR
STARTCHAR 0136
ENCODING 310
SWIDTH 612 0
DWIDTH 17 0
BBX 15 26 2 -6
BITMAP
E03E
E07C
E078
E0F0
E1E0
E3E0
E3C0
E780
EF00
FF00
FF80
FFC0
FBC0
F1E0
E1F0
E0F0
E078
E078
E03C
E03E
0000
0600
0600
0600
0E00
0C00
ENDCHAR
STARTCHAR 0137
ENCODING 311
SWIDTH 612 0
DWIDTH 17 0
BBX 14 27 2 -6
BITMAP
F000
F000
F000
F000
F000
F000
F078
F0F0
F1E0
F3C0
F780
FF00
FF00
FF80
FF80
FBC0
F1E0
F1F0
F0F0
F078
F07C
0000
0600
0600
0600
0E00
0C00
ENDCHAR
STARTCHAR 0138
ENCODING 312
SWIDTH 612 0
DWIDTH 17 0
BBX 14 15 2 0
BITMAP
F07C
F0F8
F0F0
F1E0
F3C0
F780
FF80
FF80
FFC0
FBE0
F1E0
F0F0
F0F8
F078
F07C
ENDCHAR
STARTCHAR 0139
ENCODING 313
SWIDTH 612 0
DWIDTH 17 0
BBX 13 24 2 0
BITMAP
3E00
3800
7000
E000
F000
F000
F000
F000
F000
F000
F000
F000
F000
F000
F000
F000
F000
F000
F000
F000
F000
FFF8
FFF8
FFF8
ENDCHAR
STARTCHAR 013A
ENCODING 314
SWIDTH 612 0
DWIDTH 17 0
BBX 12 26 3 0
BITMAP
03E0
0380
0700
0E00
0000
FF00
FF00
FF00
0F00
0F00
0F00
0F00
0F00
0F00
0F00
0F00
0F00
0F00
0F00
0F00
0F00
0F00
0F00
FFF0
FFF0
FFF0
ENDCHAR
STARTCHAR 013B
ENCODING 315
SWIDTH 612 0
DWIDTH 17 0
BBX 13 26 2 -6
BITMAP
F000
F000
F000
F000
F000
F000
F000
F000
F000
F000
F000
F000
F000
F000
F000
F000
F000
FFF8
FFF8
FFF8
0000
0600
0600
0600
0E00
0C00
ENDCHAR
STARTCHAR 013C
ENCODING 316
SWIDTH 612 0
DWIDTH 17 0
BBX 12 27 3 -6
BITMAP
FF00
FF00
FF00
0F00
0F00
0F00
0F00
0F00
0F00
0F00
0F00
0F00
0F00
0F00
0F00
0F00
0F00
0F00
FFF0
FFF0
FFF0
0000
0600
0600
0600
0E00
0C00
ENDCHAR
STARTCHAR 013D
ENCODING 317
SWIDTH 612 0
DWIDTH 17 0
BBX 13 20 2 0
BITMAP
F070
F070
F060
F0E0
F0E0
F0C0
F1C0
F000
F000
F000
F000
F000
F000
F000
F000
F000
F000
FFF8
FFF8
FFF8
ENDCHAR
STARTCHAR 013E
ENCODING 318
SWIDTH 612 0
DWIDTH 17 0
BBX 15 21 2 0
BITMAP
FF0E
FF0E
FF0C
0F1C
0F1C
0F18
0F38
0F00
0F00
0F00
0F00
0F00
0F00
0F00
0F00
0F00
0F00
0F00
FFF0
FFF0
FFF0
ENDCHAR
STARTCHAR 013F
ENCODING 319
SWIDTH 612 0
DWIDTH 17 0
BBX 13 20 2 0
BITMAP
F000
F000
F000
F000
F000
F000
F000
F000
F1C0
F1C0
F1C0
F000
F000
F000
F000
F000
F000
FFF8
FFF8
FFF8
ENDCHAR
STARTCHAR 0140
ENCODING 320
SWIDTH 612 0
DWIDTH 17 0
BBX 13 21 2 0
BITMAP
FF00
FF00
FF00
0F00
0F00
0F00
0F00
0F00
0F38
0F38
0F38
0F00
0F00
0F00
0F00
0F00
0F00
0F00
FFF0
FFF0
FFF0
ENDCHAR
STARTCHAR 0141
ENCODING 321
SWIDTH 612 0
DWIDTH 17 0
BBX 15 20 1 0
BITMAP
3800
3800
3800
3800
3800
3800
3800
3900
3F00
FF00
F800
F800
3800
3800
3800
3800
3800
3FFE
3FFE
3FFE
ENDCHAR
STARTCHAR 0142
ENCODING 322
SWIDTH 612 0
DWIDTH 17 0
BBX 12 21 3 0
BITMAP
FF00
FF00
FF00
0F00
0F00
0F10
0F30
0FF0
0FE0
1F80
7F00
FF00
CF00
0F00
0F00
0F00
0F00
0F00
FFF0
FFF0
FFF0
ENDCHAR
STARTCHAR 0143
ENCODING 323
SWIDTH 612 0
DWIDTH 17 0
BBX 13 25 2 0
BITMAP
01F0
01C0
0380
0700
0000
F078
F078
F078
F878
F878
FC78
FC78
EE78
EE78
E778
E778
E7F8
E3F8
E3F8
E1F8
E1F8
E0F8
E0F8
E078
E078
ENDCHAR
STARTCHAR 0144
ENCODING 324
SWIDTH 612 0
DWIDTH 17 0
BBX 13 20 2 0
BITMAP
03E0
0380
0700
0E00
0000
E7C0
EFF0
FFF0
F078
F078
F078
F078
F078
F078
F078
F078
F078
F078
F078
F078
ENDCHAR
STARTCHAR 0145
ENCODING 325
SWIDTH 612 0
DWIDTH 17 0
BBX 13 26 2 -6
BITMAP
F078
F078
F078
F878
F878
FC78
FC78
EE78
EE78
E778
E778
E7F8
E3F8
E3F8
E1F8
E1F8
E0F8
E0F8
E078
E078
0000
0600
0600
0600
0E00
0C00
ENDCHAR
STARTCHAR 0146
ENCODING 326
SWIDTH 612 0
DWIDTH 17 0
BBX 13 21 2 -6
BITMAP
E7C0
EFF0
FFF0
F078
F078
F078
F078
F078
F078
F078
F078
F078
F078
F078
F078
0000
0600
0600
0600
0E00
0C00
ENDCHAR
STARTCHAR 0147
ENCODING 327
SWIDTH 612 0
DWIDTH 17 0
BBX 13 26 2 0
BITMAP
38F0
1DC0
0F80
0700
0000
0000
F078
F078
F078
F878
F878
FC78
FC78
EE78
EE78
E778
E778
E7F8
E3F8
E3F8
E1F8
E1F8
E0F8
E0F8
E078
E078
ENDCHAR
STARTCHAR 0148
ENCODING 328
SWIDTH 612 0
DWIDTH 17 0
BBX 13 21 2 0
BITMAP
38F0
1DC0
0F80
0700
0000
0000
E7C0
EFF0
FFF0
F078
F078
F078
F078
F078
F078
F078
F078
F078
F078
F078
F078
ENDCHAR
STARTCHAR 0149
ENCODING 329
SWIDTH 612 0
DWIDTH 17 0
BBX 17 21 -2 0
BITMAP
380000
380000
300000
700000
700000
600000
EE7C00
0EFF00
0FFF00
0F0780
0F0780
0F0780
0F0780
0F0780
0F0780
0F0780
0F0780
0F0780
0F0780
0F0780
0F0780
ENDCHAR
STARTCHAR 014A
ENCODING 330
SWIDTH 612 0
DWIDTH 17 0
BBX 13 26 2 -6
BITMAP
F078
F078
F878
F878
FC78
FC78
FE78
FE78
FE78
F778
F778
F7F8
F3F8
F3F8
F1F8
F1F8
F0F8
F0F8
F078
F078
0078
0078
0078
03F0
03F0
03C0
ENDCHAR
STARTCHAR 014B
ENCODING 331
SWIDTH 612 0
DWIDTH 17 0
BBX 13 21 2 -6
BITMAP
E7C0
FFE0
FFF0
F0F0
F078
F078
F078
F078
F078
F078
F078
F078
F078
F078
F078
0078
0078
0070
03F0
03E0
03C0
ENDCHAR
STARTCHAR 014C
ENCODING 332
SWIDTH 612 0
DWIDTH 17 0
BBX 15 25 1 0
BITMAP
1FF8
1FF8
0000
0000
0000
0FC0
1FF0
3FF8
7878
783C
701C
F01C
F01E
F01E
F01E
F01E
F01E
F01E
F01C
701C
783C
7878
3FF8
1FF0
0FE0
ENDCHAR
STARTCHAR 014D
ENCODING 333
SWIDTH 612 0
DWIDTH 17 0
BBX 14 20 1 0
BITMAP
1FF8
1FF8
0000
0000
0000
07C0
1FF0
3FF8
7878
783C
703C
701C
F01C
F01C
701C
783C
783C
3FF8
1FF0
0FE0
ENDCHAR
STARTCHAR 014E
ENCODING 334
SWIDTH 612 0
DWIDTH 17 0
BBX 15 26 1 0
BITMAP
1C30
1C70
0FE0
07C0
0000
0000
0FC0
1FF0
3FF8
7878
783C
701C
F01C
F01E
F01E
F01E
F01E
F01E
F01E
F01C
701C
783C
7878
3FF8
1FF0
0FE0
ENDCHAR
STARTCHAR 014F
ENCODING 335
SWIDTH 612 0
DWIDTH 17 0
BBX 14 21 1 0
BITMAP
1C30
1C70
0FE0
07C0
0000
0000
07C0
1FF0
3FF8
7878
783C
703C
701C
F01C
F01C
701C
783C
783C
3FF8
1FF0
0FE0
ENDCHAR
STARTCHAR 0150
ENCODING 336
SWIDTH 612 0
DWIDTH 17 0
BBX 15 26 1 0
BITMAP
01DE
03BC
0738
0EE0
0000
0000
0FC0
1FF0
3FF8
7878
783C
701C
F01C
F01E
F01E
F01E
F01E
F01E
F01E
F01C
701C
783C
7878
3FF8
1FF0
0FE0
ENDCHAR
STARTCHAR 0151
ENCODING 337
SWIDTH 612 0
DWIDTH 17 0
BBX 15 21 1 0
BITMAP
01DE
03BC
0738
0EE0
0000
0000
07C0
1FF0
3FF8
7878
783C
703C
701C
F01C
F01C
701C
783C
783C
3FF8
1FF0
0FE0
ENDCHAR
STARTCHAR 0152
ENCODING 338
SWIDTH 612 0
DWIDTH 17 0
BBX 15 20 1 0
BITMAP
1FFE
3FFE
7FFE
71C0
E1C0
E1C0
E1C0
E1C0
E1FC
E1FC
E1FC
E1C0
E1C0
E1C0
E1C0
E1C0
F1C0
7FFE
3FFE
1FFE
ENDCHAR
STARTCHAR 0153
ENCODING 339
SWIDTH 612 0
DWIDTH 17 0
BBX 15 15 1 0
BITMAP
3E78
7FFC
FFFE
E3CE
E38E
E38E
E3FE
E3FE
E3FE
E380
E3C0
E3C0
FFFC
7FFE
3E7C
ENDCHAR
STARTCHAR 0154
ENCODING 340
SWIDTH 612 0
DWIDTH 17 0
BBX 14 25 2 0
BITMAP
03E0
0380
0700
0E00
0000
FF80
FFE0
FFF0
F078
F038
F03C
F03C
F038
F078
F1F8
FFF0
FFC0
F1C0
F1E0
F0F0
F0F0
F078
F078
F03C
F03C
ENDCHAR
STARTCHAR 0155
ENCODING 341
SWIDTH 612 0
DWIDTH 17 0
BBX 11 20 4 0
BITMAP
0F80
0E00
1C00
3800
0000
E3E0
E7E0
FFE0
FEE0
F800
F000
F000
F000
F000
F000
F000
F000
F000
F000
F000
ENDCHAR
STARTCHAR 0156
ENCODING 342
SWIDTH 612 0
DWIDTH 17 0
BBX 14 26 2 -6
BITMAP
FF80
FFE0
FFF0
F078
F038
F03C
F03C
F038
F078
F1F8
FFF0
FFC0
F1C0
F1E0
F0F0
F0F0
F078
F078
F03C
F03C
0000
0600
0600
0600
0E00
0C00
ENDCHAR
STARTCHAR 0157
ENCODING 343
SWIDTH 612 0
DWIDTH 17 0
BBX 11 21 4 -6
BITMAP
E3E0
E7E0
FFE0
FEE0
F800
F000
F000
F000
F000
F000
F000
F000
F000
F000
F000
0000
6000
6000
6000
E000
C000
ENDCHAR
STARTCHAR 0158
ENCODING 344
SWIDTH 612 0
DWIDTH 17 0
BBX 14 26 2 0
BITMAP
38F0
1DC0
0F80
0700
0000
0000
FF80
FFE0
FFF0
F078
F038
F03C
F03C
F038
F078
F1F8
FFF0
FFC0
F1C0
F1E0
F0F0
F0F0
F078
F078
F03C
F03C
ENDCHAR
STARTCHAR 0159
ENCODING 345
SWIDTH 612 0
DWIDTH 17 0
BBX 12 21 3 0
BITMAP
E3C0
7700
3E00
1C00
0000
0000
71F0
73F0
7FF0
7F70
7C00
7800
7800
7800
7800
7800
7800
7800
7800
7800
7800
ENDCHAR
STARTCHAR 015A
ENCODING 346
SWIDTH 612 0
DWIDTH 17 0
BBX 15 25 1 0
BITMAP
00F8
00E0
01C0
0380
0000
0FE0
1FF8
3FFC
783C
781E
701E
7800
7C00
3F80
1FE0
07F8
01FC
003C
001E
F01E
F01E
781E
7FFC
3FF8
0FF0
ENDCHAR
STARTCHAR 015B
ENCODING 347
SWIDTH 612 0
DWIDTH 17 0
BBX 13 20 2 0
BITMAP
03E0
0380
0700
0E00
0000
1FC0
3FF0
7FF0
F078
F078
F000
7F00
3FE0
0FF0
00F8
E038
F078
F8F8
7FF0
1FC0
ENDCHAR
STARTCHAR 015C
ENCODING 348
SWIDTH 612 0
DWIDTH 17 0
BBX 15 26 1 0
BITMAP
0380
07C0
0EE0
1C78
0000
0000
0FE0
1FF8
3FFC
783C
781E
701E
7800
7C00
3F80
1FE0
07F8
01FC
003C
001E
F01E
F01E
781E
7FFC
3FF8
0FF0
ENDCHAR
STARTCHAR 015D
ENCODING 349
SWIDTH 612 0
DWIDTH 17 0
BBX 13 21 2 0
BITMAP
0E00
1F00
3B80
71E0
0000
0000
1FC0
3FF0
7FF0
F078
F078
F000
7F00
3FE0
0FF0
00F8
E038
F078
F8F8
7FF0
1FC0
ENDCHAR
STARTCHAR 015E
ENCODING 350
SWIDTH 612 0
DWIDTH 17 0
BBX 15 26 1 -6
BITMAP
0FE0
1FF8
3FFC
783C
781E
701E
7800
7C00
3F80
1FE0
07F8
01FC
003C
001E
F01E
F01E
781E
7FFC
3FF8
0FF0
0380
03C0
00E0
00E0
03E0
03C0
ENDCHAR
STARTCHAR 015F
ENCODING 351
SWIDTH 612 0
DWIDTH 17 0
BBX 13 21 2 -6
BITMAP
1FC0
3FF0
7FF0
F078
F078
F000
7F00
3FE0
0FF0
00F8
E038
F078
F8F8
7FF0
1FC0
0E00
0F00
0380
0380
0F80
0F00
ENDCHAR
STARTCHAR 0160
ENCODING 352
SWIDTH 612 0
DWIDTH 17 0
BBX 15 26 1 0
BITMAP
1C78
0EE0
07C0
0380
0000
0000
0FE0
1FF8
3FFC
783C
781E
701E
7800
7C00
3F80
1FE0
07F8
01FC
003C
001E
F01E
F01E
781E
7FFC
3FF8
0FF0
ENDCHAR
STARTCHAR 0161
ENCODING 353
SWIDTH 612 0
DWIDTH 17 0
BBX 13 21 2 0
BITMAP
38F0
1DC0
0F80
0700
0000
0000
1FC0
3FF0
7FF0
F078
F078
F000
7F00
3FE0
0FF0
00F8
E038
F078
F8F8
7FF0
1FC0
ENDCHAR
STARTCHAR 0162
ENCODING 354
SWIDTH 612 0
DWIDTH 17 0
BBX 15 26 1 -6
BITMAP
FFFE
FFFE
FFFE
0380
0380
0380
0380
0380
0380
0380
0380
0380
0380
0380
0380
0380
0380
0380
0380
0380
0380
03C0
00E0
00E0
03E0
03C0
ENDCHAR
STARTCHAR 0163
ENCODING 355
SWIDTH 612 0
DWIDTH 17 0
BBX 13 24 2 -6
BITMAP
1E00
1E00
1E00
FFF0
FFF0
FFF0
1E00
1E00
1E00
1E00
1E00
1E00
1E00
1E00
1E00
0FF8
0FF8
07F8
0380
03C0
00E0
00E0
03E0
03C0
ENDCHAR
STARTCHAR 0164
ENCODING 356
SWIDTH 612 0
DWIDTH 17 0
BBX 15 26 1 0
BITMAP
1C78
0EE0
07C0
0380
0000
0000
FFFE
FFFE
FFFE
0380
0380
0380
0380
0380
0380
0380
0380
0380
0380
0380
0380
0380
0380
0380
0380
0380
ENDCHAR
STARTCHAR 0165
ENCODING 357
SWIDTH 612 0
DWIDTH 17 0
BBX 15 23 2 0
BITMAP
000E
000E
000C
001C
001C
1E18
1E38
1E00
FFF0
FFF0
FFF0
1E00
1E00
1E00
1E00
1E00
1E00
1E00
1E00
1E00
0FF8
0FF8
07F8
ENDCHAR
STARTCHAR 0166
ENCODING 358
SWIDTH 612 0
DWIDTH 17 0
BBX 15 20 1 0
BITMAP
FFFE
FFFE
FFFE
0380
0380
0380
0380
3FF0
3FF0
0380
0380
0380
0380
0380
0380
0380
0380
0380
0380
0380
ENDCHAR
STARTCHAR 0167
ENCODING 359
SWIDTH 612 0
DWIDTH 17 0
BBX 13 18 2 0
BITMAP
1E00
1E00
1E00
FFF0
FFF0
FFF0
1E00
1E00
7FC0
7FC0
1E00
1E00
1E00
1E00
1E00
0FF8
0FF8
07F8
ENDCHAR
STARTCHAR 0168
ENCODING 360
SWIDTH 612 0
DWIDTH 17 0
BBX 13 26 2 0
BITMAP
1C30
3FE0
3FE0
3080
0000
0000
E078
E078
E078
E078
E078
E078
E078
E078
E078
E078
E078
E078
E078
E078
E078
F078
F0F0
7FF0
3FE0
1FC0
ENDCHAR
STARTCHAR 0169
ENCODING 361
SWIDTH 612 0
DWIDTH 17 0
BBX 13 21 2 0
BITMAP
1C30
3FE0
3FE0
3080
0000
0000
F078
F078
F078
F078
F078
F078
F078
F078
F078
F078
F078
F078
7FF8
7FB8
3F38
ENDCHAR
STARTCHAR 016A
ENCODING 362
SWIDTH 612 0
DWIDTH 17 0
BBX 13 24 2 0
BITMAP
3FF0
3FF0
0000
0000
E078
E078
E078
E078
E078
E078
E078
E078
E078
E078
E078
E078
E078
E078
E078
F078
F0F0
7FF0
3FE0
1FC0
ENDCHAR
STARTCHAR 016B
ENCODING 363
SWIDTH 612 0
DWIDTH 17 0
BBX 13 20 2 0
BITMAP
3FF0
3FF0
0000
0000
0000
F078
F078
F078
F078
F078
F078
F078
F078
F078
F078
F078
F078
7FF8
7FB8
3F38
ENDCHAR
STARTCHAR 016C
ENCODING 364
SWIDTH 612 0
DWIDTH 17 0
BBX 13 26 2 0
BITMAP
3860
38E0
1FC0
0F80
0000
0000
E078
E078
E078
E078
E078
E078
E078
E078
E078
E078
E078
E078
E078
E078
E078
F078
F0F0
7FF0
3FE0
1FC0
ENDCHAR
STARTCHAR 016D
ENCODING 365
SWIDTH 612 0
DWIDTH 17 0
BBX 13 21 2 0
BITMAP
3860
38E0
1FC0
0F80
0000
0000
F078
F078
F078
F078
F078
F078
F078
F078
F078
F078
F078
F078
7FF8
7FB8
3F38
ENDCHAR
STARTCHAR 016E
ENCODING 366
SWIDTH 612 0
DWIDTH 17 0
BBX 13 27 2 0
BITMAP
0700
0F80
0880
0880
0F80
0200
0000
E078
E078
E078
E078
E078
E078
E078
E078
E078
E078
E078
E078
E078
E078
E078
F078
F0F0
7FF0
3FE0
1FC0
ENDCHAR
STARTCHAR 016F
ENCODING 367
SWIDTH 612 0
DWIDTH 17 0
BBX 13 22 2 0
BITMAP
0700
0F80
0880
0880
0F80
0200
0000
F078
F078
F078
F078
F078
F078
F078
F078
F078
F078
F078
F078
7FF8
7FB8
3F38
ENDCHAR
STARTCHAR 0170
ENCODING 368
SWIDTH 612 0
DWIDTH 17 0
BBX 14 26 2 0
BITMAP
03BC
0778
0E70
1DC0
0000
0000
E078
E078
E078
E078
E078
E078
E078
E078
E078
E078
E078
E078
E078
E078
E078
F078
F0F0
7FF0
3FE0
1FC0
ENDCHAR
STARTCHAR 0171
ENCODING 369
SWIDTH 612 0
DWIDTH 17 0
BBX 14 21 2 0
BITMAP
03BC
0778
0E70
1DC0
0000
0000
F078
F078
F078
F078
F078
F078
F078
F078
F078
F078
F078
F078
7FF8
7FB8
3F38
ENDCHAR
STARTCHAR 0172
ENCODING 370
SWIDTH 612 0
DWIDTH 17 0
BBX 13 25 2 -5
BITMAP
E078
E078
E078
E078
E078
E078
E078
E078
E078
E078
E078
E078
E078
E078
E078
F078
F0F0
7FF0
3FE0
1FC0
0380
0700
07A0
03E0
01E0
ENDCHAR
STARTCHAR 0173
ENCODING 371
SWIDTH 612 0
DWIDTH 17 0
BBX 13 21 2 -6
BITMAP
F078
F078
F078
F078
F078
F078
F078
F078
F078
F078
F078
F078
7FF8
7FB8
3F38
0070
00E0
00E0
00F8
00F8
0078
ENDCHAR
STARTCHAR 0174
ENCODING 372
SWIDTH 612 0
DWIDTH 17 0
BBX 15 26 1 0
BITMAP
0380
07C0
0EE0
1C78
0000
0000
E38E
E38E
E38E
E38E
E78E
E7CE
F7DE
F7DC
76DC
76DC
76DC
7EFC
7EFC
7CFC
7C78
3C78
3C78
3C78
3C78
3C78
ENDCHAR
STARTCHAR 0175
ENCODING 373
SWIDTH 612 0
DWIDTH 17 0
BBX 16 21 0 0
BITMAP
0380
07C0
0EE0
1C78
0000
0000
F1C7
71C7
71C7
73C7
73CE
73EE
3B6E
3B6E
3F6E
3E6C
3E7C
1E3C
1E3C
1E3C
1C3C
ENDCHAR
STARTCHAR 0176
ENCODING 374
SWIDTH 612 0
DWIDTH 17 0
BBX 16 26 1 0
BITMAP
0380
07C0
0EE0
1C78
0000
0000
F01F
F01E
781C
783C
3838
3C78
1C70
1EF0
0EE0
0FE0
07C0
07C0
0380
0380
0380
0380
0380
0380
0380
0380
ENDCHAR
STARTCHAR 0177
ENCODING 375
SWIDTH 612 0
DWIDTH 17 0
BBX 16 27 1 -6
BITMAP
0380
07C0
0EE0
1C78
0000
0000
F00F
F01E
781E
783C
383C
3C38
1C78
1E70
1EF0
0EF0
0FE0
07E0
07C0
03C0
0380
0780
0700
0F00
3E00
3E00
7800
ENDCHAR
STARTCHAR 0178
ENCODING 376
SWIDTH 612 0
DWIDTH 17 0
BBX 16 25 1 0
BITMAP
1C70
1C78
1C30
0000
0000
F01F
F01E
781C
783C
3838
3C78
1C70
1EF0
0EE0
0FE0
07C0
07C0
0380
0380
0380
0380
0380
0380
0380
0380
ENDCHAR
STARTCHAR 0179
ENCODING 377
SWIDTH 612 0
DWIDTH 17 0
BBX 15 25 1 0
BITMAP
00F8
00E0
01C0
0380
0000
FFFC
FFFC
FFFC
003C
0078
00F0
00F0
01E0
03C0
03C0
0780
0F00
0F00
1E00
3C00
3C00
7800
FFFE
FFFE
FFFE
ENDCHAR
STARTCHAR 017A
ENCODING 378
SWIDTH 612 0
DWIDTH 17 0
BBX 13 20 2 0
BITMAP
01F0
01C0
0380
0700
0000
FFF8
FFF8
FFF8
00F0
01E0
03C0
0780
0F80
1F00
1E00
3C00
7800
FFF8
FFF8
FFF8
ENDCHAR
STARTCHAR 017B
ENCODING 379
SWIDTH 612 0
DWIDTH 17 0
BBX 15 25 1 0
BITMAP
0380
0380
0380
0000
0000
FFFC
FFFC
FFFC
003C
0078
00F0
00F0
01E0
03C0
03C0
0780
0F00
0F00
1E00
3C00
3C00
7800
FFFE
FFFE
FFFE
ENDCHAR
STARTCHAR 017C
ENCODING 380
SWIDTH 612 0
DWIDTH 17 0
BBX 13 20 2 0
BITMAP
0700
0700
0700
0000
0000
FFF8
FFF8
FFF8
00F0
01E0
03C0
0780
0F80
1F00
1E00
3C00
7800
FFF8
FFF8
FFF8
ENDCHAR
STARTCHAR 017D
ENCODING 381
SWIDTH 612 0
DWIDTH 17 0
BBX 15 26 1 0
BITMAP
1C78
0EE0
07C0
0380
0000
0000
FFFC
FFFC
FFFC
003C
0078
00F0
00F0
01E0
03C0
03C0
0780
0F00
0F00
1E00
3C00
3C00
7800
FFFE
FFFE
FFFE
ENDCHAR
STARTCHAR 017E
ENCODING 382
SWIDTH 612 0
DWIDTH 17 0
BBX 13 21 2 0
BITMAP
38F0
1DC0
0F80
0700
0000
0000
FFF8
FFF8
FFF8
00F0
01E0
03C0
0780
0F80
1F00
1E00
3C00
7800
FFF8
FFF8
FFF8
ENDCHAR
STARTCHAR 017F
ENCODING 383
SWIDTH 612 0
DWIDTH 17 0
BBX 8 22 6 0
BITMAP
03
3F
7F
F8
F0
E0
E0
E0
E0
E0
E0
E0
E0
E0
E0
E0
E0
E0
E0
E0
E0
E0
ENDCHAR
STARTCHAR 0192
ENCODING 402
SWIDTH 612 0
DWIDTH 17 0
BBX 13 28 2 -6
BITMAP
0030
01F8
07F8
07C8
0700
0F00
0F00
3FE0
3FE0
3FE0
0F00
0F00
0F00
0F00
0F00
0F00
0F00
0F00
0F00
0F00
0F00
0F00
0F00
0F00
0F00
FE00
FE00
F800
ENDCHAR
STARTCHAR 01A0
ENCODING 416
SWIDTH 612 0
DWIDTH 17 0
BBX 16 21 1 0
BITMAP
0007
0FE7
1FF7
3FFE
787C
783C
701C
F01E
F01E
F01E
F01E
F01E
F01E
F01E
F01E
701C
783C
783C
3FF8
1FF0
0FE0
ENDCHAR
STARTCHAR 01A1
ENCODING 417
SWIDTH 612 0
DWIDTH 17 0
BBX 15 16 1 0
BITMAP
0006
0FCE
1FFE
3FFC
7878
783C
703C
F01C
F01C
F01C
F03C
703C
7838
3FF8
1FF0
0FE0
ENDCHAR
STARTCHAR 01AF
ENCODING 431
SWIDTH 612 0
DWIDTH 17 0
BBX 18 21 2 0
BITMAP
0001C0
E039C0
E039C0
E03B80
E03F80
E03E00
E03800
E03800
E03800
E03800
E03800
E03800
E03800
E03800
E03800
F07800
F07800
F07800
7FF000
3FE000
1FC000
ENDCHAR
STARTCHAR 01B0
ENCODING 432
SWIDTH 612 0
DWIDTH 17 0
BBX 17 16 2 0
BITMAP
000380
E07B80
E07F00
E07F00
E07E00
E07800
E07800
E07800
E07800
E07800
E07800
E07800
F0F800
FFF800
7FF800
3F7800
ENDCHAR
STARTCHAR 01F0
ENCODING 496
SWIDTH 612 0
DWIDTH 17 0
BBX 12 27 3 -6
BITMAP
38F0
1DC0
0F80
0700
0000
0000
7F80
7F80
7F80
0780
0780
0780
0780
0780
0780
0780
0780
0780
0780
0780
0780
0780
0780
0F00
FF00
FE00
F800
ENDCHAR
STARTCHAR 01FA
ENCODING 506
SWIDTH 612 0
DWIDTH 17 0
BBX 16 29 1 0
BITMAP
0078
00C0
0100
0380
06C0
0640
06C0
0380
0000
0380
03C0
07C0
07C0
07E0
0EE0
0EE0
0EF0
1E70
1C70
1C78
3C78
3838
3FFC
7FFC
7FFC
701E
F01E
F01E
E00F
ENDCHAR
STARTCHAR 01FB
ENCODING 507
SWIDTH 612 0
DWIDTH 17 0
BBX 13 24 2 0
BITMAP
01E0
0300
0400
0E00
1B00
1900
1B00
0E00
0000
1F80
7FE0
7FF0
F0F0
F070
0070
1FF0
7FF0
F870
E070
E070
E0F0
FFF0
7FF8
3F78
ENDCHAR
STARTCHAR 01FC
ENCODING 508
SWIDTH 612 0
DWIDTH 17 0
BBX 15 25 1 0
BITMAP
007C
0070
00E0
01C0
0000
03FE
03FE
03FE
07E0
07E0
07E0
0EE0
0EE0
0EFC
1CFC
1CFC
1CE0
3FE0
3FE0
7FE0
78E0
70E0
F0FE
F0FE
E0FE
ENDCHAR
STARTCHAR 01FD
ENCODING 509
SWIDTH 612 0
DWIDTH 17 0
BBX 15 20 1 0
BITMAP
00F8
00E0
01C0
0380
0000
3EF8
7FFC
FFFE
E38E
038E
038E
1FFE
7FFE
FFFE
F380
E380
E380
F7FC
FFFE
7CFC
ENDCHAR
STARTCHAR 01FE
ENCODING 510
SWIDTH 612 0
DWIDTH 17 0
BBX 15 27 1 -1
BITMAP
00F8
00E0
01C0
0380
0000
000E
0FCC
1FF8
3FF8
7878
787C
707C
F0FC
F0DE
F19E
F39E
F31E
F71E
F61E
FE1C
7C1C
783C
787C
3FF8
7FF0
6FE0
E000
ENDCHAR
STARTCHAR 01FF
ENCODING 511
SWIDTH 612 0
DWIDTH 17 0
BBX 14 22 1 -2
BITMAP
01F0
01C0
0380
0718
0038
07F0
1FF0
3FF8
78F8
78FC
70FC
719C
F19C
F31C
731C
7E3C
7E3C
3FF8
1FF0
1FE0
1800
3000
ENDCHAR
STARTCHAR 0218
ENCODING 536
SWIDTH 612 0
DWIDTH 17 0
BBX 15 26 1 -6
BITMAP
0FE0
1FF8
3FFC
783C
781E
701E
7800
7C00
3F80
1FE0
07F8
01FC
003C
001E
F01E
F01E
781E
7FFC
3FF8
0FF0
0000
0180
0180
0180
0380
0300
ENDCHAR
STARTCHAR 0219
ENCODING 537
SWIDTH 612 0
DWIDTH 17 0
BBX 13 21 2 -6
BITMAP
1FC0
3FF0
7FF0
F078
F078
F000
7F00
3FE0
0FF0
00F8
E038
F078
F8F8
7FF0
1FC0
0000
0600
0600
0600
0E00
0C00
ENDCHAR
STARTCHAR 021A
ENCODING 538
SWIDTH 612 0
DWIDTH 17 0
BBX 15 26 1 -6
BITMAP
FFFE
FFFE
FFFE
0380
0380
0380
0380
0380
0380
0380
0380
0380
0380
0380
0380
0380
0380
0380
0380
0380
0000
0300
0300
0300
0700
0600
ENDCHAR
STARTCHAR 021B
ENCODING 539
SWIDTH 612 0
DWIDTH 17 0
BBX 13 24 2 -6
BITMAP
1E00
1E00
1E00
FFF0
FFF0
FFF0
1E00
1E00
1E00
1E00
1E00
1E00
1E00
1E00
1E00
0FF8
0FF8
07F8
0000
0300
0300
0300
0700
0600
ENDCHAR
STARTCHAR 0237
ENCODING 567
SWIDTH 612 0
DWIDTH 17 0
BBX 9 21 3 -6
BITMAP
7F80
7F80
7F80
0780
0780
0780
0780
0780
0780
0780
0780
0780
0780
0780
0780
0780
0780
0F00
FF00
FE00
F800
ENDCHAR
STARTCHAR 0259
ENCODING 601
SWIDTH 612 0
DWIDTH 17 0
BBX 14 15 2 0
BITMAP
1F80
7FE0
7FF0
40F8
0078
0038
0038
FFFC
FFF8
F038
F078
7078
7FF0
3FE0
1FC0
ENDCHAR
STARTCHAR 02BC
ENCODING 700
SWIDTH 612 0
DWIDTH 17 0
BBX 5 7 6 14
BITMAP
38
38
30
70
70
60
E0
ENDCHAR
STARTCHAR 02C6
ENCODING 710
SWIDTH 612 0
DWIDTH 17 0
BBX 10 4 2 17
BITMAP
1C00
3E00
7700
E3C0
ENDCHAR
STARTCHAR 02C7
ENCODING 711
SWIDTH 612 0
DWIDTH 17 0
BBX 10 4 4 17
BITMAP
E3C0
7700
3E00
1C00
ENDCHAR
STARTCHAR 02C9
ENCODING 713
SWIDTH 612 0
DWIDTH 17 0
BBX 10 2 4 18
BITMAP
FFC0
FFC0
ENDCHAR
STARTCHAR 02D8
ENCODING 728
SWIDTH 612 0
DWIDTH 17 0
BBX 9 4 4 16
BITMAP
E180
E380
7F00
3E00
ENDCHAR
STARTCHAR 02D9
ENCODING 729
SWIDTH 612 0
DWIDTH 17 0
BBX 3 3 7 17
BITMAP
E0
E0
E0
ENDCHAR
STARTCHAR 02DA
ENCODING 730
SWIDTH 612 0
DWIDTH 17 0
BBX 5 6 6 14
BITMAP
70
F8
88
88
F8
20
ENDCHAR
STARTCHAR 02DB
ENCODING 731
SWIDTH 612 0
DWIDTH 17 0
BBX 6 7 5 -6
BITMAP
10
78
60
E0
F8
7C
38
ENDCHAR
STARTCHAR 02DC
ENCODING 732
SWIDTH 612 0
DWIDTH 17 0
BBX 10 4 2 17
BITMAP
70C0
FF80
FF80
C200
ENDCHAR
STARTCHAR 02DD
ENCODING 733
SWIDTH 612 0
DWIDTH 17 0
BBX 11 4 3 17
BITMAP
1DE0
3BC0
7380
EE00
ENDCHAR
STARTCHAR 02F3
ENCODING 755
SWIDTH 612 0
DWIDTH 17 0
BBX 4 4 6 -5
BITMAP
70
D0
D0
70
ENDCHAR
STARTCHAR 0300
ENCODING 768
SWIDTH 612 0
DWIDTH 17 0
BBX 5 4 -12 17
BITMAP
F0
70
30
18
ENDCHAR
STARTCHAR 0301
ENCODING 769
SWIDTH 612 0
DWIDTH 17 0
BBX 5 4 -9 17
BITMAP
38
70
60
E0
ENDCHAR
STARTCHAR 0303
ENCODING 771
SWIDTH 612 0
DWIDTH 17 0
BBX 10 4 -12 17
BITMAP
70C0
FF80
FF80
C200
ENDCHAR
STARTCHAR 0309
ENCODING 777
SWIDTH 612 0
DWIDTH 17 0
BBX 5 6 -10 17
BITMAP
E0
F8
38
38
F0
E0
ENDCHAR
STARTCHAR 030F
ENCODING 783
SWIDTH 612 0
DWIDTH 17 0
BBX 11 4 -14 17
BITMAP
F780
7BC0
3DC0
0EE0
ENDCHAR
STARTCHAR 0323
ENCODING 803
SWIDTH 612 0
DWIDTH 17 0
BBX 4 4 -10 -5
BITMAP
60
F0
F0
E0
ENDCHAR
STARTCHAR 0384
ENCODING 900
SWIDTH 612 0
DWIDTH 17 0
BBX 4 6 8 17
BITMAP
70
70
E0
E0
C0
C0
ENDCHAR
STARTCHAR 0385
ENCODING 901
SWIDTH 612 0
DWIDTH 17 0
BBX 11 7 4 17
BITMAP
0700
0600
0E00
0C00
E1C0
E1E0
E1C0
ENDCHAR
STARTCHAR 0386
ENCODING 902
SWIDTH 612 0
DWIDTH 17 0
BBX 16 23 1 0
BITMAP
7000
7000
E000
E380
C3C0
C7C0
07C0
07E0
0EE0
0EE0
0EF0
1E70
1C70
1C78
3C78
3838
3FFC
7FFC
7FFC
701E
F01E
F01E
E00F
ENDCHAR
STARTCHAR 0387
ENCODING 903
SWIDTH 612 0
DWIDTH 17 0
BBX 4 4 8 8
BITMAP
40
F0
F0
E0
ENDCHAR
STARTCHAR 0388
ENCODING 904
SWIDTH 612 0
DWIDTH 17 0
BBX 17 23 -1 0
BITMAP
700000
700000
E00000
EFFF80
CFFF80
CFFF80
0F0000
0F0000
0F0000
0F0000
0F0000
0FFF00
0FFF00
0FFF00
0F0000
0F0000
0F0000
0F0000
0F0000
0F0000
0FFF80
0FFF80
0FFF80
ENDCHAR
STARTCHAR 0389
ENCODING 905
SWIDTH 612 0
DWIDTH 17 0
BBX 17 23 -1 0
BITMAP
700000
700000
E00000
EE0780
CE0780
CE0780
0E0780
0E0780
0E0780
0E0780
0E0780
0FFF80
0FFF80
0FFF80
0E0780
0E0780
0E0780
0E0780
0E0780
0E0780
0E0780
0E0780
0E0780
ENDCHAR
STARTCHAR 038A
ENCODING 906
SWIDTH 612 0
DWIDTH 17 0
BBX 15 23 -1 0
BITMAP
7000
7000
E000
EFFE
CFFE
CFFE
00E0
00E0
00E0
00E0
00E0
00E0
00E0
00E0
00E0
00E0
00E0
00E0
00E0
00E0
0FFE
0FFE
0FFE
ENDCHAR
STARTCHAR 038C
ENCODING 908
SWIDTH 612 0
DWIDTH 17 0
BBX 17 23 -1 0
BITMAP
700000
700000
E00000
E3F000
C7FC00
CFFE00
1E1E00
1E0F00
1C0700
3C0700
3C0780
3C0780
3C0780
3C0780
3C0780
3C0780
3C0700
3C0700
1E0F00
1E1E00
0FFE00
07FC00
03F800
ENDCHAR
STARTCHAR 038E
ENCODING 910
SWIDTH 612 0
DWIDTH 17 0
BBX 20 23 -2 0
BITMAP
700000
700000
E00000
EF01F0
CF01E0
C781C0
0783C0
038380
03C780
01C700
01EF00
00EE00
00FE00
007C00
007C00
003800
003800
003800
003800
003800
003800
003800
003800
ENDCHAR
STARTCHAR 038F
ENCODING 911
SWIDTH 612 0
DWIDTH 17 0
BBX 17 23 -1 0
BITMAP
700000
700000
E00000
E3F800
C7FC00
CFFE00
1F1F00
1E0F00
1C0F00
3C0780
3C0780
3C0780
3C0780
3C0780
3C0700
1C0700
1E0F00
0E0E00
0E0E00
07BC00
3FBF80
3FBF80
3FBF80
ENDCHAR
STARTCHAR 0390
ENCODING 912
SWIDTH 612 0
DWIDTH 17 0
BBX 13 23 2 0
BITMAP
0380
0300
0700
0600
70E0
70F0
70E0
0000
FF00
FF00
FF00
0700
0700
0700
0700
0700
0700
0700
0700
0700
07F0
07F8
03F0
ENDCHAR
STARTCHAR 0391
ENCODING 913
SWIDTH 612 0
DWIDTH 17 0
BBX 16 20 1 0
BITMAP
0380
03C0
07C0
07C0
07E0
0EE0
0EE0
0EF0
1E70
1C70
1C78
3C78
3838
3FFC
7FFC
7FFC
701E
F01E
F01E
E00F
ENDCHAR
STARTCHAR 0392
ENCODING 914
SWIDTH 612 0
DWIDTH 17 0
BBX 14 20 2 0
BITMAP
FF80
FFF0
FFF8
E078
E038
E038
E038
E078
FFF0
FFE0
FFF0
E078
E03C
E03C
E03C
E03C
E07C
FFF8
FFF0
FFC0
ENDCHAR
STARTCHAR 0393
ENCODING 915
SWIDTH 612 0
DWIDTH 17 0
BBX 13 20 2 0
BITMAP
FFF8
FFF8
FFF8
F000
F000
F000
F000
F000
F000
F000
F000
F000
F000
F000
F000
F000
F000
F000
F000
F000
ENDCHAR
STARTCHAR 0394
ENCODING 916
SWIDTH 612 0
DWIDTH 17 0
BBX 16 20 1 0
BITMAP
03C0
03C0
07E0
07E0
07E0
0FF0
0EF0
0E70
1E78
1E78
1C38
3C3C
3C3C
381C
781E
781E
701E
FFFE
FFFF
FFFF
ENDCHAR
STARTCHAR 0395
ENCODING 917
SWIDTH 612 0
DWIDTH 17 0
BBX 13 20 2 0
BITMAP
FFF8
FFF8
FFF8
F000
F000
F000
F000
F000
FFF0
FFF0
FFF0
F000
F000
F000
F000
F000
F000
FFF8
FFF8
FFF8
ENDCHAR
STARTCHAR 0396
ENCODING 918
SWIDTH 612 0
DWIDTH 17 0
BBX 15 20 1 0
BITMAP
FFFC
FFFC
FFFC
003C
0078
00F0
00F0
01E0
03C0
03C0
0780
0F00
0F00
1E00
3C00
3C00
7800
FFFE
FFFE
FFFE
ENDCHAR
STARTCHAR 0397
ENCODING 919
SWIDTH 612 0
DWIDTH 17 0
BBX 13 20 2 0
BITMAP
E078
E078
E078
E078
E078
E078
E078
E078
FFF8
FFF8
FFF8
E078
E078
E078
E078
E078
E078
E078
E078
E078
ENDCHAR
STARTCHAR 0398
ENCODING 920
SWIDTH 612 0
DWIDTH 17 0
BBX 15 20 1 0
BITMAP
0FE0
1FF0
3FF8
787C
783C
701C
F01E
F01E
F01E
F7DE
F7DE
F01E
F01E
F01E
701C
783C
783C
3FF8
1FF0
0FE0
ENDCHAR
STARTCHAR 0399
ENCODING 921
SWIDTH 612 0
DWIDTH 17 0
BBX 11 20 3 0
BITMAP
FFE0
FFE0
FFE0
0E00
0E00
0E00
0E00
0E00
0E00
0E00
0E00
0E00
0E00
0E00
0E00
0E00
0E00
FFE0
FFE0
FFE0
ENDCHAR
STARTCHAR 039A
ENCODING 922
SWIDTH 612 0
DWIDTH 17 0
BBX 15 20 2 0
BITMAP
E03E
E07C
E078
E0F0
E1E0
E3E0
E3C0
E780
EF00
FF00
FF80
FFC0
FBC0
F1E0
E1F0
E0F0
E078
E078
E03C
E03E
ENDCHAR
STARTCHAR 039B
ENCODING 923
SWIDTH 612 0
DWIDTH 17 0
BBX 16 20 0 0
BITMAP
03C0
03E0
03E0
03E0
07F0
0770
0770
0F70
0E78
0E38
1E38
1E3C
1C1C
3C1C
3C1E
381E
380E
780F
780F
F007
ENDCHAR
STARTCHAR 039C
ENCODING 924
SWIDTH 612 0
DWIDTH 17 0
BBX 13 20 2 0
BITMAP
F078
F8F8
F8F8
F8F8
F9F8
FDF8
FDF8
EDB8
EFB8
EFB8
E738
E738
E738
E638
E038
E038
E038
E038
E038
E038
ENDCHAR
STARTCHAR 039D
ENCODING 925
SWIDTH 612 0
DWIDTH 17 0
BBX 13 20 2 0
BITMAP
F078
F078
F078
F878
F878
FC78
FC78
EE78
EE78
E778
E778
E7F8
E3F8
E3F8
E1F8
E1F8
E0F8
E0F8
E078
E078
ENDCHAR
STARTCHAR 039E
ENCODING 926
SWIDTH 612 0
DWIDTH 17 0
BBX 13 20 2 0
BITMAP
FFF8
FFF8
FFF8
0000
0000
0000
0000
0000
7FE0
7FE0
7FE0
0000
0000
0000
0000
0000
0000
FFF8
FFF8
FFF8
ENDCHAR
STARTCHAR 039F
ENCODING 927
SWIDTH 612 0
DWIDTH 17 0
BBX 15 20 1 0
BITMAP
0FC0
1FF0
3FF8
7878
783C
701C
F01C
F01E
F01E
F01E
F01E
F01E
F01E
F01C
701C
783C
7878
3FF8
1FF0
0FE0
ENDCHAR
STARTCHAR 03A0
ENCODING 928
SWIDTH 612 0
DWIDTH 17 0
BBX 13 20 2 0
BITMAP
FFF8
FFF8
FFF8
E078
E078
E078
E078
E078
E078
E078
E078
E078
E078
E078
E078
E078
E078
E078
E078
E078
ENDCHAR
STARTCHAR 03A1
ENCODING 929
SWIDTH 612 0
DWIDTH 17 0
BBX 14 20 2 0
BITMAP
FF80
FFF0
FFF8
F078
F03C
F03C
F03C
F03C
F03C
F0F8
FFF0
FFE0
FE00
F000
F000
F000
F000
F000
F000
F000
ENDCHAR
STARTCHAR 03A3
ENCODING 931
SWIDTH 612 0
DWIDTH 17 0
BBX 14 20 2 0
BITMAP
FFF8
FFF8
FFF8
7800
7800
3C00
1E00
0F00
0780
07C0
0780
0700
0F00
1E00
3C00
7800
7800
FFFC
FFFC
FFFC
ENDCHAR
STARTCHAR 03A4
ENCODING 932
SWIDTH 612 0
DWIDTH 17 0
BBX 15 20 1 0
BITMAP
FFFE
FFFE
FFFE
0380
0380
0380
0380
0380
0380
0380
0380
0380
0380
0380
0380
0380
0380
0380
0380
0380
ENDCHAR
STARTCHAR 03A5
ENCODING 933
SWIDTH 612 0
DWIDTH 17 0
BBX 16 20 1 0
BITMAP
F01F
F01E
781C
783C
3838
3C78
1C70
1EF0
0EE0
0FE0
07C0
07C0
0380
0380
0380
0380
0380
0380
0380
0380
ENDCHAR
STARTCHAR 03A6
ENCODING 934
SWIDTH 612 0
DWIDTH 17 0
BBX 16 20 1 0
BITMAP
03C0
03C0
03C0
0FF0
3FFC
7FFE
7BDE
F3CF
F3CF
E3CF
E3CF
F3CF
F3CF
7BDE
7FFE
3FFC
1FF8
03C0
03C0
03C0
ENDCHAR
STARTCHAR 03A7
ENCODING 935
SWIDTH 612 0
DWIDTH 17 0
BBX 16 20 1 0
BITMAP
F01E
781E
783C
3C38
3C78
1EF0
1EF0
0FE0
07E0
07C0
07C0
0FE0
0FE0
1EF0
1E70
3C78
3C3C
783C
F81E
F01F
ENDCHAR
STARTCHAR 03A8
ENCODING 936
SWIDTH 612 0
DWIDTH 17 0
BBX 16 20 1 0
BITMAP
F3CF
F3CF
F3CF
F3CF
F3CF
F3CF
F3CF
F3CF
F3CF
F3CF
F3CE
7BDE
7FFE
3FFC
1FF0
03C0
03C0
03C0
03C0
03C0
ENDCHAR
STARTCHAR 03A9
ENCODING 937
SWIDTH 612 0
DWIDTH 17 0
BBX 15 20 1 0
BITMAP
0FE0
1FF0
3FF8
7C7C
783C
703C
F01E
F01E
F01E
F01E
F01E
F01C
701C
783C
3838
3838
1EF0
FEFE
FEFE
FEFE
ENDCHAR
STARTCHAR 03AA
ENCODING 938
SWIDTH 612 0
DWIDTH 17 0
BBX 11 25 3 0
BITMAP
E380
E3C0
E180
0000
0000
FFE0
FFE0
FFE0
0E00
0E00
0E00
0E00
0E00
0E00
0E00
0E00
0E00
0E00
0E00
0E00
0E00
0E00
FFE0
FFE0
FFE0
ENDCHAR
STARTCHAR 03AB
ENCODING 939
SWIDTH 612 0
DWIDTH 17 0
BBX 16 25 1 0
BITMAP
1C70
1C78
1C30
0000
0000
F01F
F01E
781C
783C
3838
3C78
1C70
1EF0
0EE0
0FE0
07C0
07C0
0380
0380
0380
0380
0380
0380
0380
0380
ENDCHAR
STARTCHAR 03AC
ENCODING 940
SWIDTH 612 0
DWIDTH 17 0
BBX 14 23 2 0
BITMAP
01C0
01C0
0380
0380
0300
0300
0000
0000
1E70
7FF0
7FF0
F0F0
F0F0
E0F0
E0F0
E0F0
E0F0
E0F0
E0F0
F0F0
FFFC
7FFC
3F3C
ENDCHAR
STARTCHAR 03AD
ENCODING 941
SWIDTH 612 0
DWIDTH 17 0
BBX 14 23 2 0
BITMAP
01C0
01C0
0380
0380
0300
0300
0000
0000
1FC0
7FF0
7FF8
F03C
F000
F000
7FC0
1FC0
7FC0
F000
E000
F03C
FCF8
7FF8
1FE0
ENDCHAR
STARTCHAR 03AE
ENCODING 942
SWIDTH 612 0
DWIDTH 17 0
BBX 13 29 2 -6
BITMAP
01C0
01C0
0380
0380
0300
0300
0000
0000
E7C0
EFF0
FFF0
F078
E078
E078
E078
E078
E078
E078
E078
E078
E078
E078
E078
0078
0078
0078
0078
0078
0078
ENDCHAR
STARTCHAR 03AF
ENCODING 943
SWIDTH 612 0
DWIDTH 17 0
BBX 13 23 2 0
BITMAP
01C0
01C0
0380
0380
0300
0300
0000
0000
FF00
FF00
FF00
0700
0700
0700
0700
0700
0700
0700
0700
0700
07F0
07F8
03F0
ENDCHAR
STARTCHAR 03B0
ENCODING 944
SWIDTH 612 0
DWIDTH 17 0
BBX 13 23 2 0
BITMAP
0380
0300
0700
0600
70E0
70F0
70E0
0000
E0F0
E0F0
E070
E078
E078
E078
E078
E038
E078
E078
F078
F0F0
7FF0
7FE0
1FC0
ENDCHAR
STARTCHAR 03B1
ENCODING 945
SWIDTH 612 0
DWIDTH 17 0
BBX 14 15 2 0
BITMAP
1E70
7FF0
7FF0
F0F0
F0F0
E0F0
E0F0
E0F0
E0F0
E0F0
E0F0
F0F0
FFFC
7FFC
3F3C
ENDCHAR
STARTCHAR 03B2
ENCODING 946
SWIDTH 612 0
DWIDTH 17 0
BBX 14 25 2 -5
BITMAP
0FC0
3FE0
7FF0
7878
F078
F078
F078
F070
F3F0
F3E0
F3F0
F078
F03C
F03C
F03C
F03C
F078
FFF8
FFF0
FFE0
F000
F000
F000
F000
F000
ENDCHAR
STARTCHAR 03B3
ENCODING 947
SWIDTH 612 0
DWIDTH 17 0
BBX 15 21 1 -6
BITMAP
E00E
F01E
701C
781C
783C
3838
3C78
1C70
1C70
0EE0
0EE0
0EE0
07C0
07C0
0380
0380
0380
0380
0380
0380
0380
ENDCHAR
STARTCHAR 03B4
ENCODING 948
SWIDTH 612 0
DWIDTH 17 0
BBX 15 21 1 0
BITMAP
0FF0
1FF0
1E30
3C00
3C00
1F00
1FC0
07E0
1FF8
3C78
783C
701C
F01E
F01E
F01E
F01E
701C
783C
3FF8
1FF0
0FE0
ENDCHAR
STARTCHAR 03B5
ENCODING 949
SWIDTH 612 0
DWIDTH 17 0
BBX 14 15 2 0
BITMAP
1FC0
7FF0
7FF8
F03C
F000
F000
7FC0
1FC0
7FC0
F000
E000
F03C
FCF8
7FF8
1FE0
ENDCHAR
STARTCHAR 03B6
ENCODING 950
SWIDTH 612 0
DWIDTH 17 0
BBX 14 25 1 -5
BITMAP
FFFC
FFFC
FFF8
00F0
01E0
03C0
0380
0F00
0E00
1C00
3800
7800
7000
7000
7000
7000
7800
7FC0
3FF0
07F8
0078
0038
0078
00F0
0060
ENDCHAR
STARTCHAR 03B7
ENCODING 951
SWIDTH 612 0
DWIDTH 17 0
BBX 13 21 2 -6
BITMAP
E7C0
EFF0
FFF0
F078
E078
E078
E078
E078
E078
E078
E078
E078
E078
E078
E078
0078
0078
0078
0078
0078
0078
ENDCHAR
STARTCHAR 03B8
ENCODING 952
SWIDTH 612 0
DWIDTH 17 0
BBX 13 20 2 0
BITMAP
0FC0
3FE0
3FF0
7870
7070
7078
F078
F078
F078
FFF8
FFF8
F078
F078
F078
7078
7078
7870
7FF0
3FE0
0FC0
ENDCHAR
STARTCHAR 03B9
ENCODING 953
SWIDTH 612 0
DWIDTH 17 0
BBX 13 15 2 0
BITMAP
FF00
FF00
FF00
0700
0700
0700
0700
0700
0700
0700
0700
0700
07F0
07F8
03F0
ENDCHAR
STARTCHAR 03BA
ENCODING 954
SWIDTH 612 0
DWIDTH 17 0
BBX 14 15 2 0
BITMAP
F07C
F0F8
F0F0
F1E0
F3C0
F780
FF80
FF80
FFC0
FBE0
F1E0
F0F0
F0F8
F078
F07C
ENDCHAR
STARTCHAR 03BB
ENCODING 955
SWIDTH 612 0
DWIDTH 17 0
BBX 15 21 1 0
BITMAP
7800
7C00
7E00
1E00
0F00
0F00
0700
0F80
0F80
0FC0
1FC0
1DC0
1DE0
3DE0
38E0
38F0
78F0
7078
F07E
F03E
F01E
ENDCHAR
STARTCHAR 03BC
ENCODING 956
SWIDTH 612 0
DWIDTH 17 0
BBX 13 21 2 -6
BITMAP
F038
F038
F038
F038
F038
F038
F038
F038
F038
F038
F038
F878
FFF8
FFF8
FFB8
F000
F000
F000
F000
F000
F000
ENDCHAR
STARTCHAR 03BD
ENCODING 957
SWIDTH 612 0
DWIDTH 17 0
BBX 15 15 1 0
BITMAP
F01E
701C
783C
7838
3838
3878
3C70
1C70
1CF0
0EE0
0EE0
0FC0
07C0
07C0
0380
ENDCHAR
STARTCHAR 03BE
ENCODING 958
SWIDTH 612 0
DWIDTH 17 0
BBX 13 25 2 -5
BITMAP
07F8
1FF8
3FF0
3C00
7800
3800
3C00
1FE0
0FE0
1FE0
3C00
7800
7000
F000
F000
7000
7C00
3F80
1FF0
07F8
0078
0038
0038
0070
0070
ENDCHAR
STARTCHAR 03BF
ENCODING 959
SWIDTH 612 0
DWIDTH 17 0
BBX 14 15 1 0
BITMAP
07C0
1FF0
3FF8
7878
783C
703C
701C
F01C
F01C
701C
783C
783C
3FF8
1FF0
0FE0
ENDCHAR
STARTCHAR 03C0
ENCODING 960
SWIDTH 612 0
DWIDTH 17 0
BBX 16 15 1 0
BITMAP
FFFE
FFFE
FFFE
3C78
3C78
3C78
3C78
3C78
3C78
3C78
3C78
3C78
3C3F
3C3F
3C1F
ENDCHAR
STARTCHAR 03C1
ENCODING 961
SWIDTH 612 0
DWIDTH 17 0
BBX 13 21 2 -6
BITMAP
0FC0
3FE0
7FF0
78F0
F078
F078
E038
E038
E038
E038
E078
F078
FFF0
FFF0
E7C0
E000
E000
E000
E000
E000
E000
ENDCHAR
STARTCHAR 03C2
ENCODING 962
SWIDTH 612 0
DWIDTH 17 0
BBX 14 21 1 -6
BITMAP
0FC0
1FF0
3FF8
7838
703C
F03C
F000
F000
F000
F000
7000
7C00
3F80
1FF0
07F8
0078
0038
0078
00F0
00E0
0040
ENDCHAR
STARTCHAR 03C3
ENCODING 963
SWIDTH 612 0
DWIDTH 17 0
BBX 15 15 1 0
BITMAP
07FE
1FFE
3FFE
7870
7038
F038
F03C
F03C
F03C
F03C
7038
7878
7FF8
3FF0
0FC0
ENDCHAR
STARTCHAR 03C4
ENCODING 964
SWIDTH 612 0
DWIDTH 17 0
BBX 13 15 1 0
BITMAP
FFF8
FFF8
FFF8
0780
0780
0780
0780
0780
0780
0780
0780
0780
07F8
03F8
01F8
ENDCHAR
STARTCHAR 03C5
ENCODING 965
SWIDTH 612 0
DWIDTH 17 0
BBX 13 15 2 0
BITMAP
E0F0
E0F0
E070
E078
E078
E078
E078
E038
E078
E078
F078
F0F0
7FF0
7FE0
1FC0
ENDCHAR
STARTCHAR 03C6
ENCODING 966
SWIDTH 612 0
DWIDTH 17 0
BBX 16 22 1 -7
BITMAP
10F0
39F8
7FFC
7BDE
73CE
F3CE
F3CF
F3CF
F3CE
F3CE
73DE
7BDE
3FFC
3FF8
0FF0
03C0
03C0
03C0
03C0
03C0
03C0
03C0
ENDCHAR
STARTCHAR 03C7
ENCODING 967
SWIDTH 612 0
DWIDTH 17 0
BBX 15 15 1 0
BITMAP
F81E
783C
3C78
1E78
1EF0
0FE0
07E0
07C0
07E0
0FE0
1EF0
1E78
3C78
783C
F81E
ENDCHAR
STARTCHAR 03C8
ENCODING 968
SWIDTH 612 0
DWIDTH 17 0
BBX 16 22 1 -7
BITMAP
F39E
F39E
F38E
F38E
F38F
F38F
F38F
F38F
F38F
F38E
F39E
7B9E
7FFC
3FF8
0FF0
0380
0380
0380
0380
0380
0380
0380
ENDCHAR
STARTCHAR 03C9
ENCODING 969
SWIDTH 612 0
DWIDTH 17 0
BBX 15 15 1 0
BITMAP
783C
701C
F01E
F01E
E39E
E38E
E38E
E38E
E38E
E38E
E78E
F7DE
FFFC
7EFC
3C78
ENDCHAR
STARTCHAR 03CA
ENCODING 970
SWIDTH 612 0
DWIDTH 17 0
BBX 13 20 2 0
BITMAP
38E0
38F0
3860
0000
0000
FF00
FF00
FF00
0700
0700
0700
0700
0700
0700
0700
0700
0700
07F0
07F8
03F0
ENDCHAR
STARTCHAR 03CB
ENCODING 971
SWIDTH 612 0
DWIDTH 17 0
BBX 13 20 2 0
BITMAP
71C0
71E0
70C0
0000
0000
E0F0
E0F0
E070
E078
E078
E078
E078
E038
E078
E078
F078
F0F0
7FF0
7FE0
1FC0
ENDCHAR
STARTCHAR 03CC
ENCODING 972
SWIDTH 612 0
DWIDTH 17 0
BBX 14 23 1 0
BITMAP
00E0
00E0
01C0
01C0
0180
0180
0000
0000
07C0
1FF0
3FF8
7878
783C
703C
701C
F01C
F01C
701C
783C
783C
3FF8
1FF0
0FE0
ENDCHAR
STARTCHAR 03CD
ENCODING 973
SWIDTH 612 0
DWIDTH 17 0
BBX 13 23 2 0
BITMAP
0380
0380
0700
0700
0600
0600
0000
0000
E0F0
E0F0
E070
E078
E078
E078
E078
E038
E078
E078
F078
F0F0
7FF0
7FE0
1FC0
ENDCHAR
STARTCHAR 03CE
ENCODING 974
SWIDTH 612 0
DWIDTH 17 0
BBX 15 23 1 0
BITMAP
00E0
00E0
01C0
01C0
0180
0180
0000
0000
783C
701C
F01E
F01E
E39E
E38E
E38E
E38E
E38E
E38E
E78E
F7DE
FFFC
7EFC
3C78
ENDCHAR
STARTCHAR 03D1
ENCODING 977
SWIDTH 612 0
DWIDTH 17 0
BBX 15 20 2 0
BITMAP
07E0
0FF0
0FF0
1E78
1C78
1C78
1E78
1E78
0F78
0FFE
E7FE
E1FE
E078
E078
E078
F078
7078
7FF0
3FE0
1FC0
ENDCHAR
STARTCHAR 03D2
ENCODING 978
SWIDTH 612 0
DWIDTH 17 0
BBX 16 20 1 0
BITMAP
F00F
F81F
F81F
3C3C
1C3C
1C38
1E78
0E70
0FF0
07E0
07E0
03C0
03C0
03C0
03C0
03C0
03C0
03C0
03C0
03C0
ENDCHAR
STARTCHAR 03D6
ENCODING 982
SWIDTH 612 0
DWIDTH 17 0
BBX 17 15 0 0
BITMAP
FFFF80
FFFF80
FFFF80
780F00
780F00
79CF00
71C700
71C700
71C700
71C700
71E700
73E700
7FFF00
3F7E00
1E3E00
ENDCHAR
STARTCHAR 0400
ENCODING 1024
SWIDTH 612 0
DWIDTH 17 0
BBX 13 25 2 0
BITMAP
3C00
1E00
0E00
0700
0000
FFF8
FFF8
FFF8
F000
F000
F000
F000
F000
FFF0
FFF0
FFF0
F000
F000
F000
F000
F000
F000
FFF8
FFF8
FFF8
ENDCHAR
STARTCHAR 0401
ENCODING 1025
SWIDTH 612 0
DWIDTH 17 0
BBX 13 25 2 0
BITMAP
38E0
38F0
3860
0000
0000
FFF8
FFF8
FFF8
F000
F000
F000
F000
F000
FFF0
FFF0
FFF0
F000
F000
F000
F000
F000
F000
FFF8
FFF8
FFF8
ENDCHAR
STARTCHAR 0402
ENCODING 1026
SWIDTH 612 0
DWIDTH 17 0
BBX 16 20 0 0
BITMAP
FFFE
FFFE
FFFE
0700
0700
0700
0700
0700
07E0
07FC
07FE
071E
070F
070F
070F
070F
070F
073E
073E
0738
ENDCHAR
STARTCHAR 0403
ENCODING 1027
SWIDTH 612 0
DWIDTH 17 0
BBX 13 25 2 0
BITMAP
01F0
01C0
0380
0700
0000
FFF8
FFF8
FFF8
F000
F000
F000
F000
F000
F000
F000
F000
F000
F000
F000
F000
F000
F000
F000
F000
F000
ENDCHAR
STARTCHAR 0404
ENCODING 1028
SWIDTH 612 0
DWIDTH 17 0
BBX 15 20 1 0
BITMAP
0FE0
1FF8
3FF8
783C
781C
701E
F000
F000
F000
FFE0
FFE0
F000
F000
F000
701E
781C
783C
3FF8
1FF8
0FE0
ENDCHAR
STARTCHAR 0405
ENCODING 1029
SWIDTH 612 0
DWIDTH 17 0
BBX 15 20 1 0
BITMAP
0FE0
1FF8
3FFC
783C
781E
701E
7800
7C00
3F00
1FE0
07F8
01FC
003C
001E
F01E
F01E
781E
7FFC
3FF8
0FF0
ENDCHAR
STARTCHAR 0406
ENCODING 1030
SWIDTH 612 0
DWIDTH 17 0
BBX 11 20 3 0
BITMAP
FFE0
FFE0
FFE0
0E00
0E00
0E00
0E00
0E00
0E00
0E00
0E00
0E00
0E00
0E00
0E00
0E00
0E00
FFE0
FFE0
FFE0
ENDCHAR
STARTCHAR 0407
ENCODING 1031
SWIDTH 612 0
DWIDTH 17 0
BBX 11 25 3 0
BITMAP
E380
E3C0
E180
0000
0000
FFE0
FFE0
FFE0
0E00
0E00
0E00
0E00
0E00
0E00
0E00
0E00
0E00
0E00
0E00
0E00
0E00
0E00
FFE0
FFE0
FFE0
ENDCHAR
STARTCHAR 0408
ENCODING 1032
SWIDTH 612 0
DWIDTH 17 0
BBX 14 20 1 0
BITMAP
003C
003C
003C
003C
003C
003C
003C
003C
003C
003C
003C
003C
003C
003C
F03C
703C
7878
7FF8
3FF0
0FC0
ENDCHAR
STARTCHAR 0409
ENCODING 1033
SWIDTH 612 0
DWIDTH 17 0
BBX 15 20 1 0
BITMAP
7FC0
7FC0
7FC0
79C0
79C0
79C0
79C0
79E0
79F8
79FC
79DE
79CE
79CE
71CE
71CE
71CE
71DE
F1FC
E1F8
C1F0
ENDCHAR
STARTCHAR 040A
ENCODING 1034
SWIDTH 612 0
DWIDTH 17 0
BBX 15 20 1 0
BITMAP
F380
F380
F380
F380
F380
F380
F380
F3C0
F3F8
FFFC
FFBC
F39E
F38E
F38E
F38E
F38E
F39C
F3FC
F3F8
F3F0
ENDCHAR
STARTCHAR 040B
ENCODING 1035
SWIDTH 612 0
DWIDTH 17 0
BBX 14 20 1 0
BITMAP
FFFC
FFFC
FFFC
0E00
0E00
0E00
0E00
0E00
0FE0
0FF0
0FF8
0E3C
0E3C
0E1C
0E1C
0E1C
0E1C
0E1C
0E1C
0E1C
ENDCHAR
STARTCHAR 040C
ENCODING 1036
SWIDTH 612 0
DWIDTH 17 0
BBX 15 25 2 0
BITMAP
03E0
0380
0700
0E00
0000
E03E
E07C
E078
E0F0
E1E0
E3E0
E3C0
E780
EF00
FF00
FF80
FFC0
FBC0
F1E0
E1F0
E0F0
E078
E078
E03C
E03E
ENDCHAR
STARTCHAR 040D
ENCODING 1037
SWIDTH 612 0
DWIDTH 17 0
BBX 13 24 2 0
BITMAP
3C00
1E00
0E00
0700
E078
E078
E0F8
E0F8
E1F8
E1F8
E3F8
E3F8
E778
E778
EF78
EE78
EE78
FC78
FC78
F878
F878
F078
F078
E078
ENDCHAR
STARTCHAR 040E
ENCODING 1038
SWIDTH 612 0
DWIDTH 17 0
BBX 17 26 0 0
BITMAP
0E1800
0E3800
07F000
03E000
000000
000000
F00780
780F00
780F00
3C0E00
3C1E00
1C1C00
1E3C00
0E3C00
0F3800
077800
077000
03F000
03E000
01E000
01C000
01C000
03C000
3F8000
7F0000
7E0000
ENDCHAR
STARTCHAR 040F
ENCODING 1039
SWIDTH 612 0
DWIDTH 17 0
BBX 13 25 2 -5
BITMAP
E078
E078
E078
E078
E078
E078
E078
E078
E078
E078
E078
E078
E078
E078
E078
E078
E078
FFF8
FFF8
FFF8
0700
0700
0700
0700
0700
ENDCHAR
STARTCHAR 0410
ENCODING 1040
SWIDTH 612 0
DWIDTH 17 0
BBX 16 20 1 0
BITMAP
0380
03C0
07C0
07C0
07E0
0EE0
0EE0
0EF0
1E70
1C70
1C78
3C78
3838
3FFC
7FFC
7FFC
701E
F01E
F01E
E00F
ENDCHAR
STARTCHAR 0411
ENCODING 1041
SWIDTH 612 0
DWIDTH 17 0
BBX 13 20 2 0
BITMAP
FFF8
FFF8
FFF8
E000
E000
E000
E000
E000
FFC0
FFF0
E3F0
E078
E078
E038
E038
E078
E0F8
FFF0
FFE0
FF80
ENDCHAR
STARTCHAR 0412
ENCODING 1042
SWIDTH 612 0
DWIDTH 17 0
BBX 14 20 2 0
BITMAP
FF80
FFF0
FFF8
E078
E038
E038
E038
E078
FFF0
FFE0
FFF0
E078
E03C
E03C
E03C
E03C
E07C
FFF8
FFF0
FFC0
ENDCHAR
STARTCHAR 0413
ENCODING 1043
SWIDTH 612 0
DWIDTH 17 0
BBX 13 20 2 0
BITMAP
FFF8
FFF8
FFF8
F000
F000
F000
F000
F000
F000
F000
F000
F000
F000
F000
F000
F000
F000
F000
F000
F000
ENDCHAR
STARTCHAR 0414
ENCODING 1044
SWIDTH 612 0
DWIDTH 17 0
BBX 15 25 1 -5
BITMAP
0FF8
0FF8
1FF8
1E38
1E38
1E38
1E38
1E38
1E38
1E38
1E38
1C38
1C38
1C38
3C38
3C38
7838
FFFE
FFFE
FFFE
E01E
E01E
E01C
E01C
E01C
ENDCHAR
STARTCHAR 0415
ENCODING 1045
SWIDTH 612 0
DWIDTH 17 0
BBX 13 20 2 0
BITMAP
FFF8
FFF8
FFF8
F000
F000
F000
F000
F000
FFF0
FFF0
FFF0
F000
F000
F000
F000
F000
F000
FFF8
FFF8
FFF8
ENDCHAR
STARTCHAR 0416
ENCODING 1046
SWIDTH 612 0
DWIDTH 17 0
BBX 17 20 0 0
BITMAP
F1CF00
71CF00
79CE00
79CE00
39DE00
39DE00
3DDC00
1DDC00
1DDC00
1FF800
1FFC00
1FFC00
3DDC00
3DDE00
39DE00
79CE00
79CE00
79CF00
F1CF00
F1C780
ENDCHAR
STARTCHAR 0417
ENCODING 1047
SWIDTH 612 0
DWIDTH 17 0
BBX 15 20 1 0
BITMAP
0FE0
3FF8
7FFC
783C
F01E
001E
001C
003C
07F8
07F0
07F8
007C
001E
001E
F01E
F01E
F83E
7FFC
3FF8
1FE0
ENDCHAR
STARTCHAR 0418
ENCODING 1048
SWIDTH 612 0
DWIDTH 17 0
BBX 13 20 2 0
BITMAP
E078
E078
E0F8
E0F8
E1F8
E1F8
E3F8
E3F8
E778
E778
EF78
EE78
EE78
FC78
FC78
F878
F878
F078
F078
E078
ENDCHAR
STARTCHAR 0419
ENCODING 1049
SWIDTH 612 0
DWIDTH 17 0
BBX 13 25 2 0
BITMAP
3860
38E0
1FC0
0F80
0000
E078
E078
E0F8
E0F8
E1F8
E1F8
E3F8
E3F8
E778
E778
EF78
EE78
EE78
FC78
FC78
F878
F878
F078
F078
E078
ENDCHAR
STARTCHAR 041A
ENCODING 1050
SWIDTH 612 0
DWIDTH 17 0
BBX 15 20 2 0
BITMAP
F03C
F078
F078
F0F0
F0F0
F1E0
F3C0
F3C0
F780
FF00
FF80
FF80
F3C0
F1E0
F1E0
F0F0
F0F8
F078
F03C
F03E
ENDCHAR
STARTCHAR 041B
ENCODING 1051
SWIDTH 612 0
DWIDTH 17 0
BBX 14 20 1 0
BITMAP
3FFC
3FFC
3FFC
3C3C
3C3C
3C3C
3C3C
3C3C
3C3C
3C3C
3C3C
3C3C
3C3C
3C3C
3C3C
383C
783C
F83C
F03C
E03C
ENDCHAR
STARTCHAR 041C
ENCODING 1052
SWIDTH 612 0
DWIDTH 17 0
BBX 13 20 2 0
BITMAP
F078
F8F8
F8F8
F8F8
F9F8
FDF8
FDF8
EDB8
EFB8
EFB8
E738
E738
E738
E638
E038
E038
E038
E038
E038
E038
ENDCHAR
STARTCHAR 041D
ENCODING 1053
SWIDTH 612 0
DWIDTH 17 0
BBX 13 20 2 0
BITMAP
E078
E078
E078
E078
E078
E078
E078
E078
FFF8
FFF8
FFF8
E078
E078
E078
E078
E078
E078
E078
E078
E078
ENDCHAR
STARTCHAR 041E
ENCODING 1054
SWIDTH 612 0
DWIDTH 17 0
BBX 15 20 1 0
BITMAP
0FC0
1FF0
3FF8
7878
783C
701C
F01C
F01E
F01E
F01E
F01E
F01E
F01E
F01C
701C
783C
7878
3FF8
1FF0
0FE0
ENDCHAR
STARTCHAR 041F
ENCODING 1055
SWIDTH 612 0
DWIDTH 17 0
BBX 13 20 2 0
BITMAP
FFF8
FFF8
FFF8
E078
E078
E078
E078
E078
E078
E078
E078
E078
E078
E078
E078
E078
E078
E078
E078
E078
ENDCHAR
STARTCHAR 0420
ENCODING 1056
SWIDTH 612 0
DWIDTH 17 0
BBX 14 20 2 0
BITMAP
FF80
FFF0
FFF8
F078
F03C
F03C
F03C
F03C
F03C
F0F8
FFF0
FFE0
FE00
F000
F000
F000
F000
F000
F000
F000
ENDCHAR
STARTCHAR 0421
ENCODING 1057
SWIDTH 612 0
DWIDTH 17 0
BBX 15 20 1 0
BITMAP
0FE0
1FF0
3FF8
783C
781C
701C
F002
F000
F000
F000
F000
F000
F000
F002
701C
701C
783C
3FF8
1FF0
0FE0
ENDCHAR
STARTCHAR 0422
ENCODING 1058
SWIDTH 612 0
DWIDTH 17 0
BBX 15 20 1 0
BITMAP
FFFE
FFFE
FFFE
0380
0380
0380
0380
0380
0380
0380
0380
0380
0380
0380
0380
0380
0380
0380
0380
0380
ENDCHAR
STARTCHAR 0423
ENCODING 1059
SWIDTH 612 0
DWIDTH 17 0
BBX 17 20 0 0
BITMAP
F00780
780F00
780F00
3C0E00
3C1E00
1C1C00
1E3C00
0E3C00
0F3800
077800
077000
03F000
03E000
01E000
01C000
01C000
03C000
3F8000
7F0000
7E0000
ENDCHAR
STARTCHAR 0424
ENCODING 1060
SWIDTH 612 0
DWIDTH 17 0
BBX 16 20 1 0
BITMAP
03C0
03C0
03C0
0FF0
3FFC
7FFE
7BDE
F3CF
F3CF
E3CF
E3CF
F3CF
F3CF
7BDE
7FFE
3FFC
1FF8
03C0
03C0
03C0
ENDCHAR
STARTCHAR 0425
ENCODING 1061
SWIDTH 612 0
DWIDTH 17 0
BBX 16 20 1 0
BITMAP
F01E
781E
783C
3C38
3C78
1EF0
1EF0
0FE0
07E0
07C0
07C0
0FE0
0FE0
1EF0
1E70
3C78
3C3C
783C
F81E
F01F
ENDCHAR
STARTCHAR 0426
ENCODING 1062
SWIDTH 612 0
DWIDTH 17 0
BBX 15 25 2 -5
BITMAP
E078
E078
E078
E078
E078
E078
E078
E078
E078
E078
E078
E078
E078
E078
E078
E078
E078
FFFE
FFFE
FFFE
001E
001E
001E
001E
001E
ENDCHAR
STARTCHAR 0427
ENCODING 1063
SWIDTH 612 0
DWIDTH 17 0
BBX 13 20 2 0
BITMAP
F038
F038
F038
F038
F038
F038
F038
F038
F038
7878
7FF8
3FF8
07B8
0038
0038
0038
0038
0038
0038
0038
ENDCHAR
STARTCHAR 0428
ENCODING 1064
SWIDTH 612 0
DWIDTH 17 0
BBX 15 20 1 0
BITMAP
F39E
F39E
F39E
F39E
F39E
F39E
F39E
F39E
F39E
F39E
F39E
F39E
F39E
F39E
F39E
F39E
F39E
FFFE
FFFE
FFFE
ENDCHAR
STARTCHAR 0429
ENCODING 1065
SWIDTH 612 0
DWIDTH 17 0
BBX 16 25 1 -5
BITMAP
F39E
F39E
F39E
F39E
F39E
F39E
F39E
F39E
F39E
F39E
F39E
F39E
F39E
F39E
F39E
F39E
F39E
FFFF
FFFF
FFFF
0007
0007
0007
0007
0007
ENDCHAR
STARTCHAR 042A
ENCODING 1066
SWIDTH 612 0
DWIDTH 17 0
BBX 15 20 1 0
BITMAP
FE00
FE00
FE00
1E00
1E00
1E00
1E00
1E00
1FE0
1FF8
1FFC
1E3C
1E1E
1E1E
1E1E
1E1E
1E3C
1FFC
1FF8
1FE0
ENDCHAR
STARTCHAR 042B
ENCODING 1067
SWIDTH 612 0
DWIDTH 17 0
BBX 15 20 1 0
BITMAP
F01E
F01E
F01E
F01E
F01E
F01E
F01E
F01E
FC1E
FF1E
FF9E
F3DE
F3DE
F3DE
F3DE
F3DE
F3DE
FF9E
FF1E
FE1E
ENDCHAR
STARTCHAR 042C
ENCODING 1068
SWIDTH 612 0
DWIDTH 17 0
BBX 13 20 2 0
BITMAP
E000
E000
E000
E000
E000
E000
E000
E000
FFC0
FFF0
E3F0
E078
E078
E038
E038
E078
E0F8
FFF0
FFE0
FF80
ENDCHAR
STARTCHAR 042D
ENCODING 1069
SWIDTH 612 0
DWIDTH 17 0
BBX 14 20 1 0
BITMAP
1FC0
3FE0
7FF0
F078
F038
E03C
E03C
003C
003C
07FC
07FC
07FC
003C
E03C
E03C
F038
F078
7FF0
3FF0
1FC0
ENDCHAR
STARTCHAR 042E
ENCODING 1070
SWIDTH 612 0
DWIDTH 17 0
BBX 14 20 1 0
BITMAP
E1F0
E3F8
E3FC
E71C
E71C
E71C
E71C
E71C
E71C
FF1C
FF1C
FF1C
E71C
E71C
E71C
E71C
E71C
E7FC
E3F8
E1F0
ENDCHAR
STARTCHAR 042F
ENCODING 1071
SWIDTH 612 0
DWIDTH 17 0
BBX 14 20 0 0
BITMAP
07FC
1FFC
3FFC
7C1C
781C
701C
701C
781C
781C
3FFC
1FFC
0FFC
1E1C
1E1C
3C1C
3C1C
781C
781C
F01C
F01C
ENDCHAR
STARTCHAR 0430
ENCODING 1072
SWIDTH 612 0
DWIDTH 17 0
BBX 13 15 2 0
BITMAP
1F80
7FE0
7FF0
F0F0
F070
0070
1FF0
7FF0
F870
E070
E070
E0F0
FFF0
7FF8
3F78
ENDCHAR
STARTCHAR 0431
ENCODING 1073
SWIDTH 612 0
DWIDTH 17 0
BBX 13 21 2 0
BITMAP
0070
01F0
0FE0
1FC0
3E00
7800
7000
E7C0
FFE0
FFF0
F8F8
F078
E038
E038
E038
E038
F078
F078
7FF0
3FE0
1FC0
ENDCHAR
STARTCHAR 0432
ENCODING 1074
SWIDTH 612 0
DWIDTH 17 0
BBX 13 15 2 0
BITMAP
FF80
FFE0
FFF0
F0F0
F070
F0F0
FFE0
FFC0
FFF0
F078
F078
F078
FFF8
FFF0
FFC0
ENDCHAR
STARTCHAR 0433
ENCODING 1075
SWIDTH 612 0
DWIDTH 17 0
BBX 13 15 2 0
BITMAP
FFF8
FFF8
FFF8
F000
F000
F000
F000
F000
F000
F000
F000
F000
F000
F000
F000
ENDCHAR
STARTCHAR 0434
ENCODING 1076
SWIDTH 612 0
DWIDTH 17 0
BBX 16 19 1 -4
BITMAP
1FFC
1FFC
1FFC
1E3C
1E3C
1E3C
1E3C
1E3C
1C3C
1C3C
1C3C
3C3C
FFFF
FFFF
FFFF
E00F
E00F
E00F
E00F
ENDCHAR
STARTCHAR 0435
ENCODING 1077
SWIDTH 612 0
DWIDTH 17 0
BBX 13 15 2 0
BITMAP
0FC0
3FE0
7FF0
7878
F078
E038
FFF8
FFF8
FFF8
E000
F000
F830
7FF8
3FF0
0FE0
ENDCHAR
STARTCHAR 0436
ENCODING 1078
SWIDTH 612 0
DWIDTH 17 0
BBX 16 15 0 0
BITMAP
71CF
79CE
39CE
39DE
3DDC
1DDC
1FF8
0FF8
1FFC
1DDC
3DDC
39DE
79CE
79CF
F1CF
ENDCHAR
STARTCHAR 0437
ENCODING 1079
SWIDTH 612 0
DWIDTH 17 0
BBX 13 15 2 0
BITMAP
1FC0
7FF0
FFF8
F078
0078
0078
0FF0
0FE0
0FF0
0078
0038
E078
FDF8
7FF0
3FC0
ENDCHAR
STARTCHAR 0438
ENCODING 1080
SWIDTH 612 0
DWIDTH 17 0
BBX 13 15 2 0
BITMAP
E078
E0F8
E0F8
E1F8
E1F8
E3F8
E778
E778
EE78
EE78
FC78
F878
F878
F078
F078
ENDCHAR
STARTCHAR 0439
ENCODING 1081
SWIDTH 612 0
DWIDTH 17 0
BBX 13 21 2 0
BITMAP
3860
38E0
1FC0
0F80
0000
0000
E078
E0F8
E0F8
E1F8
E1F8
E3F8
E778
E778
EE78
EE78
FC78
F878
F878
F078
F078
ENDCHAR
STARTCHAR 043A
ENCODING 1082
SWIDTH 612 0
DWIDTH 17 0
BBX 15 15 2 0
BITMAP
E03C
E078
E0F0
E1F0
E1E0
E3C0
FF80
FF80
FFC0
E3C0
E1E0
E1F0
E0F8
E078
E03E
ENDCHAR
STARTCHAR 043B
ENCODING 1083
SWIDTH 612 0
DWIDTH 17 0
BBX 14 15 1 0
BITMAP
3FFC
3FFC
3FFC
3C3C
3C3C
3C3C
3C3C
3C3C
3C3C
3C3C
3C3C
783C
F83C
F03C
E03C
ENDCHAR
STARTCHAR 043C
ENCODING 1084
SWIDTH 612 0
DWIDTH 17 0
BBX 13 15 2 0
BITMAP
F078
F0F8
F8F8
F8F8
F8F8
F9F8
F9F8
FDF8
FDB8
EDB8
EFB8
EF38
EF38
E738
E738
ENDCHAR
STARTCHAR 043D
ENCODING 1085
SWIDTH 612 0
DWIDTH 17 0
BBX 13 15 2 0
BITMAP
E078
E078
E078
E078
E078
E078
FFF8
FFF8
FFF8
E078
E078
E078
E078
E078
E078
ENDCHAR
STARTCHAR 043E
ENCODING 1086
SWIDTH 612 0
DWIDTH 17 0
BBX 14 15 1 0
BITMAP
07C0
1FF0
3FF8
7878
783C
703C
701C
F01C
F01C
701C
783C
783C
3FF8
1FF0
0FE0
ENDCHAR
STARTCHAR 043F
ENCODING 1087
SWIDTH 612 0
DWIDTH 17 0
BBX 13 15 2 0
BITMAP
FFF8
FFF8
FFF8
E078
E078
E078
E078
E078
E078
E078
E078
E078
E078
E078
E078
ENDCHAR
STARTCHAR 0440
ENCODING 1088
SWIDTH 612 0
DWIDTH 17 0
BBX 13 21 2 -6
BITMAP
E7C0
EFE0
FFF0
F0F0
F078
F078
F038
F038
F038
F078
F078
F078
FFF0
FFE0
F7C0
F000
F000
F000
F000
F000
F000
ENDCHAR
STARTCHAR 0441
ENCODING 1089
SWIDTH 612 0
DWIDTH 17 0
BBX 13 15 2 0
BITMAP
0F80
3FE0
7FF0
78F0
F078
E078
E000
E000
E000
E000
F078
F078
7FF0
3FE0
1FC0
ENDCHAR
STARTCHAR 0442
ENCODING 1090
SWIDTH 612 0
DWIDTH 17 0
BBX 15 15 1 0
BITMAP
FFFE
FFFE
FFFE
03C0
03C0
03C0
03C0
03C0
03C0
03C0
03C0
03C0
03C0
03C0
03C0
ENDCHAR
STARTCHAR 0443
ENCODING 1091
SWIDTH 612 0
DWIDTH 17 0
BBX 16 21 1 -6
BITMAP
F00F
F01E
781E
783C
383C
3C38
1C78
1E70
1EF0
0EF0
0FE0
07E0
07C0
03C0
0380
0780
0700
0F00
3E00
3E00
7800
ENDCHAR
STARTCHAR 0444
ENCODING 1092
SWIDTH 612 0
DWIDTH 17 0
BBX 15 27 1 -6
BITMAP
0380
0380
0380
0380
0380
0380
0FC0
1FF0
3FF8
7BBC
F39C
F39E
E39E
E39E
E39E
F39E
F39C
7BBC
7FF8
3FF0
0FE0
0380
0380
0380
0380
0380
0380
ENDCHAR
STARTCHAR 0445
ENCODING 1093
SWIDTH 612 0
DWIDTH 17 0
BBX 15 15 1 0
BITMAP
F81E
783C
3C78
1E78
1EF0
0FE0
07E0
07C0
07E0
0FE0
1EF0
1E78
3C78
783C
F81E
ENDCHAR
STARTCHAR 0446
ENCODING 1094
SWIDTH 612 0
DWIDTH 17 0
BBX 14 19 2 -4
BITMAP
E070
E070
E070
E070
E070
E070
E070
E070
E070
E070
E070
E070
FFFC
FFFC
FFFC
001C
001C
001C
001C
ENDCHAR
STARTCHAR 0447
ENCODING 1095
SWIDTH 612 0
DWIDTH 17 0
BBX 13 15 2 0
BITMAP
E038
E038
E038
E038
E038
E038
F038
FCF8
7FF8
3FF8
0038
0038
0038
0038
0038
ENDCHAR
STARTCHAR 0448
ENCODING 1096
SWIDTH 612 0
DWIDTH 17 0
BBX 15 15 1 0
BITMAP
F39E
F39E
F39E
F39E
F39E
F39E
F39E
F39E
F39E
F39E
F39E
F39E
FFFE
FFFE
FFFE
ENDCHAR
STARTCHAR 0449
ENCODING 1097
SWIDTH 612 0
DWIDTH 17 0
BBX 16 19 1 -4
BITMAP
F39E
F39E
F39E
F39E
F39E
F39E
F39E
F39E
F39E
F39E
F39E
F39E
FFFF
FFFF
FFFF
0007
0007
0007
0007
ENDCHAR
STARTCHAR 044A
ENCODING 1098
SWIDTH 612 0
DWIDTH 17 0
BBX 15 15 1 0
BITMAP
FE00
FE00
FE00
1E00
1E00
1E00
1FF8
1FFC
1E3E
1E1E
1E1E
1E1E
1FFC
1FFC
1FF0
ENDCHAR
STARTCHAR 044B
ENCODING 1099
SWIDTH 612 0
DWIDTH 17 0
BBX 15 15 1 0
BITMAP
F01E
F01E
F01E
F01E
F01E
F01E
FF1E
FF9E
F3DE
F3DE
F1DE
F3DE
FF9E
FF9E
FE1E
ENDCHAR
STARTCHAR 044C
ENCODING 1100
SWIDTH 612 0
DWIDTH 17 0
BBX 14 15 2 0
BITMAP
F000
F000
F000
F000
F000
FF80
FFF0
FFF8
F078
F038
F03C
F078
FFF8
FFF0
FFC0
ENDCHAR
STARTCHAR 044D
ENCODING 1101
SWIDTH 612 0
DWIDTH 17 0
BBX 13 15 2 0
BITMAP
1F80
7FE0
FFF0
F0F0
E078
0078
07F8
07F8
07F8
0078
E078
F0F0
FFF0
7FE0
1F80
ENDCHAR
STARTCHAR 044E
ENCODING 1102
SWIDTH 612 0
DWIDTH 17 0
BBX 15 15 1 0
BITMAP
F0F0
F3F8
F3FC
F79E
F71E
F70E
FF0E
FF0E
FF0E
F70E
F70E
F79E
F3FC
F3FC
F1F8
ENDCHAR
STARTCHAR 044F
ENCODING 1103
SWIDTH 612 0
DWIDTH 17 0
BBX 14 15 1 0
BITMAP
07FC
3FFC
7FFC
783C
703C
703C
783C
7FFC
3FFC
1FFC
1C3C
3C3C
783C
783C
F03C
ENDCHAR
STARTCHAR 0450
ENCODING 1104
SWIDTH 612 0
DWIDTH 17 0
BBX 13 20 2 0
BITMAP
3C00
1E00
0E00
0700
0000
0FC0
3FE0
7FF0
7878
F078
E038
FFF8
FFF8
FFF8
E000
F000
F830
7FF8
3FF0
0FE0
ENDCHAR
STARTCHAR 0451
ENCODING 1105
SWIDTH 612 0
DWIDTH 17 0
BBX 13 20 2 0
BITMAP
38E0
38F0
3860
0000
0000
0FC0
3FE0
7FF0
7878
F078
E038
FFF8
FFF8
FFF8
E000
F000
F830
7FF8
3FF0
0FE0
ENDCHAR
STARTCHAR 0452
ENCODING 1106
SWIDTH 612 0
DWIDTH 17 0
BBX 16 27 -1 -6
BITMAP
1C00
1C00
FFC0
FFC0
FFC0
1C00
1CF8
1DFE
1FFE
1E0F
1C0F
1C0F
1C0F
1C0F
1C0F
1C0F
1C0F
1C0F
1C0F
1C0F
1C0F
000F
000F
000F
007E
007E
0078
ENDCHAR
STARTCHAR 0453
ENCODING 1107
SWIDTH 612 0
DWIDTH 17 0
BBX 13 20 2 0
BITMAP
01F0
01C0
0380
0700
0000
FFF8
FFF8
FFF8
F000
F000
F000
F000
F000
F000
F000
F000
F000
F000
F000
F000
ENDCHAR
STARTCHAR 0454
ENCODING 1108
SWIDTH 612 0
DWIDTH 17 0
BBX 13 15 2 0
BITMAP
0F80
3FE0
7FF0
F0F0
F078
E078
E000
FF00
FF00
E000
F078
F070
7FF0
3FE0
1FC0
ENDCHAR
STARTCHAR 0455
ENCODING 1109
SWIDTH 612 0
DWIDTH 17 0
BBX 13 15 2 0
BITMAP
1FC0
3FF0
7FF0
F078
F078
F000
7F00
3FE0
0FF0
00F8
E038
F078
F8F8
7FF0
1FC0
ENDCHAR
STARTCHAR 0456
ENCODING 1110
SWIDTH 612 0
DWIDTH 17 0
BBX 12 21 3 0
BITMAP
0200
0F00
0F00
0F00
0000
0000
FF00
FF00
FF00
0F00
0F00
0F00
0F00
0F00
0F00
0F00
0F00
0F00
FFF0
FFF0
FFF0
ENDCHAR
STARTCHAR 0457
ENCODING 1111
SWIDTH 612 0
DWIDTH 17 0
BBX 12 20 3 0
BITMAP
71C0
71E0
70C0
0000
0000
FF00
FF00
FF00
0F00
0F00
0F00
0F00
0F00
0F00
0F00
0F00
0F00
FFF0
FFF0
FFF0
ENDCHAR
STARTCHAR 0458
ENCODING 1112
SWIDTH 612 0
DWIDTH 17 0
BBX 9 27 3 -6
BITMAP
0200
0780
0780
0780
0000
0000
7F80
7F80
7F80
0780
0780
0780
0780
0780
0780
0780
0780
0780
0780
0780
0780
0780
0780
0F00
FF00
FE00
F800
ENDCHAR
STARTCHAR 0459
ENCODING 1113
SWIDTH 612 0
DWIDTH 17 0
BBX 17 15 0 0
BITMAP
1FE000
1FE000
1FE000
1CE000
1CE000
1CF800
1CFE00
1CFF00
3CE780
3CE780
3CE780
38E780
F8FF00
F0FE00
E0FC00
ENDCHAR
STARTCHAR 045A
ENCODING 1114
SWIDTH 612 0
DWIDTH 17 0
BBX 15 15 1 0
BITMAP
F380
F380
F380
F380
F380
F3F0
FFFC
FFFC
FF9E
F38E
F38E
F39E
F3FE
F3FC
F3F0
ENDCHAR
STARTCHAR 045B
ENCODING 1115
SWIDTH 612 0
DWIDTH 17 0
BBX 15 21 0 0
BITMAP
3C00
3C00
FF80
FF80
FF80
3C00
3CF0
3FFC
3FFC
3C1E
3C1E
3C1E
3C0E
3C0E
3C0E
3C0E
3C0E
3C0E
3C0E
3C0E
3C0E
ENDCHAR
STARTCHAR 045C
ENCODING 1116
SWIDTH 612 0
DWIDTH 17 0
BBX 15 20 2 0
BITMAP
03E0
0380
0700
0E00
0000
E03C
E078
E0F0
E1F0
E1E0
E3C0
FF80
FF80
FFC0
E3C0
E1E0
E1F0
E0F8
E078
E03E
ENDCHAR
STARTCHAR 045D
ENCODING 1117
SWIDTH 612 0
DWIDTH 17 0
BBX 13 20 2 0
BITMAP
3C00
1E00
0E00
0700
0000
E078
E0F8
E0F8
E1F8
E1F8
E3F8
E778
E778
EE78
EE78
FC78
F878
F878
F078
F078
ENDCHAR
STARTCHAR 045E
ENCODING 1118
SWIDTH 612 0
DWIDTH 17 0
BBX 16 27 1 -6
BITMAP
1C30
1C70
0FE0
07C0
0000
0000
F00F
F01E
781E
783C
383C
3C38
1C78
1E70
1EF0
0EF0
0FE0
07E0
07C0
03C0
0380
0780
0700
0F00
3E00
3E00
7800
ENDCHAR
STARTCHAR 045F
ENCODING 1119
SWIDTH 612 0
DWIDTH 17 0
BBX 13 20 2 -5
BITMAP
E078
E078
E078
E078
E078
E078
E078
E078
E078
E078
E078
E078
FFF8
FFF8
FFF8
0700
0700
0700
0700
0700
ENDCHAR
STARTCHAR 0460
ENCODING 1120
SWIDTH 612 0
DWIDTH 17 0
BBX 15 20 1 0
BITMAP
E38E
E38E
E38E
E38E
E38E
E38E
E38E
E38E
E38E
E38E
E38E
E38E
E38E
E38E
E38E
E38E
F3CE
FFFE
7FFC
3EF8
ENDCHAR
STARTCHAR 0461
ENCODING 1121
SWIDTH 612 0
DWIDTH 17 0
BBX 15 15 1 0
BITMAP
E38E
E38E
E38E
E38E
E38E
E38E
E38E
E38E
E38E
E38E
E38E
E39E
FFFC
7EFC
3EF8
ENDCHAR
STARTCHAR 0462
ENCODING 1122
SWIDTH 612 0
DWIDTH 17 0
BBX 16 20 -1 0
BITMAP
1C00
1C00
1C00
FFC0
FFC0
1C00
1C00
1C00
1FF8
1FFE
1C7E
1C0F
1C0F
1C07
1C07
1C0F
1C1F
1FFE
1FFC
1FF0
ENDCHAR
STARTCHAR 0463
ENCODING 1123
SWIDTH 612 0
DWIDTH 17 0
BBX 16 21 0 0
BITMAP
1C00
1C00
1C00
1C00
FFC0
FFC0
1C00
1C00
1C00
1C00
1C00
1FC0
1FF8
1FFE
1C1E
1C0E
1C0F
1C1E
1FFE
1FFC
1FF0
ENDCHAR
STARTCHAR 0464
ENCODING 1124
SWIDTH 612 0
DWIDTH 17 0
BBX 15 20 1 0
BITMAP
E0F8
E1FC
E3FE
E39E
E78E
E70E
E700
E700
FFE0
FFE0
FFE0
E700
E700
E700
E70E
E78E
E79E
E3FC
E3FC
E0F8
ENDCHAR
STARTCHAR 0465
ENCODING 1125
SWIDTH 612 0
DWIDTH 17 0
BBX 15 15 1 0
BITMAP
F0F8
F1FC
F3FE
F39E
F78E
F780
FFE0
FFE0
FFE0
F780
F78E
F38E
F3FE
F1FC
F0F8
ENDCHAR
STARTCHAR 0466
ENCODING 1126
SWIDTH 612 0
DWIDTH 17 0
BBX 17 20 0 0
BITMAP
01E000
01E000
03E000
03F000
03F000
07F000
077800
073800
0F3800
0E3C00
1E1C00
1E1C00
1FFE00
3FFE00
3DCE00
39CF00
79CF00
79C700
71C780
F1C780
ENDCHAR
STARTCHAR 0467
ENCODING 1127
SWIDTH 612 0
DWIDTH 17 0
BBX 15 15 1 0
BITMAP
03C0
07C0
07C0
07E0
0EE0
0EF0
1E70
1C70
1C78
3FF8
3FFC
7BBC
7B9C
739E
F38E
ENDCHAR
STARTCHAR 0468
ENCODING 1128
SWIDTH 612 0
DWIDTH 17 0
BBX 16 20 1 0
BITMAP
E0E0
E0F0
E0F0
E0F0
E1F0
E1F0
E1B8
E1B8
E3B8
E398
E39C
FFFC
FFFC
FFFC
E76C
E76E
E66E
EE6E
EE6E
EE6F
ENDCHAR
STARTCHAR 0469
ENCODING 1129
SWIDTH 612 0
DWIDTH 17 0
BBX 16 15 1 0
BITMAP
E0E0
E0F0
E0F0
E1F0
E1F8
E1F8
E3B8
E398
E39C
FFFC
FFFC
E76E
E66E
EE6E
EE6F
ENDCHAR
STARTCHAR 046A
ENCODING 1130
SWIDTH 612 0
DWIDTH 17 0
BBX 15 20 1 0
BITMAP
FFFE
7FFC
7FFC
3C78
3C78
1E70
1EF0
0EE0
0FE0
1FF0
7FFC
FFFE
F39E
E38E
E38E
E38E
E38E
E38E
E38E
E38E
ENDCHAR
STARTCHAR 046B
ENCODING 1131
SWIDTH 612 0
DWIDTH 17 0
BBX 14 15 1 0
BITMAP
FFFC
7FFC
3FF8
3C70
1CF0
1EE0
0FE0
3FF8
7FFC
F3BC
F39C
F39C
F39C
F39C
F39C
ENDCHAR
STARTCHAR 046C
ENCODING 1132
SWIDTH 612 0
DWIDTH 17 0
BBX 16 20 1 0
BITMAP
E7FE
E7FE
E7FC
E39C
E39C
E3B8
E1F8
E1F8
E1F0
FFF8
FFFE
FFFE
EEEE
EEE7
EEE7
EEE7
EEE7
EEE7
EEE7
EEE7
ENDCHAR
STARTCHAR 046D
ENCODING 1133
SWIDTH 612 0
DWIDTH 17 0
BBX 16 15 1 0
BITMAP
E7FE
E7FE
E39C
E39C
E1B8
E1F8
E1F8
FFFC
FFFE
EF6E
EE66
EE67
EE67
EE67
EE66
ENDCHAR
STARTCHAR 046E
ENCODING 1134
SWIDTH 612 0
DWIDTH 17 0
BBX 13 32 2 -6
BITMAP
F1C0
3B80
1F00
0E00
0000
0000
7F00
7FC0
7FE0
01F0
00F0
0070
00F0
00F0
1FE0
1FC0
1FE0
01F0
00F0
0078
0078
0078
00F0
0FF0
7FE0
FFC0
F000
E000
F000
7800
7800
1800
ENDCHAR
STARTCHAR 046F
ENCODING 1135
SWIDTH 612 0
DWIDTH 17 0
BBX 11 27 3 -6
BITMAP
F3C0
7F80
3E00
0C00
0000
0000
7E00
7FC0
7FC0
01E0
01E0
01E0
3FC0
3F80
3FC0
01E0
00E0
00E0
03E0
7FC0
FF80
E000
E000
E000
F800
7000
3000
ENDCHAR
STARTCHAR 0470
ENCODING 1136
SWIDTH 612 0
DWIDTH 17 0
BBX 16 20 1 0
BITMAP
F3CF
F3CF
F3CF
F3CF
F3CF
F3CF
F3CF
F3CF
F3CF
F3CF
F3CE
7BDE
7FFE
3FFC
1FF0
03C0
03C0
03C0
03C0
03C0
ENDCHAR
STARTCHAR 0471
ENCODING 1137
SWIDTH 612 0
DWIDTH 17 0
BBX 16 22 1 -7
BITMAP
F39E
F39E
F38E
F38E
F38F
F38F
F38F
F38F
F38F
F38E
F39E
7B9E
7FFC
3FF8
0FF0
0380
0380
0380
0380
0380
0380
0380
ENDCHAR
STARTCHAR 0472
ENCODING 1138
SWIDTH 612 0
DWIDTH 17 0
BBX 15 20 1 0
BITMAP
0FC0
1FF0
3FF8
7878
783C
701C
F01C
F01E
F01E
FFFE
FFFE
F01E
F01E
F01C
F01C
703C
7878
3FF8
1FF0
0FE0
ENDCHAR
STARTCHAR 0473
ENCODING 1139
SWIDTH 612 0
DWIDTH 17 0
BBX 14 15 1 0
BITMAP
0FC0
1FF0
3FF8
7878
703C
703C
FFFC
FFFC
FFFC
F03C
703C
7878
3FF8
3FF0
0FE0
ENDCHAR
STARTCHAR 0474
ENCODING 1140
SWIDTH 612 0
DWIDTH 17 0
BBX 17 20 0 0
BITMAP
F00180
780780
780780
780F00
380E00
3C0E00
3C0E00
1C1C00
1E1C00
1E1C00
0E3C00
0F3800
0F3800
077800
077000
07F000
03F000
03E000
03E000
01E000
ENDCHAR
STARTCHAR 0475
ENCODING 1141
SWIDTH 612 0
DWIDTH 17 0
BBX 15 15 1 0
BITMAP
F01E
F03C
707C
7878
7870
38F0
38E0
3CE0
1DE0
1DC0
0FC0
0FC0
0F80
0780
0780
ENDCHAR
STARTCHAR 0476
ENCODING 1142
SWIDTH 612 0
DWIDTH 17 0
BBX 17 26 0 0
BITMAP
7BC000
3DE000
1EE000
077000
000000
000000
F00180
780780
780780
780F00
380E00
3C0E00
3C0E00
1C1C00
1E1C00
1E1C00
0E3C00
0F3800
0F3800
077800
077000
07F000
03F000
03E000
03E000
01E000
ENDCHAR
STARTCHAR 0477
ENCODING 1143
SWIDTH 612 0
DWIDTH 17 0
BBX 15 22 1 0
BITMAP
F780
7BC0
3DC0
0EE0
0000
0000
0000
F01E
F03C
707C
7878
7870
38F0
38E0
3CE0
1DE0
1DC0
0FC0
0FC0
0F80
0780
0780
ENDCHAR
STARTCHAR 0478
ENCODING 1144
SWIDTH 612 0
DWIDTH 17 0
BBX 16 26 1 -6
BITMAP
3C00
7E00
6600
E700
C700
C767
C766
C766
C766
C776
C77E
C73C
C73C
C73C
C73C
C73C
E738
6638
7E18
3C18
0018
0038
0030
0070
00E0
00E0
ENDCHAR
STARTCHAR 0479
ENCODING 1145
SWIDTH 612 0
DWIDTH 17 0
BBX 16 21 1 -6
BITMAP
3C67
7E66
6766
E366
E376
C3FE
C3BC
C3BC
C3BC
C3BC
E3BC
E338
E738
7E18
3E18
0018
0038
0030
0070
00E0
00E0
ENDCHAR
STARTCHAR 047A
ENCODING 1146
SWIDTH 612 0
DWIDTH 17 0
BBX 15 24 1 -2
BITMAP
0380
0380
0FC0
1FF0
3FF8
7BF8
783C
701C
F01C
F01E
F01E
F01E
F01E
F01E
F01E
F01C
F01C
783C
7BF8
3FF8
1FF0
0FE0
0380
0380
ENDCHAR
STARTCHAR 047B
ENCODING 1147
SWIDTH 612 0
DWIDTH 17 0
BBX 14 19 1 -2
BITMAP
0380
0380
07C0
1FF0
3FF8
7BF8
783C
701C
701C
F01C
F01C
701C
783C
7BBC
3FF8
1FF0
0FE0
0380
0380
ENDCHAR
STARTCHAR 047C
ENCODING 1148
SWIDTH 612 0
DWIDTH 17 0
BBX 16 25 1 0
BITMAP
0780
0FF8
0C38
0180
0180
19B8
7B3C
783E
F00F
E00F
E007
E007
E007
E007
E3C7
E3C7
E3C7
E3C7
E3C7
E3C7
E3C7
F3CF
FFFF
7FFE
3E7C
ENDCHAR
STARTCHAR 047D
ENCODING 1149
SWIDTH 612 0
DWIDTH 17 0
BBX 15 21 1 0
BITMAP
0200
0FC0
1DF8
1838
0180
0180
19B0
7B3C
783C
F01E
E00E
E00E
E00E
E38E
E38E
E38E
E38E
F38E
F7DE
7EFC
3EF8
ENDCHAR
STARTCHAR 047E
ENCODING 1150
SWIDTH 612 0
DWIDTH 17 0
BBX 15 25 1 0
BITMAP
1FF8
1FF8
0380
0380
0000
E38E
E38E
E38E
E38E
E38E
E38E
E38E
E38E
E38E
E38E
E38E
E38E
E38E
E38E
E38E
F38E
F3CE
7FFE
7FFC
3E78
ENDCHAR
STARTCHAR 047F
ENCODING 1151
SWIDTH 612 0
DWIDTH 17 0
BBX 15 20 1 0
BITMAP
1FF8
1FF8
0380
0000
0000
E38E
E38E
E38E
E38E
E38E
E38E
E38E
E38E
E38E
E38E
E38E
E39E
FFFC
7EFC
3EF8
ENDCHAR
STARTCHAR 0480
ENCODING 1152
SWIDTH 612 0
DWIDTH 17 0
BBX 13 25 2 -5
BITMAP
0FC0
3FE0
7FF0
7878
F078
F038
E038
E000
E000
E000
E000
E000
E000
E000
F000
F000
7800
7FC0
3FC0
0FC0
03C0
03C0
03C0
03C0
03C0
ENDCHAR
STARTCHAR 0481
ENCODING 1153
SWIDTH 612 0
DWIDTH 17 0
BBX 13 20 2 -5
BITMAP
0FC0
1FE0
3FF0
7878
7838
7038
7000
F000
F000
7000
7000
7800
3F80
1F80
0F80
0380
0380
0380
0380
0380
ENDCHAR
STARTCHAR 0482
ENCODING 1154
SWIDTH 612 0
DWIDTH 17 0
BBX 15 18 1 0
BITMAP
001C
0018
0438
0F30
03E0
00F0
00F8
01DE
4184
6380
FB00
1E00
0F00
0FC0
1CE0
1840
3800
7000
ENDCHAR
STARTCHAR 0483
ENCODING 1155
SWIDTH 612 0
DWIDTH 17 0
BBX 10 5 -7 16
BITMAP
01C0
01C0
FFC0
C000
C000
ENDCHAR
STARTCHAR 0484
ENCODING 1156
SWIDTH 612 0
DWIDTH 17 0
BBX 11 3 -8 18
BITMAP
07C0
FFE0
F060
ENDCHAR
STARTCHAR 0485
ENCODING 1157
SWIDTH 612 0
DWIDTH 17 0
BBX 3 4 -4 18
BITMAP
C0
C0
60
60
ENDCHAR
STARTCHAR 0486
ENCODING 1158
SWIDTH 612 0
DWIDTH 17 0
BBX 3 4 -4 18
BITMAP
E0
E0
C0
80
ENDCHAR
STARTCHAR 0488
ENCODING 1160
SWIDTH 612 0
DWIDTH 17 0
BBX 27 24 -5 -4
BITMAP
000E0000
001B0000
00310000
00000000
0E001E00
11001300
00000000
00000000
00000000
00000000
00000000
780003C0
CC000660
00000000
00000000
00000000
00000000
00000000
1E001E00
13001300
20002000
00000000
001F0000
00130000
ENDCHAR
STARTCHAR 0489
ENCODING 1161
SWIDTH 612 0
DWIDTH 17 0
BBX 25 26 -4 -6
BITMAP
000C0000
000C0000
00080000
08180000
0C180C00
0C003C00
06007000
06002000
00000000
00000000
00000000
80000800
F8000F00
38000380
00000000
00000000
00000000
00000000
02003000
07003000
1E001800
380C1800
00080800
00180000
00180000
00100000
ENDCHAR
STARTCHAR 048A
ENCODING 1162
SWIDTH 612 0
DWIDTH 17 0
BBX 16 30 2 -5
BITMAP
3860
38E0
1FC0
0F80
0000
E078
E078
E0F8
E0F8
E1F8
E1F8
E3F8
E3F8
E778
E778
EF78
EE78
EE78
FC78
FC78
F878
F878
F07F
F07F
E07F
000E
000E
000E
001C
001C
ENDCHAR
STARTCHAR 048B
ENCODING 1163
SWIDTH 612 0
DWIDTH 17 0
BBX 16 26 2 -5
BITMAP
3860
38E0
1FC0
0F80
0000
0000
E078
E0F8
E0F8
E1F8
E1F8
E3F8
E778
E778
EE78
EE78
FC78
F878
F87F
F07F
F07F
000E
000E
000E
001C
001C
ENDCHAR
STARTCHAR 048C
ENCODING 1164
SWIDTH 612 0
DWIDTH 17 0
BBX 16 20 -1 0
BITMAP
1C00
1C00
1C00
FFC0
FFC0
1C00
1C00
1C00
1FF8
1FFE
1C7E
1C0F
1C0F
1C07
1C07
1C0F
1C1F
1FFE
1FFC
1FF0
ENDCHAR
STARTCHAR 048D
ENCODING 1165
SWIDTH 612 0
DWIDTH 17 0
BBX 16 15 0 0
BITMAP
3C00
3C00
FFC0
FFC0
3C00
3FE0
3FFC
3FFE
3C1E
3C0E
3C0F
3C1E
3FFE
3FFC
3FF0
ENDCHAR
STARTCHAR 048E
ENCODING 1166
SWIDTH 612 0
DWIDTH 17 0
BBX 14 20 2 0
BITMAP
FF80
FFF0
FFF8
F078
F03C
F03C
F03C
F33C
F3BC
F1F8
FFF0
FFE0
FE70
F038
F018
F000
F000
F000
F000
F000
ENDCHAR
STARTCHAR 048F
ENCODING 1167
SWIDTH 612 0
DWIDTH 17 0
BBX 13 21 2 -6
BITMAP
E7C0
EFE0
FFF0
F0F0
F078
F078
F038
F038
F038
F178
F3F8
F1F8
FFF0
FFE0
F7F0
F018
F000
F000
F000
F000
F000
ENDCHAR
STARTCHAR 0490
ENCODING 1168
SWIDTH 612 0
DWIDTH 17 0
BBX 13 25 2 0
BITMAP
0038
0038
0038
0038
0038
FFF8
FFF8
FFF8
F000
F000
F000
F000
F000
F000
F000
F000
F000
F000
F000
F000
F000
F000
F000
F000
F000
ENDCHAR
STARTCHAR 0491
ENCODING 1169
SWIDTH 612 0
DWIDTH 17 0
BBX 13 19 2 0
BITMAP
0038
0038
0038
0038
FFF8
FFF8
FFF8
F000
F000
F000
F000
F000
F000
F000
F000
F000
F000
F000
F000
ENDCHAR
STARTCHAR 0492
ENCODING 1170
SWIDTH 612 0
DWIDTH 17 0
BBX 15 20 0 0
BITMAP
3FFE
3FFE
3FFE
3C00
3C00
3C00
3C00
3C00
FC00
FF80
FF80
3C00
3C00
3C00
3C00
3C00
3C00
3C00
3C00
3C00
ENDCHAR
STARTCHAR 0493
ENCODING 1171
SWIDTH 612 0
DWIDTH 17 0
BBX 15 15 0 0
BITMAP
3FFE
3FFE
3FFE
3C00
3C00
3C00
FF80
FF80
FF80
3C00
3C00
3C00
3C00
3C00
3C00
ENDCHAR
STARTCHAR 0494
ENCODING 1172
SWIDTH 612 0
DWIDTH 17 0
BBX 14 24 2 -4
BITMAP
FFF8
FFF8
FFF8
F000
F000
F000
F000
F000
F000
FFC0
FFF0
FFF8
F078
F03C
F03C
F03C
F03C
F01C
F01C
F03C
003C
00F8
01F0
01E0
ENDCHAR
STARTCHAR 0495
ENCODING 1173
SWIDTH 612 0
DWIDTH 17 0
BBX 14 19 2 -4
BITMAP
FFF8
FFF8
FFF8
F000
F000
F000
FF80
FFE0
FFF0
F078
F038
F03C
F03C
F03C
F038
0078
01F0
00E0
00C0
ENDCHAR
STARTCHAR 0496
ENCODING 1174
SWIDTH 612 0
DWIDTH 17 0
BBX 18 25 0 -5
BITMAP
F1CF00
71CF00
79CE00
79CE00
39DE00
39DE00
3DDC00
1DDC00
1DDC00
1FF800
1FFC00
1FFC00
3DDC00
3DDE00
39DE00
79CE00
79CE00
79CFC0
F1CFC0
F1C7C0
0001C0
0001C0
0001C0
0001C0
0001C0
ENDCHAR
STARTCHAR 0497
ENCODING 1175
SWIDTH 612 0
DWIDTH 17 0
BBX 18 20 0 -5
BITMAP
71CF00
79CE00
39CE00
39DE00
3DDC00
1DDC00
1FF800
0FF800
1FFC00
1DDC00
3DDC00
39DE00
79CFC0
79CFC0
F1CFC0
0001C0
0001C0
0001C0
0001C0
0001C0
ENDCHAR
STARTCHAR 0498
ENCODING 1176
SWIDTH 612 0
DWIDTH 17 0
BBX 15 27 1 -7
BITMAP
0FE0
3FF8
7FFC
783C
F01E
001E
001C
003C
07F8
07F0
07F8
007C
001E
001E
F01E
F01E
F83E
7FFC
3FF8
1FE0
0380
0380
0380
0380
0380
0380
0380
ENDCHAR
STARTCHAR 0499
ENCODING 1177
SWIDTH 612 0
DWIDTH 17 0
BBX 13 22 2 -7
BITMAP
1FC0
7FF0
FFF8
F078
0078
0078
0FF0
0FE0
0FF0
0078
0038
E078
FDF8
7FF0
3FC0
0700
0700
0700
0700
0700
0700
0700
ENDCHAR
STARTCHAR 049A
ENCODING 1178
SWIDTH 612 0
DWIDTH 17 0
BBX 15 25 2 -5
BITMAP
F03C
F078
F078
F0F0
F0F0
F1E0
F3C0
F3C0
F780
FF00
FF80
FF80
F3C0
F1E0
F1E0
F0F0
F0F8
F07E
F03E
F03E
000E
000E
000E
000E
000E
ENDCHAR
STARTCHAR 049B
ENCODING 1179
SWIDTH 612 0
DWIDTH 17 0
BBX 16 20 2 -5
BITMAP
E03C
E078
E0F0
E1F0
E1E0
E3C0
FF80
FF80
FFC0
E3C0
E1E0
E1F0
E0FF
E07F
E03F
0007
0007
0007
0007
0007
ENDCHAR
STARTCHAR 049C
ENCODING 1180
SWIDTH 612 0
DWIDTH 17 0
BBX 16 20 2 0
BITMAP
F03E
F03C
F03C
F078
F078
F6F0
F6F0
F6E0
FFE0
FFE0
FFE0
FFF0
F6F0
F6F8
F678
F07C
F03C
F03C
F03E
F01F
ENDCHAR
STARTCHAR 049D
ENCODING 1181
SWIDTH 612 0
DWIDTH 17 0
BBX 14 15 2 0
BITMAP
E03C
E078
E078
EEF0
EEF0
EFE0
FFC0
FFC0
FFE0
EFE0
EEF0
EEF0
E078
E07C
E03C
ENDCHAR
STARTCHAR 049E
ENCODING 1182
SWIDTH 612 0
DWIDTH 17 0
BBX 17 20 0 0
BITMAP
3C0F80
3C0F00
FF9E00
FFBC00
3C3C00
3C7800
3CF000
3CF000
3DE000
3FE000
3FE000
3FF000
3CF000
3C7800
3C7800
3C3C00
3C1E00
3C1E00
3C0F00
3C0F80
ENDCHAR
STARTCHAR 049F
ENCODING 1183
SWIDTH 612 0
DWIDTH 17 0
BBX 17 21 -1 0
BITMAP
1E0000
1E0000
FFC000
FFC000
1E0000
1E0000
1E0F00
1E1E00
1E3C00
1E7800
1EF800
1FF000
1FE000
1FF000
1FF000
1F7800
1E3C00
1E3E00
1E1E00
1E0F00
1E0780
ENDCHAR
STARTCHAR 04A0
ENCODING 1184
SWIDTH 612 0
DWIDTH 17 0
BBX 17 20 0 0
BITMAP
FF0F00
FF0F00
FF1E00
071E00
073C00
073C00
073800
077800
07F800
07F000
07F000
07F800
077800
073C00
073C00
071E00
071E00
070F00
070F00
070F80
ENDCHAR
STARTCHAR 04A1
ENCODING 1185
SWIDTH 612 0
DWIDTH 17 0
BBX 17 15 0 0
BITMAP
FF0F00
FF1F00
FF1E00
073C00
073C00
073800
07F800
07F800
07F800
077C00
073C00
073E00
071E00
071F00
070F80
ENDCHAR
STARTCHAR 04A2
ENCODING 1186
SWIDTH 612 0
DWIDTH 17 0
BBX 15 25 2 -5
BITMAP
E078
E078
E078
E078
E078
E078
E078
E078
FFF8
FFF8
FFF8
E078
E078
E078
E078
E078
E078
E07E
E07E
E07E
000E
000E
000E
000E
000E
ENDCHAR
STARTCHAR 04A3
ENCODING 1187
SWIDTH 612 0
DWIDTH 17 0
BBX 15 20 2 -5
BITMAP
E078
E078
E078
E078
E078
E078
FFF8
FFF8
FFF8
E078
E078
E078
E07E
E07E
E07E
000E
000E
000E
000E
000E
ENDCHAR
STARTCHAR 04A4
ENCODING 1188
SWIDTH 612 0
DWIDTH 17 0
BBX 15 20 1 0
BITMAP
E1FE
E1FE
E1FE
E1E0
E1E0
E1E0
E1E0
E1E0
FFE0
FFE0
FFE0
FFE0
E1E0
E1E0
E1E0
E1E0
E1E0
E1E0
E1E0
E1E0
ENDCHAR
STARTCHAR 04A5
ENCODING 1189
SWIDTH 612 0
DWIDTH 17 0
BBX 15 15 1 0
BITMAP
F0FE
F0FE
F0FE
F0E0
F0E0
F0E0
FFE0
FFE0
FFE0
F0E0
F0E0
F0E0
F0E0
F0E0
F0E0
ENDCHAR
STARTCHAR 04A6
ENCODING 1190
SWIDTH 612 0
DWIDTH 17 0
BBX 15 25 1 -5
BITMAP
FF80
FF80
FF80
E380
E380
E380
E380
E380
E380
E3F0
E3F8
E3FC
E39E
E39E
E39E
E38E
E38E
E38E
E38E
E39E
001E
003C
003C
0038
0040
ENDCHAR
STARTCHAR 04A7
ENCODING 1191
SWIDTH 612 0
DWIDTH 17 0
BBX 15 19 1 -4
BITMAP
FF80
FF80
FF80
F380
F380
F380
F3F0
F3F8
F3FC
F39E
F39E
F39E
F38E
F39E
F39E
001E
007C
0038
0010
ENDCHAR
STARTCHAR 04A8
ENCODING 1192
SWIDTH 612 0
DWIDTH 17 0
BBX 15 20 1 0
BITMAP
18F0
39F8
79FC
7BDC
739E
F39E
F39E
F39E
F39E
F39E
F39E
F39E
F39E
F3DE
73DE
79FC
7DFC
3FFE
1FFE
0FFE
ENDCHAR
STARTCHAR 04A9
ENCODING 1193
SWIDTH 612 0
DWIDTH 17 0
BBX 16 15 1 0
BITMAP
1CF8
3DFC
7DFC
739E
F38E
F38E
F38E
F38E
F38E
F39E
F1DE
79FC
3FFC
3FFF
0FFF
ENDCHAR
STARTCHAR 04AA
ENCODING 1194
SWIDTH 612 0
DWIDTH 17 0
BBX 15 27 1 -7
BITMAP
0FE0
1FF0
3FF8
783C
781C
701C
F002
F000
F000
F000
F000
F000
F000
F002
701C
701C
783C
3FF8
1FF0
0FE0
0380
0380
0380
0380
0380
0380
0380
ENDCHAR
STARTCHAR 04AB
ENCODING 1195
SWIDTH 612 0
DWIDTH 17 0
BBX 13 22 2 -7
BITMAP
0F80
3FE0
7FF0
78F0
F078
E078
E000
E000
E000
E000
F078
F078
7FF0
3FE0
1FC0
0700
0700
0700
0700
0700
0700
0700
ENDCHAR
STARTCHAR 04AC
ENCODING 1196
SWIDTH 612 0
DWIDTH 17 0
BBX 15 25 1 -5
BITMAP
FFFE
FFFE
FFFE
0380
0380
0380
0380
0380
0380
0380
0380
0380
0380
0380
0380
0380
0380
03E0
03E0
03E0
00E0
00E0
00E0
00E0
00E0
ENDCHAR
STARTCHAR 04AD
ENCODING 1197
SWIDTH 612 0
DWIDTH 17 0
BBX 15 20 1 -5
BITMAP
FFFE
FFFE
FFFE
03C0
03C0
03C0
03C0
03C0
03C0
03C0
03C0
03C0
03E0
03E0
03E0
00E0
00E0
00E0
00E0
00E0
ENDCHAR
STARTCHAR 04AE
ENCODING 1198
SWIDTH 612 0
DWIDTH 17 0
BBX 16 20 1 0
BITMAP
F01F
F01E
781C
783C
3838
3C78
1C70
1EF0
0EE0
0FE0
07C0
07C0
0380
0380
0380
0380
0380
0380
0380
0380
ENDCHAR
STARTCHAR 04AF
ENCODING 1199
SWIDTH 612 0
DWIDTH 17 0
BBX 15 21 1 -6
BITMAP
E00E
F01E
701C
781C
783C
3838
3C78
1C70
1C70
0EE0
0EE0
0EE0
07C0
07C0
0380
0380
0380
0380
0380
0380
0380
ENDCHAR
STARTCHAR 04B0
ENCODING 1200
SWIDTH 612 0
DWIDTH 17 0
BBX 16 20 1 0
BITMAP
F01F
F01E
781C
783C
3838
3C78
1C70
1EF0
0EE0
0FE0
1FF0
1FF0
1FF0
0380
0380
0380
0380
0380
0380
0380
ENDCHAR
STARTCHAR 04B1
ENCODING 1201
SWIDTH 612 0
DWIDTH 17 0
BBX 15 21 1 -6
BITMAP
E00E
F01E
701C
781C
783C
3838
3C78
1C70
1C70
0EE0
0EE0
0FE0
07C0
1FF0
1FF0
0380
0380
0380
0380
0380
0380
ENDCHAR
STARTCHAR 04B2
ENCODING 1202
SWIDTH 612 0
DWIDTH 17 0
BBX 16 25 1 -5
BITMAP
F01E
781E
783C
3C38
3C78
1EF0
1EF0
0FE0
07E0
07C0
07C0
0FE0
0FE0
1EF0
1E70
3C78
3C3C
783F
F81F
F01F
0007
0007
0007
0007
0007
ENDCHAR
STARTCHAR 04B3
ENCODING 1203
SWIDTH 612 0
DWIDTH 17 0
BBX 15 20 1 -5
BITMAP
F81E
783C
3C78
1E78
1EF0
0FE0
07E0
07C0
07E0
0FE0
1EF0
1E78
3C7E
783E
F81E
000E
000E
000E
000E
000E
ENDCHAR
STARTCHAR 04B4
ENCODING 1204
SWIDTH 612 0
DWIDTH 17 0
BBX 17 25 0 -5
BITMAP
FFCE00
FFCE00
FFCE00
1E0E00
1E0E00
1E0E00
1E0E00
1E0E00
1E0E00
1E0E00
1E0E00
1E0E00
1E0E00
1E0E00
1E0E00
1E0E00
1E0E00
1FFF80
1FFF80
1FFF80
000380
000380
000380
000380
000380
ENDCHAR
STARTCHAR 04B5
ENCODING 1205
SWIDTH 612 0
DWIDTH 17 0
BBX 15 19 1 -4
BITMAP
FF3C
FF3C
FF3C
3C3C
3C3C
3C3C
3C3C
3C3C
3C3C
3C3C
3C3C
3C3C
3FFE
3FFE
3FFE
000E
000E
000E
000E
ENDCHAR
STARTCHAR 04B6
ENCODING 1206
SWIDTH 612 0
DWIDTH 17 0
BBX 15 25 2 -5
BITMAP
F038
F038
F038
F038
F038
F038
F038
F038
F038
7878
7FF8
3FF8
07B8
0038
0038
0038
0038
003E
003E
003E
000E
000E
000E
000E
000E
ENDCHAR
STARTCHAR 04B7
ENCODING 1207
SWIDTH 612 0
DWIDTH 17 0
BBX 15 20 2 -5
BITMAP
E038
E038
E038
E038
E038
E038
F038
FCF8
7FF8
3FF8
0038
0038
003E
003E
003E
000E
000E
000E
000E
000E
ENDCHAR
STARTCHAR 04B8
ENCODING 1208
SWIDTH 612 0
DWIDTH 17 0
BBX 13 20 2 0
BITMAP
F078
F078
F078
F078
F078
F078
F678
F678
F678
FE78
7FF8
3FF8
0F78
0678
0678
0678
0078
0078
0078
0078
ENDCHAR
STARTCHAR 04B9
ENCODING 1209
SWIDTH 612 0
DWIDTH 17 0
BBX 13 15 2 0
BITMAP
E038
E038
E038
E038
E738
E738
F738
FFF8
7FF8
3FF8
0738
0738
0738
0038
0038
ENDCHAR
STARTCHAR 04BA
ENCODING 1210
SWIDTH 612 0
DWIDTH 17 0
BBX 13 20 2 0
BITMAP
F000
F000
F000
F000
F000
F000
F000
F700
FFE0
FFF0
FDF8
F078
F078
F078
F078
F078
F078
F038
F038
F038
ENDCHAR
STARTCHAR 04BB
ENCODING 1211
SWIDTH 612 0
DWIDTH 17 0
BBX 13 21 2 0
BITMAP
F000
F000
F000
F000
F000
F000
F3C0
FFF0
FFF0
F078
F078
F078
F038
F038
F038
F038
F038
F038
F038
F038
F038
ENDCHAR
STARTCHAR 04BC
ENCODING 1212
SWIDTH 612 0
DWIDTH 17 0
BBX 16 20 0 0
BITMAP
01F8
03FC
07FE
0F9E
0F0E
CE0F
DE0F
FE0F
FFFF
7FFF
3FFF
1E00
1E00
1E00
1E00
0F00
0F82
07FE
03FE
01FC
ENDCHAR
STARTCHAR 04BD
ENCODING 1213
SWIDTH 612 0
DWIDTH 17 0
BBX 16 15 0 0
BITMAP
00F8
03FC
07FE
E79E
EF0F
7F0F
7FFF
3FFF
0FFF
0F00
0F00
0786
07FF
03FE
01FC
ENDCHAR
STARTCHAR 04BE
ENCODING 1214
SWIDTH 612 0
DWIDTH 17 0
BBX 16 27 0 -7
BITMAP
01F8
03FC
07FE
0F9E
0F0E
CE0F
DE0F
FE0F
FFFF
7FFF
3FFF
1E00
1E00
1E00
1E00
0F00
0F82
07FE
03FE
01FC
0070
0070
0070
0070
0070
0070
0070
ENDCHAR
STARTCHAR 04BF
ENCODING 1215
SWIDTH 612 0
DWIDTH 17 0
BBX 16 22 0 -7
BITMAP
00F8
03FC
07FE
E79E
EF0F
7F0F
7FFF
3FFF
0FFF
0F00
0F00
0786
07FF
03FE
01FC
0070
0070
0070
0070
0070
0070
0070
ENDCHAR
STARTCHAR 04C0
ENCODING 1216
SWIDTH 612 0
DWIDTH 17 0
BBX 11 20 3 0
BITMAP
FFE0
FFE0
FFE0
0E00
0E00
0E00
0E00
0E00
0E00
0E00
0E00
0E00
0E00
0E00
0E00
0E00
0E00
FFE0
FFE0
FFE0
ENDCHAR
STARTCHAR 04C1
ENCODING 1217
SWIDTH 612 0
DWIDTH 17 0
BBX 17 26 0 0
BITMAP
0E1800
0E3800
07F000
03E000
000000
000000
F1CF00
71CF00
79CE00
79CE00
39DE00
39DE00
3DDC00
1DDC00
1DDC00
1FF800
1FFC00
1FFC00
3DDC00
3DDE00
39DE00
79CE00
79CE00
79CF00
F1CF00
F1C780
ENDCHAR
STARTCHAR 04C2
ENCODING 1218
SWIDTH 612 0
DWIDTH 17 0
BBX 16 21 0 0
BITMAP
0E18
0E38
07F0
03E0
0000
0000
71CF
79CE
39CE
39DE
3DDC
1DDC
1FF8
0FF8
1FFC
1DDC
3DDC
39DE
79CE
79CF
F1CF
ENDCHAR
STARTCHAR 04C3
ENCODING 1219
SWIDTH 612 0
DWIDTH 17 0
BBX 15 24 2 -4
BITMAP
F07C
F078
F0F8
F0F0
F1E0
F1E0
F3C0
F3C0
FF80
FFE0
FFF0
FFF8
F03C
F03C
F01C
F01C
F01E
F01C
F01C
F01C
003C
0078
01F8
01E0
ENDCHAR
STARTCHAR 04C4
ENCODING 1220
SWIDTH 612 0
DWIDTH 17 0
BBX 13 19 2 -4
BITMAP
F078
F0F8
F0F0
F1E0
F3C0
F3C0
FF80
FFE0
FFF0
F1F8
F078
F038
F038
F038
F078
0078
01F0
00E0
00C0
ENDCHAR
STARTCHAR 04C5
ENCODING 1221
SWIDTH 612 0
DWIDTH 17 0
BBX 17 25 1 -5
BITMAP
3FFC00
3FFC00
3FFC00
3C3C00
3C3C00
3C3C00
3C3C00
3C3C00
3C3C00
3C3C00
3C3C00
3C3C00
3C3C00
3C3C00
3C3C00
383C00
783C00
F83F80
F03F80
E03F80
000700
000700
000700
000E00
000E00
ENDCHAR
STARTCHAR 04C6
ENCODING 1222
SWIDTH 612 0
DWIDTH 17 0
BBX 17 20 1 -5
BITMAP
3FFC00
3FFC00
3FFC00
3C3C00
3C3C00
3C3C00
3C3C00
3C3C00
3C3C00
3C3C00
3C3C00
783C00
F83F80
F03F80
E03F80
000700
000700
000700
000E00
000E00
ENDCHAR
STARTCHAR 04C7
ENCODING 1223
SWIDTH 612 0
DWIDTH 17 0
BBX 13 26 2 -6
BITMAP
F078
F078
F078
F078
F078
F078
F078
F078
F078
FFF8
FFF8
FFF8
F078
F078
F078
F078
F078
F078
F078
F078
0078
0078
00F0
03F0
03E0
03C0
ENDCHAR
STARTCHAR 04C8
ENCODING 1224
SWIDTH 612 0
DWIDTH 17 0
BBX 13 21 2 -6
BITMAP
F078
F078
F078
F078
F078
F078
FFF8
FFF8
FFF8
F078
F078
F078
F078
F078
F078
0078
0078
00F0
03F0
03E0
03C0
ENDCHAR
STARTCHAR 04C9
ENCODING 1225
SWIDTH 612 0
DWIDTH 17 0
BBX 16 25 2 -5
BITMAP
E078
E078
E078
E078
E078
E078
E078
E078
FFF8
FFF8
FFF8
E078
E078
E078
E078
E078
E078
E07F
E07F
E07F
000E
000E
000E
001C
001C
ENDCHAR
STARTCHAR 04CA
ENCODING 1226
SWIDTH 612 0
DWIDTH 17 0
BBX 16 20 2 -5
BITMAP
E078
E078
E078
E078
E078
E078
FFF8
FFF8
FFF8
E078
E078
E078
E07F
E07F
E07F
000E
000E
000E
001C
001C
ENDCHAR
STARTCHAR 04CB
ENCODING 1227
SWIDTH 612 0
DWIDTH 17 0
BBX 13 25 2 -5
BITMAP
F038
F038
F038
F038
F038
F038
F038
F038
F038
7878
7FF8
3FF8
07B8
0038
0038
0038
0038
01F8
01F8
01F8
01C0
01C0
01C0
01C0
01C0
ENDCHAR
STARTCHAR 04CC
ENCODING 1228
SWIDTH 612 0
DWIDTH 17 0
BBX 13 20 2 -5
BITMAP
E038
E038
E038
E038
E038
E038
F038
FCF8
7FF8
3FF8
0038
0038
01F8
01F8
01F8
01C0
01C0
01C0
01C0
01C0
ENDCHAR
STARTCHAR 04CD
ENCODING 1229
SWIDTH 612 0
DWIDTH 17 0
BBX 17 25 2 -5
BITMAP
F07800
F8F800
F8F800
F8F800
F9F800
FDF800
FDF800
EDB800
EFB800
EFB800
E73800
E73800
E73800
E63800
E03800
E03800
E03800
E03F80
E03F80
E03F80
000700
000700
000700
000E00
000E00
ENDCHAR
STARTCHAR 04CE
ENCODING 1230
SWIDTH 612 0
DWIDTH 17 0
BBX 17 20 2 -5
BITMAP
F07800
F0F800
F8F800
F8F800
F8F800
F9F800
F9F800
FDF800
FDB800
EDB800
EFB800
EF3800
EF3F80
E73F80
E73F80
000700
000700
000700
000E00
000E00
ENDCHAR
STARTCHAR 04CF
ENCODING 1231
SWIDTH 612 0
DWIDTH 17 0
BBX 11 20 3 0
BITMAP
FFE0
FFE0
FFE0
0E00
0E00
0E00
0E00
0E00
0E00
0E00
0E00
0E00
0E00
0E00
0E00
0E00
0E00
FFE0
FFE0
FFE0
ENDCHAR
STARTCHAR 04D0
ENCODING 1232
SWIDTH 612 0
DWIDTH 17 0
BBX 16 26 1 0
BITMAP
1C30
1C70
0FE0
07C0
0000
0000
0380
03C0
07C0
07C0
07E0
0EE0
0EE0
0EF0
1E70
1C70
1C78
3C78
3838
3FFC
7FFC
7FFC
701E
F01E
F01E
E00F
ENDCHAR
STARTCHAR 04D1
ENCODING 1233
SWIDTH 612 0
DWIDTH 17 0
BBX 13 21 2 0
BITMAP
3860
38E0
1FC0
0F80
0000
0000
1F80
7FE0
7FF0
F0F0
F070
0070
1FF0
7FF0
F870
E070
E070
E0F0
FFF0
7FF8
3F78
ENDCHAR
STARTCHAR 04D2
ENCODING 1234
SWIDTH 612 0
DWIDTH 17 0
BBX 16 25 1 0
BITMAP
1C70
1C78
1C30
0000
0000
0380
03C0
07C0
07C0
07E0
0EE0
0EE0
0EF0
1E70
1C70
1C78
3C78
3838
3FFC
7FFC
7FFC
701E
F01E
F01E
E00F
ENDCHAR
STARTCHAR 04D3
ENCODING 1235
SWIDTH 612 0
DWIDTH 17 0
BBX 13 20 2 0
BITMAP
38E0
38F0
3860
0000
0000
1F80
7FE0
7FF0
F0F0
F070
0070
1FF0
7FF0
F870
E070
E070
E0F0
FFF0
7FF8
3F78
ENDCHAR
STARTCHAR 04D4
ENCODING 1236
SWIDTH 612 0
DWIDTH 17 0
BBX 15 20 1 0
BITMAP
03FE
03FE
03FE
07E0
07E0
07E0
0EE0
0EE0
0EFC
1CFC
1CFC
1CE0
3FE0
3FE0
7FE0
78E0
70E0
F0FE
F0FE
E0FE
ENDCHAR
STARTCHAR 04D5
ENCODING 1237
SWIDTH 612 0
DWIDTH 17 0
BBX 15 15 1 0
BITMAP
3EF8
7FFC
FFFE
E38E
038E
038E
1FFE
7FFE
FFFE
F380
E380
E380
F7FC
FFFE
7CFC
ENDCHAR
STARTCHAR 04D6
ENCODING 1238
SWIDTH 612 0
DWIDTH 17 0
BBX 13 26 2 0
BITMAP
3860
38E0
1FC0
0F80
0000
0000
FFF8
FFF8
FFF8
F000
F000
F000
F000
F000
FFF0
FFF0
FFF0
F000
F000
F000
F000
F000
F000
FFF8
FFF8
FFF8
ENDCHAR
STARTCHAR 04D7
ENCODING 1239
SWIDTH 612 0
DWIDTH 17 0
BBX 13 21 2 0
BITMAP
3860
38E0
1FC0
0F80
0000
0000
0FC0
3FE0
7FF0
7878
F078
E038
FFF8
FFF8
FFF8
E000
F000
F830
7FF8
3FF0
0FE0
ENDCHAR
STARTCHAR 04D8
ENCODING 1240
SWIDTH 612 0
DWIDTH 17 0
BBX 15 20 1 0
BITMAP
1FC0
3FF0
3FF8
2078
003C
001C
001C
001C
001E
FFFE
FFFE
FFFE
F01C
F01C
F01C
703C
7878
3FF8
3FF0
0FC0
ENDCHAR
STARTCHAR 04D9
ENCODING 1241
SWIDTH 612 0
DWIDTH 17 0
BBX 14 15 2 0
BITMAP
1F80
7FE0
7FF0
40F8
0078
0038
0038
FFFC
FFF8
F038
F078
7078
7FF0
3FE0
1FC0
ENDCHAR
STARTCHAR 04DA
ENCODING 1242
SWIDTH 612 0
DWIDTH 17 0
BBX 15 24 1 0
BITMAP
1C70
1C78
1C30
0000
1FC0
3FF0
3FF8
2078
003C
001C
001C
001C
001E
FFFE
FFFE
FFFE
F01C
F01C
F01C
703C
7878
3FF8
3FF0
0FC0
ENDCHAR
STARTCHAR 04DB
ENCODING 1243
SWIDTH 612 0
DWIDTH 17 0
BBX 14 20 2 0
BITMAP
38E0
38F0
3860
0000
0000
1F80
7FE0
7FF0
40F8
0078
0038
0038
FFFC
FFF8
F038
F078
7078
7FF0
3FE0
1FC0
ENDCHAR
STARTCHAR 04DC
ENCODING 1244
SWIDTH 612 0
DWIDTH 17 0
BBX 17 25 0 0
BITMAP
0E3800
0E3C00
0E1800
000000
000000
F1CF00
71CF00
79CE00
79CE00
39DE00
39DE00
3DDC00
1DDC00
1DDC00
1FF800
1FFC00
1FFC00
3DDC00
3DDE00
39DE00
79CE00
79CE00
79CF00
F1CF00
F1C780
ENDCHAR
STARTCHAR 04DD
ENCODING 1245
SWIDTH 612 0
DWIDTH 17 0
BBX 16 20 0 0
BITMAP
0E38
0E3C
0E18
0000
0000
71CF
79CE
39CE
39DE
3DDC
1DDC
1FF8
0FF8
1FFC
1DDC
3DDC
39DE
79CE
79CF
F1CF
ENDCHAR
STARTCHAR 04DE
ENCODING 1246
SWIDTH 612 0
DWIDTH 17 0
BBX 15 25 1 0
BITMAP
1C70
1C78
1C30
0000
0000
0FE0
3FF8
7FFC
783C
F01E
001E
001C
003C
07F8
07F0
07F8
007C
001E
001E
F01E
F01E
F83E
7FFC
3FF8
1FE0
ENDCHAR
STARTCHAR 04DF
ENCODING 1247
SWIDTH 612 0
DWIDTH 17 0
BBX 13 20 2 0
BITMAP
38E0
38F0
3860
0000
0000
1FC0
7FF0
FFF8
F078
0078
0078
0FF0
0FE0
0FF0
0078
0038
E078
FDF8
7FF0
3FC0
ENDCHAR
STARTCHAR 04E0
ENCODING 1248
SWIDTH 612 0
DWIDTH 17 0
BBX 14 20 2 0
BITMAP
7FF8
7FF8
7FF8
0070
00E0
01C0
03C0
0780
0F80
0FE0
0FF0
0078
0038
003C
E03C
F03C
F078
7FF8
7FF0
1FC0
ENDCHAR
STARTCHAR 04E1
ENCODING 1249
SWIDTH 612 0
DWIDTH 17 0
BBX 13 20 2 -5
BITMAP
FFF8
FFF8
FFF8
00F0
00E0
01C0
03C0
0780
0F80
0FE0
0FF0
0078
0038
0038
0038
E038
F078
FDF8
7FF0
1FC0
ENDCHAR
STARTCHAR 04E2
ENCODING 1250
SWIDTH 612 0
DWIDTH 17 0
BBX 13 24 2 0
BITMAP
3FF0
3FF0
0000
0000
E078
E078
E0F8
E0F8
E1F8
E1F8
E3F8
E3F8
E778
E778
EF78
EE78
EE78
FC78
FC78
F878
F878
F078
F078
E078
ENDCHAR
STARTCHAR 04E3
ENCODING 1251
SWIDTH 612 0
DWIDTH 17 0
BBX 13 20 2 0
BITMAP
3FF0
3FF0
0000
0000
0000
E078
E0F8
E0F8
E1F8
E1F8
E3F8
E778
E778
EE78
EE78
FC78
F878
F878
F078
F078
ENDCHAR
STARTCHAR 04E4
ENCODING 1252
SWIDTH 612 0
DWIDTH 17 0
BBX 13 25 2 0
BITMAP
71C0
71E0
70C0
0000
0000
E078
E078
E0F8
E0F8
E1F8
E1F8
E3F8
E3F8
E778
E778
EF78
EE78
EE78
FC78
FC78
F878
F878
F078
F078
E078
ENDCHAR
STARTCHAR 04E5
ENCODING 1253
SWIDTH 612 0
DWIDTH 17 0
BBX 13 20 2 0
BITMAP
71C0
71E0
70C0
0000
0000
E078
E0F8
E0F8
E1F8
E1F8
E3F8
E778
E778
EE78
EE78
FC78
F878
F878
F078
F078
ENDCHAR
STARTCHAR 04E6
ENCODING 1254
SWIDTH 612 0
DWIDTH 17 0
BBX 15 25 1 0
BITMAP
1C70
1C78
1C30
0000
0000
0FC0
1FF0
3FF8
7878
783C
701C
F01C
F01E
F01E
F01E
F01E
F01E
F01E
F01C
701C
783C
7878
3FF8
1FF0
0FE0
ENDCHAR
STARTCHAR 04E7
ENCODING 1255
SWIDTH 612 0
DWIDTH 17 0
BBX 14 20 1 0
BITMAP
1C70
1C78
1C30
0000
0000
07C0
1FF0
3FF8
7878
783C
703C
701C
F01C
F01C
701C
783C
783C
3FF8
1FF0
0FE0
ENDCHAR
STARTCHAR 04E8
ENCODING 1256
SWIDTH 612 0
DWIDTH 17 0
BBX 15 20 1 0
BITMAP
0FC0
1FF0
3FF8
7878
783C
701C
F01C
F01E
F01E
FFFE
FFFE
F01E
F01E
F01C
F01C
703C
7878
3FF8
1FF0
0FE0
ENDCHAR
STARTCHAR 04E9
ENCODING 1257
SWIDTH 612 0
DWIDTH 17 0
BBX 14 15 1 0
BITMAP
0FC0
1FF0
3FF8
7878
703C
703C
FFFC
FFFC
FFFC
F03C
703C
7878
3FF8
3FF0
0FE0
ENDCHAR
STARTCHAR 04EA
ENCODING 1258
SWIDTH 612 0
DWIDTH 17 0
BBX 15 25 1 0
BITMAP
1C70
1C78
1C30
0000
0000
0FC0
1FF0
3FF8
7878
783C
701C
F01C
F01E
F01E
FFFE
FFFE
F01E
F01E
F01C
F01C
703C
7878
3FF8
1FF0
0FE0
ENDCHAR
STARTCHAR 04EB
ENCODING 1259
SWIDTH 612 0
DWIDTH 17 0
BBX 14 21 1 0
BITMAP
38E0
38F0
3860
0000
0000
0000
0FC0
1FF0
3FF8
7878
703C
703C
FFFC
FFFC
FFFC
F03C
703C
7878
3FF8
3FF0
0FE0
ENDCHAR
STARTCHAR 04EC
ENCODING 1260
SWIDTH 612 0
DWIDTH 17 0
BBX 14 25 1 0
BITMAP
38E0
38F0
3860
0000
0000
1FC0
3FE0
7FF0
F078
F038
E03C
E03C
003C
003C
07FC
07FC
07FC
003C
E03C
E03C
F038
F078
7FF0
3FF0
1FC0
ENDCHAR
STARTCHAR 04ED
ENCODING 1261
SWIDTH 612 0
DWIDTH 17 0
BBX 13 20 2 0
BITMAP
71C0
71E0
70C0
0000
0000
1F80
7FE0
FFF0
F0F0
E078
0078
07F8
07F8
07F8
0078
E078
F0F0
FFF0
7FE0
1F80
ENDCHAR
STARTCHAR 04EE
ENCODING 1262
SWIDTH 612 0
DWIDTH 17 0
BBX 17 24 0 0
BITMAP
0FFC00
0FFC00
000000
000000
F00780
780F00
780F00
3C0E00
3C1E00
1C1C00
1E3C00
0E3C00
0F3800
077800
077000
03F000
03E000
01E000
01C000
01C000
03C000
3F8000
7F0000
7E0000
ENDCHAR
STARTCHAR 04EF
ENCODING 1263
SWIDTH 612 0
DWIDTH 17 0
BBX 16 26 1 -6
BITMAP
1FF8
1FF8
0000
0000
0000
F00F
F01E
781E
783C
383C
3C38
1C78
1E70
1EF0
0EF0
0FE0
07E0
07C0
03C0
0380
0780
0700
0F00
3E00
3E00
7800
ENDCHAR
STARTCHAR 04F0
ENCODING 1264
SWIDTH 612 0
DWIDTH 17 0
BBX 17 25 0 0
BITMAP
0E3800
0E3C00
0E1800
000000
000000
F00780
780F00
780F00
3C0E00
3C1E00
1C1C00
1E3C00
0E3C00
0F3800
077800
077000
03F000
03E000
01E000
01C000
01C000
03C000
3F8000
7F0000
7E0000
ENDCHAR
STARTCHAR 04F1
ENCODING 1265
SWIDTH 612 0
DWIDTH 17 0
BBX 16 26 1 -6
BITMAP
1C70
1C78
1C30
0000
0000
F00F
F01E
781E
783C
383C
3C38
1C78
1E70
1EF0
0EF0
0FE0
07E0
07C0
03C0
0380
0780
0700
0F00
3E00
3E00
7800
ENDCHAR
STARTCHAR 04F2
ENCODING 1266
SWIDTH 612 0
DWIDTH 17 0
BBX 17 26 0 0
BITMAP
00EF00
01DE00
039C00
077000
000000
000000
F00780
780F00
780F00
3C0E00
3C1E00
1C1C00
1E3C00
0E3C00
0F3800
077800
077000
03F000
03E000
01E000
01C000
01C000
03C000
3F8000
7F0000
7E0000
ENDCHAR
STARTCHAR 04F3
ENCODING 1267
SWIDTH 612 0
DWIDTH 17 0
BBX 16 27 1 -6
BITMAP
01DE
03BC
0738
0EE0
0000
0000
F00F
F01E
781E
783C
383C
3C38
1C78
1E70
1EF0
0EF0
0FE0
07E0
07C0
03C0
0380
0780
0700
0F00
3E00
3E00
7800
ENDCHAR
STARTCHAR 04F4
ENCODING 1268
SWIDTH 612 0
DWIDTH 17 0
BBX 13 25 2 0
BITMAP
71C0
71E0
70C0
0000
0000
F038
F038
F038
F038
F038
F038
F038
F038
F038
7878
7FF8
3FF8
07B8
0038
0038
0038
0038
0038
0038
0038
ENDCHAR
STARTCHAR 04F5
ENCODING 1269
SWIDTH 612 0
DWIDTH 17 0
BBX 13 20 2 0
BITMAP
38E0
38F0
3860
0000
0000
E038
E038
E038
E038
E038
E038
F038
FCF8
7FF8
3FF8
0038
0038
0038
0038
0038
ENDCHAR
STARTCHAR 04F6
ENCODING 1270
SWIDTH 612 0
DWIDTH 17 0
BBX 13 25 2 -5
BITMAP
FFF8
FFF8
FFF8
F000
F000
F000
F000
F000
F000
F000
F000
F000
F000
F000
F000
F000
F000
FC00
FC00
FC00
1C00
1C00
1C00
1C00
1C00
ENDCHAR
STARTCHAR 04F7
ENCODING 1271
SWIDTH 612 0
DWIDTH 17 0
BBX 13 20 2 -5
BITMAP
FFF8
FFF8
FFF8
F000
F000
F000
F000
F000
F000
F000
F000
F000
F800
F800
F800
3800
3800
3800
3800
3800
ENDCHAR
STARTCHAR 04F8
ENCODING 1272
SWIDTH 612 0
DWIDTH 17 0
BBX 15 25 1 0
BITMAP
38E0
38F0
3860
0000
0000
F01E
F01E
F01E
F01E
F01E
F01E
F01E
F01E
FC1E
FF1E
FF9E
F3DE
F3DE
F3DE
F3DE
F3DE
F3DE
FF9E
FF1E
FE1E
ENDCHAR
STARTCHAR 04F9
ENCODING 1273
SWIDTH 612 0
DWIDTH 17 0
BBX 15 20 1 0
BITMAP
1C70
1C78
1C30
0000
0000
F01E
F01E
F01E
F01E
F01E
F01E
FF1E
FF9E
F3DE
F3DE
F1DE
F3DE
FF9E
FF9E
FE1E
ENDCHAR
STARTCHAR 04FA
ENCODING 1274
SWIDTH 612 0
DWIDTH 17 0
BBX 16 26 0 -6
BITMAP
1FFF
1FFF
1FFF
1E00
1E00
1E00
1E00
1E00
1E00
FF80
FF80
1E00
1E00
1E00
1E00
1E00
1E00
1FC0
1FC0
1FC0
01C0
01C0
03C0
0FC0
0F80
1F00
ENDCHAR
STARTCHAR 04FB
ENCODING 1275
SWIDTH 612 0
DWIDTH 17 0
BBX 15 21 1 -6
BITMAP
3FFE
3FFE
3FFE
3C00
3C00
3C00
3C00
FF80
FF80
3C00
3C00
3C00
3F00
3F00
3F00
0700
0700
0F00
3F00
3E00
7C00
ENDCHAR
STARTCHAR 04FC
ENCODING 1276
SWIDTH 612 0
DWIDTH 17 0
BBX 17 26 1 -6
BITMAP
F01E00
781E00
783C00
3C3800
3C7800
1EF000
1EF000
0FE000
07E000
07C000
07C000
0FE000
0FE000
1EF000
1E7000
3C7800
3C3C00
783F80
F81F80
F01F80
000380
000380
000780
001F80
001F00
003E00
ENDCHAR
STARTCHAR 04FD
ENCODING 1277
SWIDTH 612 0
DWIDTH 17 0
BBX 16 21 1 -6
BITMAP
F81E
783C
3C78
1E78
1EF0
0FE0
07E0
07C0
07E0
0FE0
1EF0
1E78
3C7F
783F
F81F
0007
0007
000F
003F
003E
007C
ENDCHAR
STARTCHAR 04FE
ENCODING 1278
SWIDTH 612 0
DWIDTH 17 0
BBX 16 20 1 0
BITMAP
F01E
781E
783C
3C38
3C78
1EF0
1EF0
0FE0
07E0
1FF0
1FF0
0FE0
0FE0
1EF0
1E70
3C78
3C3C
783C
F81E
F01F
ENDCHAR
STARTCHAR 04FF
ENCODING 1279
SWIDTH 612 0
DWIDTH 17 0
BBX 15 15 1 0
BITMAP
F81E
783C
3C78
1E78
1EF0
0FE0
1FF0
1FF0
1FF0
0FE0
1EF0
1E78
3C78
783C
F81E
ENDCHAR
STARTCHAR 0500
ENCODING 1280
SWIDTH 612 0
DWIDTH 17 0
BBX 14 20 1 0
BITMAP
003C
003C
003C
003C
003C
003C
003C
03FC
1FFC
3FFC
7C3C
F03C
F03C
F03C
F03C
F03C
783C
7FFC
3FFC
0FFC
ENDCHAR
STARTCHAR 0501
ENCODING 1281
SWIDTH 612 0
DWIDTH 17 0
BBX 13 21 2 0
BITMAP
0078
0078
0078
0078
0078
0078
1F78
3FF8
7FF8
F0F8
F078
E078
E078
E078
E078
E078
F078
F078
7FF8
7FF8
1F78
ENDCHAR
STARTCHAR 0502
ENCODING 1282
SWIDTH 612 0
DWIDTH 17 0
BBX 16 20 1 0
BITMAP
03C0
03C0
03C0
03C0
03C0
03C0
03C0
07CE
3FCE
7FCF
7BCF
F3CF
F3CF
F3CF
F3CF
F3CF
7BCE
7FFE
3FFC
0FF8
ENDCHAR
STARTCHAR 0503
ENCODING 1283
SWIDTH 612 0
DWIDTH 17 0
BBX 15 21 1 0
BITMAP
03C0
03C0
03C0
03C0
03C0
03C0
1FC0
3FC0
7FDC
73DE
F3DE
F3DE
F3CE
F3CE
F3CE
F3CE
F3DE
73DE
7FFC
7FFC
3CF8
ENDCHAR
STARTCHAR 0504
ENCODING 1284
SWIDTH 612 0
DWIDTH 17 0
BBX 15 20 1 0
BITMAP
F800
FE00
FF00
0F80
0780
0780
0780
079C
0F1C
7E1E
7C1E
7F1E
070E
079E
079E
079E
079C
07FC
03F8
01F0
ENDCHAR
STARTCHAR 0505
ENCODING 1285
SWIDTH 612 0
DWIDTH 17 0
BBX 15 15 1 0
BITMAP
FC00
FF00
FF80
0780
0380
039C
079E
7E1E
7F1E
0F9E
039E
039E
03DC
03FC
01F8
ENDCHAR
STARTCHAR 0506
ENCODING 1286
SWIDTH 612 0
DWIDTH 17 0
BBX 14 25 2 -5
BITMAP
FE00
FF80
FFC0
01E0
00E0
00E0
00E0
00E0
01E0
7FC0
7F80
7FC0
01E0
00E0
00F0
00F0
00F0
00FC
00FC
00FC
001C
001C
001C
0038
0030
ENDCHAR
STARTCHAR 0507
ENCODING 1287
SWIDTH 612 0
DWIDTH 17 0
BBX 13 21 3 -6
BITMAP
FC00
FF00
FF80
03C0
03C0
03C0
03C0
FF80
FF00
FF80
03C0
01C0
01F8
01F8
01F8
0078
0078
0070
0070
00E0
0020
ENDCHAR
STARTCHAR 0508
ENCODING 1288
SWIDTH 612 0
DWIDTH 17 0
BBX 16 20 0 0
BITMAP
1FE0
1FE0
1FE0
1CE0
1CE0
1CE0
1CE0
1CE7
1CE7
1CE7
1CE7
3CE7
3CE7
3CE7
3CE7
3CE7
38E7
F8FE
F0FE
E07C
ENDCHAR
STARTCHAR 0509
ENCODING 1289
SWIDTH 612 0
DWIDTH 17 0
BBX 15 15 1 0
BITMAP
7FC0
7FC0
7FC0
7BDC
7BDE
7BDE
7BCE
7BCE
7BCE
7BCE
73CE
73DE
F1FC
E1FC
C0F8
ENDCHAR
STARTCHAR 050A
ENCODING 1290
SWIDTH 612 0
DWIDTH 17 0
BBX 15 20 1 0
BITMAP
F3C0
F3C0
F3C0
F3C0
F3C0
F3C0
F3C0
F3DC
F3DE
FFDE
FFCE
FFCE
F3CE
F3CE
F3CE
F3DE
F1DE
F1FC
F1FC
F0F8
ENDCHAR
STARTCHAR 050B
ENCODING 1291
SWIDTH 612 0
DWIDTH 17 0
BBX 15 15 1 0
BITMAP
F380
F380
F380
F39C
F39C
F39E
FF9E
FF9E
FF9E
F39E
F39E
F3DC
F3FC
F1F8
F1F8
ENDCHAR
STARTCHAR 050C
ENCODING 1292
SWIDTH 612 0
DWIDTH 17 0
BBX 15 20 1 0
BITMAP
07F0
1FF8
3FF0
3C10
7800
7800
7000
F000
F000
F01C
F01E
F01E
F01E
701E
701E
781E
3C1E
3FFC
1FF8
07F0
ENDCHAR
STARTCHAR 050D
ENCODING 1293
SWIDTH 612 0
DWIDTH 17 0
BBX 14 15 2 0
BITMAP
0FE0
1FF0
3FE0
7820
F000
F000
E000
E000
E03C
F03C
F03C
783C
7FF8
3FF8
0FE0
ENDCHAR
STARTCHAR 050E
ENCODING 1294
SWIDTH 612 0
DWIDTH 17 0
BBX 15 20 1 0
BITMAP
FFF8
FFF8
FFF8
0F00
0F00
0F00
0F00
0F1C
0F1E
0F1E
0F1E
0F0E
0F0E
0F0E
0F0E
0F1E
071E
07FC
07F8
03F0
ENDCHAR
STARTCHAR 050F
ENCODING 1295
SWIDTH 612 0
DWIDTH 17 0
BBX 15 15 1 0
BITMAP
FFF0
FFF0
FFF0
0E00
0E00
0E3C
0E1C
0E1E
0E1E
0E1E
0F1E
0F1C
0FFC
07F8
03F0
ENDCHAR
STARTCHAR 0510
ENCODING 1296
SWIDTH 612 0
DWIDTH 17 0
BBX 14 20 1 0
BITMAP
0FE0
3FF0
7FF8
783C
F03C
F000
F000
7800
3FC0
1FC0
3FC0
7C00
F000
F000
F01C
F01C
F83C
7FFC
3FF8
1FE0
ENDCHAR
STARTCHAR 0511
ENCODING 1297
SWIDTH 612 0
DWIDTH 17 0
BBX 14 15 2 0
BITMAP
1FC0
7FF0
7FF8
F03C
F000
F000
7FC0
1FC0
7FC0
F000
E000
F03C
FCF8
7FF8
1FE0
ENDCHAR
STARTCHAR 0512
ENCODING 1298
SWIDTH 612 0
DWIDTH 17 0
BBX 17 26 1 -6
BITMAP
3FFC00
3FFC00
3FFC00
3C3C00
3C3C00
3C3C00
3C3C00
3C3C00
3C3C00
3C3C00
3C3C00
3C3C00
3C3C00
3C3C00
3C3C00
383C00
783C00
F83F80
F03F80
E03F80
000380
000380
000780
001F80
001F00
003E00
ENDCHAR
STARTCHAR 0513
ENCODING 1299
SWIDTH 612 0
DWIDTH 17 0
BBX 17 21 1 -6
BITMAP
3FFC00
3FFC00
3FFC00
3C3C00
3C3C00
3C3C00
3C3C00
3C3C00
3C3C00
3C3C00
3C3C00
783C00
F83F80
F03F80
E03F80
000380
000380
000780
001F80
001F00
003E00
ENDCHAR
STARTCHAR 1E00
ENCODING 7680
SWIDTH 612 0
DWIDTH 17 0
BBX 16 25 1 -5
BITMAP
0380
03C0
07C0
07C0
07E0
0EE0
0EE0
0EF0
1E70
1C70
1C78
3C78
3838
3FFC
7FFC
7FFC
701E
F01E
F01E
E00F
0000
0380
0680
0680
0380
ENDCHAR
STARTCHAR 1E01
ENCODING 7681
SWIDTH 612 0
DWIDTH 17 0
BBX 13 20 2 -5
BITMAP
1F80
7FE0
7FF0
F0F0
F070
0070
1FF0
7FF0
F870
E070
E070
E0F0
FFF0
7FF8
3F78
0000
0E00
1A00
1A00
0E00
ENDCHAR
STARTCHAR 1E3E
ENCODING 7742
SWIDTH 612 0
DWIDTH 17 0
BBX 13 25 2 0
BITMAP
01F0
01C0
0380
0700
0000
F078
F8F8
F8F8
F8F8
F9F8
FDF8
FDF8
EDB8
EFB8
EFB8
E738
E738
E738
E638
E038
E038
E038
E038
E038
E038
ENDCHAR
STARTCHAR 1E3F
ENCODING 7743
SWIDTH 612 0
DWIDTH 17 0
BBX 15 20 1 0
BITMAP
00F8
00E0
01C0
0380
0000
EF38
FFFC
FFFC
E39E
E39E
E39E
E39E
E39E
E39E
E39E
E39E
E39E
E39E
E39E
E39E
ENDCHAR
STARTCHAR 1E80
ENCODING 7808
SWIDTH 612 0
DWIDTH 17 0
BBX 15 25 1 0
BITMAP
1E00
0F00
0700
0380
0000
E38E
E38E
E38E
E38E
E78E
E7CE
F7DE
F7DC
76DC
76DC
76DC
7EFC
7EFC
7CFC
7C78
3C78
3C78
3C78
3C78
3C78
ENDCHAR
STARTCHAR 1E81
ENCODING 7809
SWIDTH 612 0
DWIDTH 17 0
BBX 16 20 0 0
BITMAP
0F00
0780
0380
01C0
0000
F1C7
71C7
71C7
73C7
73CE
73EE
3B6E
3B6E
3F6E
3E6C
3E7C
1E3C
1E3C
1E3C
1C3C
ENDCHAR
STARTCHAR 1E82
ENCODING 7810
SWIDTH 612 0
DWIDTH 17 0
BBX 15 25 1 0
BITMAP
00F8
00E0
01C0
0380
0000
E38E
E38E
E38E
E38E
E78E
E7CE
F7DE
F7DC
76DC
76DC
76DC
7EFC
7EFC
7CFC
7C78
3C78
3C78
3C78
3C78
3C78
ENDCHAR
STARTCHAR 1E83
ENCODING 7811
SWIDTH 612 0
DWIDTH 17 0
BBX 16 20 0 0
BITMAP
00F8
00E0
01C0
0380
0000
F1C7
71C7
71C7
73C7
73CE
73EE
3B6E
3B6E
3F6E
3E6C
3E7C
1E3C
1E3C
1E3C
1C3C
ENDCHAR
STARTCHAR 1E84
ENCODING 7812
SWIDTH 612 0
DWIDTH 17 0
BBX 15 25 1 0
BITMAP
1C70
1C78
1C30
0000
0000
E38E
E38E
E38E
E38E
E78E
E7CE
F7DE
F7DC
76DC
76DC
76DC
7EFC
7EFC
7CFC
7C78
3C78
3C78
3C78
3C78
3C78
ENDCHAR
STARTCHAR 1E85
ENCODING 7813
SWIDTH 612 0
DWIDTH 17 0
BBX 16 20 0 0
BITMAP
0E38
0E3C
0E18
0000
0000
F1C7
71C7
71C7
73C7
73CE
73EE
3B6E
3B6E
3F6E
3E6C
3E7C
1E3C
1E3C
1E3C
1C3C
ENDCHAR
STARTCHAR 1EA0
ENCODING 7840
SWIDTH 612 0
DWIDTH 17 0
BBX 16 25 1 -5
BITMAP
0380
03C0
07C0
07C0
07E0
0EE0
0EE0
0EF0
1E70
1C70
1C78
3C78
3838
3FFC
7FFC
7FFC
701E
F01E
F01E
E00F
0000
0180
03C0
03C0
0380
ENDCHAR
STARTCHAR 1EA1
ENCODING 7841
SWIDTH 612 0
DWIDTH 17 0
BBX 13 20 2 -5
BITMAP
1F80
7FE0
7FF0
F0F0
F070
0070
1FF0
7FF0
F870
E070
E070
E0F0
FFF0
7FF8
3F78
0000
0600
0F00
0F00
0E00
ENDCHAR
STARTCHAR 1EA2
ENCODING 7842
SWIDTH 612 0
DWIDTH 17 0
BBX 16 27 1 0
BITMAP
0380
03E0
00E0
00E0
03C0
0380
0000
0380
03C0
07C0
07C0
07E0
0EE0
0EE0
0EF0
1E70
1C70
1C78
3C78
3838
3FFC
7FFC
7FFC
701E
F01E
F01E
E00F
ENDCHAR
STARTCHAR 1EA3
ENCODING 7843
SWIDTH 612 0
DWIDTH 17 0
BBX 13 23 2 0
BITMAP
0700
07C0
01C0
01C0
0780
0700
0000
0000
1F80
7FE0
7FF0
F0F0
F070
0070
1FF0
7FF0
F870
E070
E070
E0F0
FFF0
7FF8
3F78
ENDCHAR
STARTCHAR 1EA4
ENCODING 7844
SWIDTH 612 0
DWIDTH 17 0
BBX 17 28 1 0
BITMAP
000380
000700
000600
07CC00
0EE000
1C7800
000000
000000
038000
03C000
07C000
07C000
07E000
0EE000
0EE000
0EF000
1E7000
1C7000
1C7800
3C7800
383800
3FFC00
7FFC00
7FFC00
701E00
F01E00
F01E00
E00F00
ENDCHAR
STARTCHAR 1EA5
ENCODING 7845
SWIDTH 612 0
DWIDTH 17 0
BBX 15 23 2 0
BITMAP
000E
001C
0018
1F30
3B80
71E0
0000
0000
1F80
7FE0
7FF0
F0F0
F070
0070
1FF0
7FF0
F870
E070
E070
E0F0
FFF0
7FF8
3F78
ENDCHAR
STARTCHAR 1EA6
ENCODING 7846
SWIDTH 612 0
DWIDTH 17 0
BBX 17 27 0 0
BITMAP
E00000
700000
30C000
19F000
073800
0E1C00
000000
01C000
01E000
03E000
03E000
03F000
077000
077000
077800
0F3800
0E3800
0E3C00
1E3C00
1C1C00
1FFE00
3FFE00
3FFE00
380F00
780F00
780F00
700780
ENDCHAR
STARTCHAR 1EA7
ENCODING 7847
SWIDTH 612 0
DWIDTH 17 0
BBX 16 23 -1 0
BITMAP
E000
7000
30C0
19F0
0738
0E1C
0000
0000
03F0
0FFC
0FFE
1E1E
1E0E
000E
03FE
0FFE
1F0E
1C0E
1C0E
1C1E
1FFE
0FFF
07EF
ENDCHAR
STARTCHAR 1EA8
ENCODING 7848
SWIDTH 612 0
DWIDTH 17 0
BBX 16 28 1 0
BITMAP
0008
000E
0003
0006
07C4
0E60
1C38
0000
0380
03C0
07C0
07C0
07E0
0EE0
0EE0
0EF0
1E70
1C70
1C78
3C78
3838
3FFC
7FFC
7FFC
701E
F01E
F01E
E00F
ENDCHAR
STARTCHAR 1EA9
ENCODING 7849
SWIDTH 612 0
DWIDTH 17 0
BBX 14 24 2 0
BITMAP
0020
0038
000C
0018
1F10
3980
70E0
0000
0000
1F80
7FE0
7FF0
F0F0
F070
0070
1FF0
7FF0
F870
E070
E070
E0F0
FFF0
7FF8
3F78
ENDCHAR
STARTCHAR 1EAA
ENCODING 7850
SWIDTH 612 0
DWIDTH 17 0
BBX 16 28 1 0
BITMAP
0720
07E0
0440
0180
07C0
0E60
1C38
0000
0380
03C0
07C0
07C0
07E0
0EE0
0EE0
0EF0
1E70
1C70
1C78
3C78
3838
3FFC
7FFC
7FFC
701E
F01E
F01E
E00F
ENDCHAR
STARTCHAR 1EAB
ENCODING 7851
SWIDTH 612 0
DWIDTH 17 0
BBX 13 24 2 0
BITMAP
1C80
1F80
1100
0600
1F00
3980
70E0
0000
0000
1F80
7FE0
7FF0
F0F0
F070
0070
1FF0
7FF0
F870
E070
E070
E0F0
FFF0
7FF8
3F78
ENDCHAR
STARTCHAR 1EAC
ENCODING 7852
SWIDTH 612 0
DWIDTH 17 0
BBX 16 31 1 -5
BITMAP
0380
07C0
0EE0
1C78
0000
0000
0380
03C0
07C0
07C0
07E0
0EE0
0EE0
0EF0
1E70
1C70
1C78
3C78
3838
3FFC
7FFC
7FFC
701E
F01E
F01E
E00F
0000
0180
03C0
03C0
0380
ENDCHAR
STARTCHAR 1EAD
ENCODING 7853
SWIDTH 612 0
DWIDTH 17 0
BBX 13 26 2 -5
BITMAP
0E00
1F00
3B80
71E0
0000
0000
1F80
7FE0
7FF0
F0F0
F070
0070
1FF0
7FF0
F870
E070
E070
E0F0
FFF0
7FF8
3F78
0000
0600
0F00
0F00
0E00
ENDCHAR
STARTCHAR 1EAE
ENCODING 7854
SWIDTH 612 0
DWIDTH 17 0
BBX 16 28 1 0
BITMAP
00E0
00C0
0180
1C30
0E70
07E0
0000
0000
0380
03C0
07C0
07C0
07E0
0EE0
0EE0
0EF0
1E70
1C70
1C78
3C78
3838
3FFC
7FFC
7FFC
701E
F01E
F01E
E00F
ENDCHAR
STARTCHAR 1EAF
ENCODING 7855
SWIDTH 612 0
DWIDTH 17 0
BBX 13 23 2 0
BITMAP
0380
0300
0600
70C0
39C0
1F80
0000
0000
1F80
7FE0
7FF0
F0F0
F070
0070
1FF0
7FF0
F870
E070
E070
E0F0
FFF0
7FF8
3F78
ENDCHAR
STARTCHAR 1EB0
ENCODING 7856
SWIDTH 612 0
DWIDTH 17 0
BBX 16 29 1 0
BITMAP
0E00
0700
0380
1C30
0E70
07E0
0000
0000
0000
0380
03C0
07C0
07C0
07E0
0EE0
0EE0
0EF0
1E70
1C70
1C78
3C78
3838
3FFC
7FFC
7FFC
701E
F01E
F01E
E00F
ENDCHAR
STARTCHAR 1EB1
ENCODING 7857
SWIDTH 612 0
DWIDTH 17 0
BBX 13 24 2 0
BITMAP
1C00
0E00
0700
3860
1CE0
0FC0
0000
0000
0000
1F80
7FE0
7FF0
F0F0
F070
0070
1FF0
7FF0
F870
E070
E070
E0F0
FFF0
7FF8
3F78
ENDCHAR
STARTCHAR 1EB2
ENCODING 7858
SWIDTH 612 0
DWIDTH 17 0
BBX 16 28 1 0
BITMAP
03C0
0040
01C0
0180
1C30
0E70
07E0
0000
0380
03C0
07C0
07C0
07E0
0EE0
0EE0
0EF0
1E70
1C70
1C78
3C78
3838
3FFC
7FFC
7FFC
701E
F01E
F01E
E00F
ENDCHAR
STARTCHAR 1EB3
ENCODING 7859
SWIDTH 612 0
DWIDTH 17 0
BBX 13 24 2 0
BITMAP
0F00
0100
0700
0600
70C0
39C0
1F80
0000
0000
1F80
7FE0
7FF0
F0F0
F070
0070
1FF0
7FF0
F870
E070
E070
E0F0
FFF0
7FF8
3F78
ENDCHAR
STARTCHAR 1EB4
ENCODING 7860
SWIDTH 612 0
DWIDTH 17 0
BBX 16 28 1 0
BITMAP
0620
0FE0
18C0
0000
1870
1EE0
0FC0
0000
0380
03C0
07C0
07C0
07E0
0EE0
0EE0
0EF0
1E70
1C70
1C78
3C78
3838
3FFC
7FFC
7FFC
701E
F01E
F01E
E00F
ENDCHAR
STARTCHAR 1EB5
ENCODING 7861
SWIDTH 612 0
DWIDTH 17 0
BBX 13 24 2 0
BITMAP
0C40
1FC0
3180
0000
30E0
3DC0
1F80
0000
0000
1F80
7FE0
7FF0
F0F0
F070
0070
1FF0
7FF0
F870
E070
E070
E0F0
FFF0
7FF8
3F78
ENDCHAR
STARTCHAR 1EB6
ENCODING 7862
SWIDTH 612 0
DWIDTH 17 0
BBX 16 31 1 -5
BITMAP
1C30
1C70
0FE0
07C0
0000
0000
0380
03C0
07C0
07C0
07E0
0EE0
0EE0
0EF0
1E70
1C70
1C78
3C78
3838
3FFC
7FFC
7FFC
701E
F01E
F01E
E00F
0000
0180
03C0
03C0
0380
ENDCHAR
STARTCHAR 1EB7
ENCODING 7863
SWIDTH 612 0
DWIDTH 17 0
BBX 13 26 2 -5
BITMAP
3860
38E0
1FC0
0F80
0000
0000
1F80
7FE0
7FF0
F0F0
F070
0070
1FF0
7FF0
F870
E070
E070
E0F0
FFF0
7FF8
3F78
0000
0600
0F00
0F00
0E00
ENDCHAR
STARTCHAR 1EB8
ENCODING 7864
SWIDTH 612 0
DWIDTH 17 0
BBX 13 25 2 -5
BITMAP
FFF8
FFF8
FFF8
F000
F000
F000
F000
F000
FFF0
FFF0
FFF0
F000
F000
F000
F000
F000
F000
FFF8
FFF8
FFF8
0000
0300
0780
0780
0700
ENDCHAR
STARTCHAR 1EB9
ENCODING 7865
SWIDTH 612 0
DWIDTH 17 0
BBX 13 20 2 -5
BITMAP
0FC0
3FE0
7FF0
7878
F078
E038
FFF8
FFF8
FFF8
E000
F000
F830
7FF8
3FF0
1FE0
0000
0300
0780
0780
0700
ENDCHAR
STARTCHAR 1EBA
ENCODING 7866
SWIDTH 612 0
DWIDTH 17 0
BBX 13 27 2 0
BITMAP
0700
07C0
01C0
01C0
0780
0700
0000
FFF8
FFF8
FFF8
F000
F000
F000
F000
F000
FFF0
FFF0
FFF0
F000
F000
F000
F000
F000
F000
FFF8
FFF8
FFF8
ENDCHAR
STARTCHAR 1EBB
ENCODING 7867
SWIDTH 612 0
DWIDTH 17 0
BBX 13 23 2 0
BITMAP
0700
07C0
01C0
01C0
0780
0700
0000
0000
0FC0
3FE0
7FF0
7878
F078
E038
FFF8
FFF8
FFF8
E000
F000
F830
7FF8
3FF0
0FE0
ENDCHAR
STARTCHAR 1EBC
ENCODING 7868
SWIDTH 612 0
DWIDTH 17 0
BBX 13 26 2 0
BITMAP
1C30
3FE0
3FE0
3080
0000
0000
FFF8
FFF8
FFF8
F000
F000
F000
F000
F000
FFF0
FFF0
FFF0
F000
F000
F000
F000
F000
F000
FFF8
FFF8
FFF8
ENDCHAR
STARTCHAR 1EBD
ENCODING 7869
SWIDTH 612 0
DWIDTH 17 0
BBX 13 21 2 0
BITMAP
1C30
3FE0
3FE0
3080
0000
0000
0FC0
3FE0
7FF0
7878
F078
E038
FFF8
FFF8
FFF8
E000
F000
F830
7FF8
3FF0
0FE0
ENDCHAR
STARTCHAR 1EBE
ENCODING 7870
SWIDTH 612 0
DWIDTH 17 0
BBX 16 28 2 0
BITMAP
0007
000E
000C
0F98
1DC0
38F0
0000
0000
FFF8
FFF8
FFF8
F000
F000
F000
F000
F000
FFF0
FFF0
FFF0
F000
F000
F000
F000
F000
F000
FFF8
FFF8
FFF8
ENDCHAR
STARTCHAR 1EBF
ENCODING 7871
SWIDTH 612 0
DWIDTH 17 0
BBX 15 23 2 0
BITMAP
000E
001C
0018
1F30
3B80
71E0
0000
0000
0FC0
3FE0
7FF0
7878
F078
E038
FFF8
FFF8
FFF8
E000
F000
F830
7FF8
3FF0
0FE0
ENDCHAR
STARTCHAR 1EC0
ENCODING 7872
SWIDTH 612 0
DWIDTH 17 0
BBX 15 27 0 0
BITMAP
E000
7000
30C0
19F0
0738
0E1C
0000
3FFE
3FFE
3FFE
3C00
3C00
3C00
3C00
3C00
3FFC
3FFC
3FFC
3C00
3C00
3C00
3C00
3C00
3C00
3FFE
3FFE
3FFE
ENDCHAR
STARTCHAR 1EC1
ENCODING 7873
SWIDTH 612 0
DWIDTH 17 0
BBX 16 23 -1 0
BITMAP
E000
7000
30C0
19F0
0738
0E1C
0000
0000
01F8
07FC
0FFE
0F0F
1E0F
1C07
1FFF
1FFF
1FFF
1C00
1E00
1F06
0FFF
07FE
01FC
ENDCHAR
STARTCHAR 1EC2
ENCODING 7874
SWIDTH 612 0
DWIDTH 17 0
BBX 15 28 2 0
BITMAP
0010
001C
0006
000C
0F88
1CC0
3870
0000
FFF8
FFF8
FFF8
F000
F000
F000
F000
F000
FFF0
FFF0
FFF0
F000
F000
F000
F000
F000
F000
FFF8
FFF8
FFF8
ENDCHAR
STARTCHAR 1EC3
ENCODING 7875
SWIDTH 612 0
DWIDTH 17 0
BBX 14 24 2 0
BITMAP
0020
0038
000C
0018
1F10
3980
70E0
0000
0000
0FC0
3FE0
7FF0
7878
F078
E038
FFF8
FFF8
FFF8
E000
F000
F830
7FF8
3FF0
0FE0
ENDCHAR
STARTCHAR 1EC4
ENCODING 7876
SWIDTH 612 0
DWIDTH 17 0
BBX 13 28 2 0
BITMAP
0E40
0FC0
0880
0300
0F80
1CC0
3870
0000
FFF8
FFF8
FFF8
F000
F000
F000
F000
F000
FFF0
FFF0
FFF0
F000
F000
F000
F000
F000
F000
FFF8
FFF8
FFF8
ENDCHAR
STARTCHAR 1EC5
ENCODING 7877
SWIDTH 612 0
DWIDTH 17 0
BBX 13 24 2 0
BITMAP
1C80
1F80
1100
0600
1F00
3980
70E0
0000
0000
0FC0
3FE0
7FF0
7878
F078
E038
FFF8
FFF8
FFF8
E000
F000
F830
7FF8
3FF0
0FE0
ENDCHAR
STARTCHAR 1EC6
ENCODING 7878
SWIDTH 612 0
DWIDTH 17 0
BBX 13 31 2 -5
BITMAP
0700
0F80
1DC0
38F0
0000
0000
FFF8
FFF8
FFF8
F000
F000
F000
F000
F000
FFF0
FFF0
FFF0
F000
F000
F000
F000
F000
F000
FFF8
FFF8
FFF8
0000
0300
0780
0780
0700
ENDCHAR
STARTCHAR 1EC7
ENCODING 7879
SWIDTH 612 0
DWIDTH 17 0
BBX 13 26 2 -5
BITMAP
0E00
1F00
3B80
71E0
0000
0000
0FC0
3FE0
7FF0
7878
F078
E038
FFF8
FFF8
FFF8
E000
F000
F830
7FF8
3FF0
1FE0
0000
0300
0780
0780
0700
ENDCHAR
STARTCHAR 1EC8
ENCODING 7880
SWIDTH 612 0
DWIDTH 17 0
BBX 11 27 3 0
BITMAP
1C00
1F00
0700
0700
1E00
1C00
0000
FFE0
FFE0
FFE0
0E00
0E00
0E00
0E00
0E00
0E00
0E00
0E00
0E00
0E00
0E00
0E00
0E00
0E00
FFE0
FFE0
FFE0
ENDCHAR
STARTCHAR 1EC9
ENCODING 7881
SWIDTH 612 0
DWIDTH 17 0
BBX 12 23 3 0
BITMAP
0E00
0F80
0380
0380
0F00
0E00
0000
0000
FF00
FF00
FF00
0F00
0F00
0F00
0F00
0F00
0F00
0F00
0F00
0F00
FFF0
FFF0
FFF0
ENDCHAR
STARTCHAR 1ECA
ENCODING 7882
SWIDTH 612 0
DWIDTH 17 0
BBX 11 25 3 -5
BITMAP
FFE0
FFE0
FFE0
0E00
0E00
0E00
0E00
0E00
0E00
0E00
0E00
0E00
0E00
0E00
0E00
0E00
0E00
FFE0
FFE0
FFE0
0000
0C00
1E00
1E00
1C00
ENDCHAR
STARTCHAR 1ECB
ENCODING 7883
SWIDTH 612 0
DWIDTH 17 0
BBX 12 26 3 -5
BITMAP
0200
0F00
0F00
0F00
0000
0000
FF00
FF00
FF00
0F00
0F00
0F00
0F00
0F00
0F00
0F00
0F00
0F00
FFF0
FFF0
FFF0
0000
0600
0F00
0F00
0E00
ENDCHAR
STARTCHAR 1ECC
ENCODING 7884
SWIDTH 612 0
DWIDTH 17 0
BBX 15 25 1 -5
BITMAP
0FC0
1FF0
3FF8
7878
783C
701C
F01C
F01E
F01E
F01E
F01E
F01E
F01E
F01C
701C
783C
7878
3FF8
1FF0
0FE0
0000
0180
03C0
03C0
0380
ENDCHAR
STARTCHAR 1ECD
ENCODING 7885
SWIDTH 612 0
DWIDTH 17 0
BBX 14 20 1 -5
BITMAP
07C0
1FF0
3FF8
7878
783C
703C
701C
F01C
F01C
701C
783C
783C
3FF8
1FF0
0FE0
0000
0180
03C0
03C0
0380
ENDCHAR
STARTCHAR 1ECE
ENCODING 7886
SWIDTH 612 0
DWIDTH 17 0
BBX 15 28 1 0
BITMAP
0380
03E0
00E0
00E0
03C0
0380
0000
0000
0FC0
1FF0
3FF8
7878
783C
701C
F01C
F01E
F01E
F01E
F01E
F01E
F01E
F01C
701C
783C
7878
3FF8
1FF0
0FE0
ENDCHAR
STARTCHAR 1ECF
ENCODING 7887
SWIDTH 612 0
DWIDTH 17 0
BBX 14 23 1 0
BITMAP
0380
03E0
00E0
00E0
03C0
0380
0000
0000
07C0
1FF0
3FF8
7878
783C
703C
701C
F01C
F01C
701C
783C
783C
3FF8
1FF0
0FE0
ENDCHAR
STARTCHAR 1ED0
ENCODING 7888
SWIDTH 612 0
DWIDTH 17 0
BBX 17 28 1 0
BITMAP
000380
000700
000600
07CC00
0EE000
1C7800
000000
000000
0FC000
1FF000
3FF800
787800
783C00
701C00
F01C00
F01E00
F01E00
F01E00
F01E00
F01E00
F01E00
F01C00
701C00
783C00
787800
3FF800
1FF000
0FE000
ENDCHAR
STARTCHAR 1ED1
ENCODING 7889
SWIDTH 612 0
DWIDTH 17 0
BBX 17 23 1 0
BITMAP
000380
000700
000600
07CC00
0EE000
1C7800
000000
000000
07C000
1FF000
3FF800
787800
783C00
703C00
701C00
F01C00
F01C00
701C00
783C00
783C00
3FF800
1FF000
0FE000
ENDCHAR
STARTCHAR 1ED2
ENCODING 7890
SWIDTH 612 0
DWIDTH 17 0
BBX 17 28 -1 0
BITMAP
E00000
700000
30C000
19F000
073800
0E1C00
000000
000000
03F000
07FC00
0FFE00
1E1E00
1E0F00
1C0700
3C0700
3C0780
3C0780
3C0780
3C0780
3C0780
3C0780
3C0700
3C0700
1E0F00
1E1E00
0FFE00
07FC00
03F800
ENDCHAR
STARTCHAR 1ED3
ENCODING 7891
SWIDTH 612 0
DWIDTH 17 0
BBX 16 23 -1 0
BITMAP
E000
7000
30C0
19F0
0738
0E1C
0000
0000
01F0
07FC
0FFE
1E1E
1E0F
1C0F
3C07
3C07
3C07
1C07
1E0F
1E0F
0FFE
07FC
03F8
ENDCHAR
STARTCHAR 1ED4
ENCODING 7892
SWIDTH 612 0
DWIDTH 17 0
BBX 16 29 1 0
BITMAP
0008
000E
0003
0006
07C4
0E60
1C38
0000
0000
0FC0
1FF0
3FF8
7878
783C
701C
F01C
F01E
F01E
F01E
F01E
F01E
F01E
F01C
701C
783C
7878
3FF8
1FF0
0FE0
ENDCHAR
STARTCHAR 1ED5
ENCODING 7893
SWIDTH 612 0
DWIDTH 17 0
BBX 16 24 1 0
BITMAP
0008
000E
0003
0006
07C4
0E60
1C38
0000
0000
07C0
1FF0
3FF8
7878
783C
703C
701C
F01C
F01C
701C
783C
783C
3FF8
1FF0
0FE0
ENDCHAR
STARTCHAR 1ED6
ENCODING 7894
SWIDTH 612 0
DWIDTH 17 0
BBX 15 29 1 0
BITMAP
0720
07E0
0440
0180
07C0
0E60
1C38
0000
0000
0FC0
1FF0
3FF8
7878
783C
701C
F01C
F01E
F01E
F01E
F01E
F01E
F01E
F01C
701C
783C
7878
3FF8
1FF0
0FE0
ENDCHAR
STARTCHAR 1ED7
ENCODING 7895
SWIDTH 612 0
DWIDTH 17 0
BBX 14 24 1 0
BITMAP
0720
07E0
0440
0180
07C0
0E60
1C38
0000
0000
07C0
1FF0
3FF8
7878
783C
703C
701C
F01C
F01C
701C
783C
783C
3FF8
1FF0
0FE0
ENDCHAR
STARTCHAR 1ED8
ENCODING 7896
SWIDTH 612 0
DWIDTH 17 0
BBX 15 31 1 -5
BITMAP
0380
07C0
0EE0
1C78
0000
0000
0FC0
1FF0
3FF8
7878
783C
701C
F01C
F01E
F01E
F01E
F01E
F01E
F01E
F01C
701C
783C
7878
3FF8
1FF0
0FE0
0000
0180
03C0
03C0
0380
ENDCHAR
STARTCHAR 1ED9
ENCODING 7897
SWIDTH 612 0
DWIDTH 17 0
BBX 14 26 1 -5
BITMAP
0380
07C0
0EE0
1C78
0000
0000
07C0
1FF0
3FF8
7878
783C
703C
701C
F01C
F01C
701C
783C
783C
3FF8
1FF0
0FE0
0000
0180
03C0
03C0
0380
ENDCHAR
STARTCHAR 1EDA
ENCODING 7898
SWIDTH 612 0
DWIDTH 17 0
BBX 16 25 1 0
BITMAP
00F8
00E0
01C0
0380
0007
0FE7
1FF7
3FFE
787C
783C
701C
F01E
F01E
F01E
F01E
F01E
F01E
F01E
F01E
701C
783C
783C
3FF8
1FF0
0FE0
ENDCHAR
STARTCHAR 1EDB
ENCODING 7899
SWIDTH 612 0
DWIDTH 17 0
BBX 15 20 1 0
BITMAP
00F8
00E0
01C0
0380
0006
0FCE
1FFE
3FFC
7878
783C
703C
F01C
F01C
F01C
F03C
703C
7838
3FF8
1FF0
0FE0
ENDCHAR
STARTCHAR 1EDC
ENCODING 7900
SWIDTH 612 0
DWIDTH 17 0
BBX 16 25 1 0
BITMAP
1E00
0F00
0700
0380
0007
0FE7
1FF7
3FFE
787C
783C
701C
F01E
F01E
F01E
F01E
F01E
F01E
F01E
F01E
701C
783C
783C
3FF8
1FF0
0FE0
ENDCHAR
STARTCHAR 1EDD
ENCODING 7901
SWIDTH 612 0
DWIDTH 17 0
BBX 15 20 1 0
BITMAP
1E00
0F00
0700
0380
0006
0FCE
1FFE
3FFC
7878
783C
703C
F01C
F01C
F01C
F03C
703C
7838
3FF8
1FF0
0FE0
ENDCHAR
STARTCHAR 1EDE
ENCODING 7902
SWIDTH 612 0
DWIDTH 17 0
BBX 16 28 1 0
BITMAP
0380
03E0
00E0
00E0
03C0
0380
0000
0007
0FE7
1FF7
3FFE
787C
783C
701C
F01E
F01E
F01E
F01E
F01E
F01E
F01E
F01E
701C
783C
783C
3FF8
1FF0
0FE0
ENDCHAR
STARTCHAR 1EDF
ENCODING 7903
SWIDTH 612 0
DWIDTH 17 0
BBX 15 23 1 0
BITMAP
0380
03E0
00E0
00E0
03C0
0380
0000
0006
0FCE
1FFE
3FFC
7878
783C
703C
F01C
F01C
F01C
F03C
703C
7838
3FF8
1FF0
0FE0
ENDCHAR
STARTCHAR 1EE0
ENCODING 7904
SWIDTH 612 0
DWIDTH 17 0
BBX 16 26 1 0
BITMAP
0E18
1FF0
1FF0
1840
0000
0007
0FE7
1FF7
3FFE
787C
783C
701C
F01E
F01E
F01E
F01E
F01E
F01E
F01E
F01E
701C
783C
783C
3FF8
1FF0
0FE0
ENDCHAR
STARTCHAR 1EE1
ENCODING 7905
SWIDTH 612 0
DWIDTH 17 0
BBX 15 21 1 0
BITMAP
0E18
1FF0
1FF0
1840
0000
0006
0FCE
1FFE
3FFC
7878
783C
703C
F01C
F01C
F01C
F03C
703C
7838
3FF8
1FF0
0FE0
ENDCHAR
STARTCHAR 1EE2
ENCODING 7906
SWIDTH 612 0
DWIDTH 17 0
BBX 16 26 1 -5
BITMAP
0007
0FE7
1FF7
3FFE
787C
783C
701C
F01E
F01E
F01E
F01E
F01E
F01E
F01E
F01E
701C
783C
783C
3FF8
1FF0
0FE0
0000
0180
03C0
03C0
0380
ENDCHAR
STARTCHAR 1EE3
ENCODING 7907
SWIDTH 612 0
DWIDTH 17 0
BBX 15 21 1 -5
BITMAP
0006
0FCE
1FFE
3FFC
7878
783C
703C
F01C
F01C
F01C
F03C
703C
7838
3FF8
1FF0
0FE0
0000
0180
03C0
03C0
0380
ENDCHAR
STARTCHAR 1EE4
ENCODING 7908
SWIDTH 612 0
DWIDTH 17 0
BBX 13 25 2 -5
BITMAP
E078
E078
E078
E078
E078
E078
E078
E078
E078
E078
E078
E078
E078
E078
E078
F078
F0F0
7FF0
3FE0
1FC0
0000
0300
0780
0780
0700
ENDCHAR
STARTCHAR 1EE5
ENCODING 7909
SWIDTH 612 0
DWIDTH 17 0
BBX 13 20 2 -5
BITMAP
F078
F078
F078
F078
F078
F078
F078
F078
F078
F078
F078
F078
7FF8
7FB8
3F38
0000
0C00
1E00
1E00
1C00
ENDCHAR
STARTCHAR 1EE6
ENCODING 7910
SWIDTH 612 0
DWIDTH 17 0
BBX 13 27 2 0
BITMAP
0700
07C0
01C0
01C0
0780
0700
0000
E078
E078
E078
E078
E078
E078
E078
E078
E078
E078
E078
E078
E078
E078
E078
F078
F0F0
7FF0
3FE0
1FC0
ENDCHAR
STARTCHAR 1EE7
ENCODING 7911
SWIDTH 612 0
DWIDTH 17 0
BBX 13 23 2 0
BITMAP
0700
07C0
01C0
01C0
0780
0700
0000
0000
F078
F078
F078
F078
F078
F078
F078
F078
F078
F078
F078
F078
7FF8
7FB8
3F38
ENDCHAR
STARTCHAR 1EE8
ENCODING 7912
SWIDTH 612 0
DWIDTH 17 0
BBX 18 25 2 0
BITMAP
01F000
01C000
038000
070000
0001C0
E039C0
E039C0
E03B80
E03F80
E03E00
E03800
E03800
E03800
E03800
E03800
E03800
E03800
E03800
E03800
F07800
F07800
F07800
7FF000
3FE000
1FC000
ENDCHAR
STARTCHAR 1EE9
ENCODING 7913
SWIDTH 612 0
DWIDTH 17 0
BBX 17 20 2 0
BITMAP
01F000
01C000
038000
070000
000380
E07B80
E07F00
E07F00
E07E00
E07800
E07800
E07800
E07800
E07800
E07800
E07800
F0F800
FFF800
7FF800
3F7800
ENDCHAR
STARTCHAR 1EEA
ENCODING 7914
SWIDTH 612 0
DWIDTH 17 0
BBX 18 25 2 0
BITMAP
3C0000
1E0000
0E0000
070000
0001C0
E039C0
E039C0
E03B80
E03F80
E03E00
E03800
E03800
E03800
E03800
E03800
E03800
E03800
E03800
E03800
F07800
F07800
F07800
7FF000
3FE000
1FC000
ENDCHAR
STARTCHAR 1EEB
ENCODING 7915
SWIDTH 612 0
DWIDTH 17 0
BBX 17 20 2 0
BITMAP
3C0000
1E0000
0E0000
070000
000380
E07B80
E07F00
E07F00
E07E00
E07800
E07800
E07800
E07800
E07800
E07800
E07800
F0F800
FFF800
7FF800
3F7800
ENDCHAR
STARTCHAR 1EEC
ENCODING 7916
SWIDTH 612 0
DWIDTH 17 0
BBX 18 27 2 0
BITMAP
070000
07C000
01C000
01C000
078000
070000
0001C0
E039C0
E039C0
E03B80
E03F80
E03E00
E03800
E03800
E03800
E03800
E03800
E03800
E03800
E03800
E03800
F07800
F07800
F07800
7FF000
3FE000
1FC000
ENDCHAR
STARTCHAR 1EED
ENCODING 7917
SWIDTH 612 0
DWIDTH 17 0
BBX 17 23 2 0
BITMAP
070000
07C000
01C000
01C000
078000
070000
000000
000380
E07B80
E07F00
E07F00
E07E00
E07800
E07800
E07800
E07800
E07800
E07800
E07800
F0F800
FFF800
7FF800
3F7800
ENDCHAR
STARTCHAR 1EEE
ENCODING 7918
SWIDTH 612 0
DWIDTH 17 0
BBX 18 26 2 0
BITMAP
1C3000
3FE000
3FE000
308000
000000
0001C0
E039C0
E039C0
E03B80
E03F80
E03E00
E03800
E03800
E03800
E03800
E03800
E03800
E03800
E03800
E03800
F07800
F07800
F07800
7FF000
3FE000
1FC000
ENDCHAR
STARTCHAR 1EEF
ENCODING 7919
SWIDTH 612 0
DWIDTH 17 0
BBX 17 21 2 0
BITMAP
1C3000
3FE000
3FE000
308000
000000
000380
E07B80
E07F00
E07F00
E07E00
E07800
E07800
E07800
E07800
E07800
E07800
E07800
F0F800
FFF800
7FF800
3F7800
ENDCHAR
STARTCHAR 1EF0
ENCODING 7920
SWIDTH 612 0
DWIDTH 17 0
BBX 18 26 2 -5
BITMAP
0001C0
E039C0
E039C0
E03B80
E03F80
E03E00
E03800
E03800
E03800
E03800
E03800
E03800
E03800
E03800
E03800
F07800
F07800
F07800
7FF000
3FE000
1FC000
000000
030000
078000
078000
070000
ENDCHAR
STARTCHAR 1EF1
ENCODING 7921
SWIDTH 612 0
DWIDTH 17 0
BBX 17 21 2 -5
BITMAP
000380
E07B80
E07F00
E07F00
E07E00
E07800
E07800
E07800
E07800
E07800
E07800
E07800
F0F800
FFF800
7FF800
3F7800
000000
0C0000
1E0000
1E0000
1C0000
ENDCHAR
STARTCHAR 1EF2
ENCODING 7922
SWIDTH 612 0
DWIDTH 17 0
BBX 16 25 1 0
BITMAP
1E00
0F00
0700
0380
0000
F01F
F01E
781C
783C
3838
3C78
1C70
1EF0
0EE0
0FE0
07C0
07C0
0380
0380
0380
0380
0380
0380
0380
0380
ENDCHAR
STARTCHAR 1EF3
ENCODING 7923
SWIDTH 612 0
DWIDTH 17 0
BBX 16 26 1 -6
BITMAP
1E00
0F00
0700
0380
0000
F00F
F01E
781E
783C
383C
3C38
1C78
1E70
1EF0
0EF0
0FE0
07E0
07C0
03C0
0380
0780
0700
0F00
3E00
3E00
7800
ENDCHAR
STARTCHAR 1EF4
ENCODING 7924
SWIDTH 612 0
DWIDTH 17 0
BBX 16 25 1 -5
BITMAP
F01F
F01E
781C
783C
3838
3C78
1C70
1EF0
0EE0
0FE0
07C0
07C0
0380
0380
0380
0380
0380
0380
0380
0380
0000
0180
03C0
03C0
0380
ENDCHAR
STARTCHAR 1EF5
ENCODING 7925
SWIDTH 612 0
DWIDTH 17 0
BBX 16 22 1 -7
BITMAP
F00F
F01E
781E
783C
383C
3C38
1C78
1E70
1EF0
0EF0
0FE0
07E0
07C0
03C0
0380
0780
0700
0F00
3E30
3E78
7878
0070
ENDCHAR
STARTCHAR 1EF6
ENCODING 7926
SWIDTH 612 0
DWIDTH 17 0
BBX 16 27 1 0
BITMAP
0380
03E0
00E0
00E0
03C0
0380
0000
F01F
F01E
781C
783C
3838
3C78
1C70
1EF0
0EE0
0FE0
07C0
07C0
0380
0380
0380
0380
0380
0380
0380
0380
ENDCHAR
STARTCHAR 1EF7
ENCODING 7927
SWIDTH 612 0
DWIDTH 17 0
BBX 16 29 1 -6
BITMAP
0380
03E0
00E0
00E0
03C0
0380
0000
0000
F00F
F01E
781E
783C
383C
3C38
1C78
1E70
1EF0
0EF0
0FE0
07E0
07C0
03C0
0380
0780
0700
0F00
3E00
3E00
7800
ENDCHAR
STARTCHAR 1EF8
ENCODING 7928
SWIDTH 612 0
DWIDTH 17 0
BBX 16 26 1 0
BITMAP
0E18
1FF0
1FF0
1840
0000
0000
F01F
F01E
781C
783C
3838
3C78
1C70
1EF0
0EE0
0FE0
07C0
07C0
0380
0380
0380
0380
0380
0380
0380
0380
ENDCHAR
STARTCHAR 1EF9
ENCODING 7929
SWIDTH 612 0
DWIDTH 17 0
BBX 16 27 1 -6
BITMAP
0E18
1FF0
1FF0
1840
0000
0000
F00F
F01E
781E
783C
383C
3C38
1C78
1E70
1EF0
0EF0
0FE0
07E0
07C0
03C0
0380
0780
0700
0F00
3E00
3E00
7800
ENDCHAR
STARTCHAR 1F4D
ENCODING 8013
SWIDTH 612 0
DWIDTH 17 0
BBX 18 22 -2 0
BITMAP
5C0000
D80000
D9F800
F3FE00
07FF00
0F0F00
0F0780
0E0380
1E0380
1E03C0
1E03C0
1E03C0
1E03C0
1E03C0
1E03C0
1E0380
1E0380
0F0780
0F0F00
07FF00
03FE00
01FC00
ENDCHAR
STARTCHAR 2000
ENCODING 8192
SWIDTH 612 0
DWIDTH 17 0
BBX 0 0 0 0
BITMAP
ENDCHAR
STARTCHAR 2001
ENCODING 8193
SWIDTH 612 0
DWIDTH 17 0
BBX 0 0 0 0
BITMAP
ENDCHAR
STARTCHAR 2002
ENCODING 8194
SWIDTH 612 0
DWIDTH 17 0
BBX 0 0 0 0
BITMAP
ENDCHAR
STARTCHAR 2003
ENCODING 8195
SWIDTH 612 0
DWIDTH 17 0
BBX 0 0 0 0
BITMAP
ENDCHAR
STARTCHAR 2004
ENCODING 8196
SWIDTH 612 0
DWIDTH 17 0
BBX 0 0 0 0
BITMAP
ENDCHAR
STARTCHAR 2005
ENCODING 8197
SWIDTH 612 0
DWIDTH 17 0
BBX 0 0 0 0
BITMAP
ENDCHAR
STARTCHAR 2006
ENCODING 8198
SWIDTH 612 0
DWIDTH 17 0
BBX 0 0 0 0
BITMAP
ENDCHAR
STARTCHAR 2007
ENCODING 8199
SWIDTH 612 0
DWIDTH 17 0
BBX 0 0 0 0
BITMAP
ENDCHAR
STARTCHAR 2008
ENCODING 8200
SWIDTH 612 0
DWIDTH 17 0
BBX 0 0 0 0
BITMAP
ENDCHAR
STARTCHAR 2009
ENCODING 8201
SWIDTH 612 0
DWIDTH 17 0
BBX 0 0 0 0
BITMAP
ENDCHAR
STARTCHAR 200A
ENCODING 8202
SWIDTH 612 0
DWIDTH 17 0
BBX 0 0 0 0
BITMAP
ENDCHAR
STARTCHAR 200B
ENCODING 8203
SWIDTH 612 0
DWIDTH 17 0
BBX 0 0 0 0
BITMAP
ENDCHAR
STARTCHAR 2013
ENCODING 8211
SWIDTH 612 0
DWIDTH 17 0
BBX 15 3 1 8
BITMAP
FFFE
FFFE
FFFE
ENDCHAR
STARTCHAR 2014
ENCODING 8212
SWIDTH 612 0
DWIDTH 17 0
BBX 15 3 1 8
BITMAP
FFFE
FFFE
FFFE
ENDCHAR
STARTCHAR 2015
ENCODING 8213
SWIDTH 612 0
DWIDTH 17 0
BBX 15 3 1 8
BITMAP
FFFE
FFFE
FFFE
ENDCHAR
STARTCHAR 2017
ENCODING 8215
SWIDTH 612 0
DWIDTH 17 0
BBX 13 7 2 -7
BITMAP
FFF8
FFF8
FFF8
0000
FFF8
FFF8
FFF8
ENDCHAR
STARTCHAR 2018
ENCODING 8216
SWIDTH 612 0
DWIDTH 17 0
BBX 4 8 7 14
BITMAP
20
70
60
E0
E0
E0
E0
E0
ENDCHAR
STARTCHAR 2019
ENCODING 8217
SWIDTH 612 0
DWIDTH 17 0
BBX 5 7 6 14
BITMAP
38
38
30
70
70
60
E0
ENDCHAR
STARTCHAR 201A
ENCODING 8218
SWIDTH 612 0
DWIDTH 17 0
BBX 5 8 6 -4
BITMAP
78
78
78
70
70
70
60
E0
ENDCHAR
STARTCHAR 201B
ENCODING 8219
SWIDTH 612 0
DWIDTH 17 0
BBX 4 7 6 14
BITMAP
E0
E0
E0
E0
70
70
30
ENDCHAR
STARTCHAR 201C
ENCODING 8220
SWIDTH 612 0
DWIDTH 17 0
BBX 8 8 5 14
BITMAP
22
77
66
EE
EE
EE
EE
EE
ENDCHAR
STARTCHAR 201D
ENCODING 8221
SWIDTH 612 0
DWIDTH 17 0
BBX 10 7 4 14
BITMAP
39C0
39C0
3180
7380
7380
6300
E700
ENDCHAR
STARTCHAR 201E
ENCODING 8222
SWIDTH 612 0
DWIDTH 17 0
BBX 9 7 4 -4
BITMAP
3B80
3B80
7B80
7380
7300
7700
E600
ENDCHAR
STARTCHAR 2020
ENCODING 8224
SWIDTH 612 0
DWIDTH 17 0
BBX 14 20 1 0
BITMAP
0780
0780
0780
0780
0780
FFFC
FFFC
FFFC
0780
0780
0780
0780
0780
0780
0780
0780
0780
0780
0780
0780
ENDCHAR
STARTCHAR 2021
ENCODING 8225
SWIDTH 612 0
DWIDTH 17 0
BBX 13 26 2 -6
BITMAP
0700
0700
0700
0700
0700
FFF8
FFF8
FFF8
0700
0700
0700
0700
0700
0700
0700
0700
0700
FFF8
FFF8
FFF8
0700
0700
0700
0700
0700
0700
ENDCHAR
STARTCHAR 2022
ENCODING 8226
SWIDTH 612 0
DWIDTH 17 0
BBX 6 7 6 7
BITMAP
70
F8
FC
FC
FC
F8
78
ENDCHAR
STARTCHAR 2025
ENCODING 8229
SWIDTH 612 0
DWIDTH 17 0
BBX 11 4 4 0
BITMAP
FBE0
FBE0
FBE0
71C0
ENDCHAR
STARTCHAR 2026
ENCODING 8230
SWIDTH 612 0
DWIDTH 17 0
BBX 16 4 2 0
BITMAP
FFDF
FFDF
FFDF
738E
ENDCHAR
STARTCHAR 2030
ENCODING 8240
SWIDTH 612 0
DWIDTH 17 0
BBX 15 20 1 0
BITMAP
7C00
FC00
CE00
C600
C610
EE38
7CE0
39C0
0300
0E00
1C00
3000
E7BC
4FFE
0CE6
1CE6
1CE6
0CE6
0FFE
07BC
ENDCHAR
STARTCHAR 2032
ENCODING 8242
SWIDTH 612 0
DWIDTH 17 0
BBX 3 7 6 14
BITMAP
E0
E0
E0
E0
E0
E0
E0
ENDCHAR
STARTCHAR 2033
ENCODING 8243
SWIDTH 612 0
DWIDTH 17 0
BBX 8 7 4 14
BITMAP
E3
E3
E3
E3
E3
C3
C3
ENDCHAR
STARTCHAR 2039
ENCODING 8249
SWIDTH 612 0
DWIDTH 17 0
BBX 7 11 5 2
BITMAP
0E
1C
18
38
70
E0
70
30
38
1C
0E
ENDCHAR
STARTCHAR 203A
ENCODING 8250
SWIDTH 612 0
DWIDTH 17 0
BBX 7 11 5 2
BITMAP
E0
70
30
38
1C
1E
1C
18
38
70
E0
ENDCHAR
STARTCHAR 203C
ENCODING 8252
SWIDTH 612 0
DWIDTH 17 0
BBX 15 20 1 0
BITMAP
700E
700E
700E
700E
700E
700E
700E
700E
700E
700E
700E
700E
700E
0000
0000
0000
600C
F01E
F01E
700E
ENDCHAR
STARTCHAR 2044
ENCODING 8260
SWIDTH 612 0
DWIDTH 17 0
BBX 9 14 4 3
BITMAP
0100
0380
0300
0600
0600
0C00
1C00
1800
3800
3000
6000
6000
C000
4000
ENDCHAR
STARTCHAR 2074
ENCODING 8308
SWIDTH 612 0
DWIDTH 17 0
BBX 10 12 4 8
BITMAP
0700
0700
0F00
1F00
1B00
3300
6300
E300
FFC0
FFC0
0300
0300
ENDCHAR
STARTCHAR 207F
ENCODING 8319
SWIDTH 612 0
DWIDTH 17 0
BBX 9 11 4 9
BITMAP
CF00
FF80
F380
E380
E180
E180
E180
E180
E180
E180
E180
ENDCHAR
STARTCHAR 20A3
ENCODING 8355
SWIDTH 612 0
DWIDTH 17 0
BBX 15 20 0 0
BITMAP
3FFE
3FFE
3FFE
3C00
3C00
3C00
3C00
3C00
3C00
3FFC
3FFC
3FFC
3C00
3C00
3C00
FF80
FF80
3C00
3C00
3C00
ENDCHAR
STARTCHAR 20A4
ENCODING 8356
SWIDTH 612 0
DWIDTH 17 0
BBX 14 20 2 0
BITMAP
07E0
1FF0
3FF8
3C38
383C
3800
3800
3800
FF80
FF80
3800
3800
FF80
FF80
3800
3800
7800
FFFC
FFFC
FFFC
ENDCHAR
STARTCHAR 20A7
ENCODING 8359
SWIDTH 612 0
DWIDTH 17 0
BBX 14 20 2 0
BITMAP
F800
FC00
CE70
C770
C770
C7FC
C7FC
C770
C770
CE70
FE70
FC70
C070
C070
C070
C070
C070
C070
C03C
C03C
ENDCHAR
STARTCHAR 20AB
ENCODING 8363
SWIDTH 612 0
DWIDTH 17 0
BBX 14 25 2 -4
BITMAP
0078
0078
07FC
07FC
0078
0078
1F78
3FF8
7FF8
F0F8
F078
E078
E078
E078
E078
E078
F078
F078
7FF8
7FF8
1F78
0000
FFF8
FFF8
FFF8
ENDCHAR
STARTCHAR 20AC
ENCODING 8364
SWIDTH 612 0
DWIDTH 17 0
BBX 13 20 2 0
BITMAP
03F8
07F8
0FF8
1E00
1C00
3C00
3C00
FFC0
FFC0
3C00
3C00
FFC0
FFC0
3C00
3C00
3C00
1E00
1FF8
0FF8
03F8
ENDCHAR
STARTCHAR 2105
ENCODING 8453
SWIDTH 612 0
DWIDTH 17 0
BBX 15 20 1 0
BITMAP
7C00
FE00
EE00
C020
C030
C660
EEE0
FEC0
7DC0
0180
0380
0338
06FC
06EE
0CC6
1CC6
08C6
00CE
00FE
007C
ENDCHAR
STARTCHAR 2113
ENCODING 8467
SWIDTH 612 0
DWIDTH 17 0
BBX 12 20 2 0
BITMAP
0180
07E0
0FF0
1E70
1E70
1E70
1E70
1E70
1EE0
1FE0
1FC0
3F80
FE00
FE00
1E00
1E00
1F00
0FC0
07C0
03C0
ENDCHAR
STARTCHAR 2116
ENCODING 8470
SWIDTH 612 0
DWIDTH 17 0
BBX 14 20 2 0
BITMAP
C338
E36C
E36C
E36C
E36C
F36C
F338
F338
FB00
DB7C
DB00
DB00
DF00
CF00
CF00
CF00
C700
C700
C700
C700
ENDCHAR
STARTCHAR 2122
ENCODING 8482
SWIDTH 612 0
DWIDTH 17 0
BBX 13 7 2 13
BITMAP
FB18
6318
6398
63A8
63A8
6368
6348
ENDCHAR
STARTCHAR 2126
ENCODING 8486
SWIDTH 612 0
DWIDTH 17 0
BBX 15 20 1 0
BITMAP
0FE0
1FF0
3FF8
7C7C
783C
703C
F01E
F01E
F01E
F01E
F01E
F01C
701C
783C
3838
3838
1EF0
FEFE
FEFE
FEFE
ENDCHAR
STARTCHAR 212E
ENCODING 8494
SWIDTH 612 0
DWIDTH 17 0
BBX 14 15 2 0
BITMAP
07C0
1C60
3010
6018
6018
E01C
E01C
FFFC
E000
E000
6000
6000
3008
1830
0FE0
ENDCHAR
STARTCHAR 215B
ENCODING 8539
SWIDTH 612 0
DWIDTH 17 0
BBX 16 20 1 0
BITMAP
0800
7800
F800
1820
1830
1860
18E0
18C0
19C0
1980
03BC
037E
0667
0667
0C7E
1C7E
0867
00E3
007F
003E
ENDCHAR
STARTCHAR 215C
ENCODING 8540
SWIDTH 612 0
DWIDTH 17 0
BBX 17 20 0 0
BITMAP
3E0000
7F0000
630000
031000
1E1800
1F3000
033000
E36000
7FE000
3EC000
01DE00
01BF00
03B380
033380
063F00
063F00
0C3380
007180
003F80
001F00
ENDCHAR
STARTCHAR 215D
ENCODING 8541
SWIDTH 612 0
DWIDTH 17 0
BBX 17 20 0 0
BITMAP
7E0000
7E0000
600000
6C1000
7E3800
073000
037000
E76000
7EC000
3CC000
019E00
01BF00
037300
077300
063F00
0E3F00
047300
006380
007F00
003E00
ENDCHAR
STARTCHAR 215E
ENCODING 8542
SWIDTH 612 0
DWIDTH 17 0
BBX 16 20 1 0
BITMAP
FF00
FF00
0600
0E40
0C60
1CE0
18C0
39C0
3180
7300
033C
067E
06E7
0C66
0C7E
187E
08E7
00E7
00FF
007E
ENDCHAR
STARTCHAR 2202
ENCODING 8706
SWIDTH 612 0
DWIDTH 17 0
BBX 13 21 2 0
BITMAP
1F00
7FC0
3FE0
41F0
00F0
0070
0078
1FB8
3FF8
7FF8
F078
F038
E038
E038
E038
E078
F078
F070
7FF0
3FE0
1F80
ENDCHAR
STARTCHAR 2206
ENCODING 8710
SWIDTH 612 0
DWIDTH 17 0
BBX 16 20 1 0
BITMAP
03C0
03C0
07E0
07E0
07E0
0FF0
0EF0
0E70
1E78
1E78
1C38
3C3C
3C3C
381C
781E
781E
701E
FFFE
FFFF
FFFF
ENDCHAR
STARTCHAR 220F
ENCODING 8719
SWIDTH 612 0
DWIDTH 17 0
BBX 13 23 2 -3
BITMAP
FFF8
FFF8
FFF8
F078
F078
F078
F078
F078
F078
F078
F078
F078
F078
F078
F078
F078
F078
F078
F078
F078
F078
F078
F078
ENDCHAR
STARTCHAR 2211
ENCODING 8721
SWIDTH 612 0
DWIDTH 17 0
BBX 15 24 1 -4
BITMAP
FFFE
FFFE
FFFE
7800
7C00
3C00
1E00
0F00
0780
03C0
03C0
01E0
01E0
03C0
0780
0780
0F00
1E00
3C00
7800
F800
FFFE
FFFE
FFFE
ENDCHAR
STARTCHAR 2212
ENCODING 8722
SWIDTH 612 0
DWIDTH 17 0
BBX 12 3 2 8
BITMAP
FFF0
FFF0
FFF0
ENDCHAR
STARTCHAR 2215
ENCODING 8725
SWIDTH 612 0
DWIDTH 17 0
BBX 11 22 3 -2
BITMAP
00E0
01E0
01C0
01C0
0380
0380
0780
0700
0700
0F00
0E00
0E00
1E00
1C00
1C00
3C00
3800
3800
7800
7000
7000
E000
ENDCHAR
STARTCHAR 221A
ENCODING 8730
SWIDTH 612 0
DWIDTH 17 0
BBX 14 20 1 0
BITMAP
001C
001C
001C
0018
0038
0038
0030
0070
0070
0070
F8E0
F8E0
1CE0
1CC0
1DC0
0DC0
0F80
0F80
0780
0700
ENDCHAR
STARTCHAR 221E
ENCODING 8734
SWIDTH 612 0
DWIDTH 17 0
BBX 16 10 1 3
BITMAP
7C7C
FEFE
E7CE
C387
C387
C387
E7C6
FEFE
7C7C
1838
ENDCHAR
STARTCHAR 222B
ENCODING 8747
SWIDTH 612 0
DWIDTH 17 0
BBX 11 28 3 -6
BITMAP
00C0
07E0
0FE0
0F00
1E00
1E00
1E00
1E00
1E00
1E00
1E00
1E00
1E00
1E00
1E00
1E00
1E00
1E00
1E00
1E00
1E00
1E00
1E00
1E00
1E00
FC00
FC00
F000
ENDCHAR
STARTCHAR 2248
ENCODING 8776
SWIDTH 612 0
DWIDTH 17 0
BBX 13 11 2 3
BITMAP
3C08
FF18
FFF8
83F0
8060
0000
7C08
FF18
FFF8
83F0
8040
ENDCHAR
STARTCHAR 2260
ENCODING 8800
SWIDTH 612 0
DWIDTH 17 0
BBX 13 13 2 2
BITMAP
0060
00C0
FFF8
FFF8
FFF8
0300
0300
0600
FFF8
FFF8
FFF8
1800
1800
ENDCHAR
STARTCHAR 2264
ENCODING 8804
SWIDTH 612 0
DWIDTH 17 0
BBX 12 17 2 0
BITMAP
0010
0070
03F0
1FE0
7F00
F800
FC00
7F80
0FF0
03F0
0070
0010
0000
0000
FFF0
FFF0
FFF0
ENDCHAR
STARTCHAR 2265
ENCODING 8805
SWIDTH 612 0
DWIDTH 17 0
BBX 13 17 2 0
BITMAP
C000
F800
FE00
3FC0
07F8
00F8
01F8
0FE0
FF80
FC00
E000
8000
0000
0000
FFF0
FFF0
FFF0
ENDCHAR
STARTCHAR 25CA
ENCODING 9674
SWIDTH 612 0
DWIDTH 17 0
BBX 13 20 2 0
BITMAP
0700
0F80
0F80
1DC0
1DC0
39E0
38E0
78F0
7070
F078
F078
7070
70F0
38E0
38E0
1DC0
1DC0
0F80
0F80
0700
ENDCHAR
STARTCHAR F6C3
ENCODING 63171
SWIDTH 612 0
DWIDTH 17 0
BBX 3 5 4 -2
BITMAP
60
60
60
E0
C0
ENDCHAR
STARTCHAR FEFF
ENCODING 65279
SWIDTH 612 0
DWIDTH 17 0
BBX 0 0 0 0
BITMAP
ENDCHAR
STARTCHAR FFFC
ENCODING 65532
SWIDTH 612 0
DWIDTH 17 0
BBX 15 14 1 0
BITMAP
FFFE
8002
0000
8002
8002
1B88
A78A
A68A
1BB8
8002
8002
8002
8002
FFFE
ENDCHAR
STARTCHAR FFFD
ENCODING 65533
SWIDTH 612 0
DWIDTH 17 0
BBX 16 27 0 -1
BITMAP
0080
0180
01C0
03E0
03E0
07F0
0FF0
0FF8
1C1C
380C
388E
7F8E
7F8F
FF1F
7F1F
3E3E
3E3C
1FFC
1E38
0E38
07F0
07E0
03E0
03C0
01C0
0080
0080
ENDCHAR
ENDFONT
